<svg xmlns="http://www.w3.org/2000/svg" viewBox="0 0 136.35 49.6"><defs><style>.cls-1{font-size:31.49px;font-family:STKaitiSC-Black, Kaiti SC;letter-spacing:0.11em;}.cls-1,.cls-3{fill:#95272b;}.cls-2{letter-spacing:0em;}</style></defs><title>Asset 11</title><g id="Layer_2" data-name="Layer 2"><g id="Layer_1-2" data-name="Layer 1"><text class="cls-1" transform="translate(0 24.98)">电邮地<tspan class="cls-2" x="104.86" y="0">址</tspan></text><path class="cls-3" d="M34.09,41.75c0-.8-.44-3-.44-3.46s.3-.66.74-.65.72.23.72.65-.45,2.66-.49,3.46Zm2.51,0c0-.8-.44-3-.44-3.46a.64.64,0,0,1,.73-.65c.49,0,.74.23.73.65s-.46,2.66-.5,3.46ZM42.32,43c.13,0,1.8,0,2-.08.46-.07.58-.2.73-.68a3.71,3.71,0,0,0,.13-.77.1.1,0,0,1,.11-.11l.39,0a.09.09,0,0,1,.09.13c0,.27-.06,1.55-.06,1.79,0,.55.05,1.3.08,1.63a.11.11,0,0,1-.1.12l-.35,0c-.08,0-.11,0-.12-.14s-.12-.57-.17-.74a.74.74,0,0,0-.67-.62c-.74-.08-1.82-.09-2.07-.1v1c0,.85,0,2.37,0,2.68,0,.82.4,1.13.88,1.23a6.49,6.49,0,0,0,1.16.12c.27,0,1.05,0,1.38,0A3,3,0,0,0,47.11,48a14.4,14.4,0,0,0,1.3-1.64c0-.08.1-.14.19-.09l.25.14c.08,0,.08.09,0,.22L48,48.91a.33.33,0,0,1-.35.23l-1.36,0L41.41,49H40.08l-.67,0c-.09,0-.14,0-.14-.11v-.42c0-.06,0-.08.16-.08H40c.72,0,.79-.1.79-.68l0-5.25c0-1.3,0-3.26,0-3.42-.06-.5-.21-.61-.79-.62h-.56c-.08,0-.13,0-.12-.11V38s0-.08.11-.08c.35,0,.89.05,1.93.06h.69l4.66,0c.25,0,.55,0,.63,0s.11,0,.12.08l.78,2.53c0,.06,0,.11,0,.14l-.24.12s-.11,0-.13,0A12.81,12.81,0,0,0,46.34,39a2.43,2.43,0,0,0-1.19-.43l-2.79-.09Zm8.13-.23c0-.09,0-.11.14-.11l4.39,0c.13,0,.17,0,.17.17v.6c0,.09-.06.11-.19.11l-4.38,0c-.11,0-.14,0-.14-.08ZM63.8,46.73c.22-.23,1.82-4,2-4.17s1.85-3.89,1.9-4.2.21-.19.36-.19c2.09,0,2.62,0,2.79,0s.09,0,.09.11v.36c0,.09,0,.14-.13.14h-.69c-.47,0-.52.28-.52.64s-.07,2.7-.08,3.75v1.1c0,.78,0,3.33,0,3.64,0,.6.13.85.53.85h.93c.09,0,.11,0,.11.11v.36c0,.09,0,.14-.14.14s-.47-.05-2.2-.07c-1.44,0-2.06,0-2.26,0s-.13,0-.12-.14v-.36c0-.08,0-.11.13-.11h1.07c.27,0,.41-.09.44-.56,0-.19.06-2.92.07-4.08v-1c0-1,0-3.83,0-4h0c-.16.2-2.43,5.12-2.51,5.28s-1.87,4.17-1.94,4.31-.19.37-.32.37-.17-.13-.23-.28l-2.09-5.27c-.29-.72-1.69-4.25-1.91-4.44-.06.22-.13,4.19-.13,4.38s0,3.5,0,4c.07.89.21,1.15.71,1.15h.78c.09,0,.11,0,.11.11v.39c0,.06,0,.11-.14.11s-.6-.05-1.9-.06-1.88,0-2,0-.14,0-.14-.14V48.7a.08.08,0,0,1,.09-.09h.83c.6,0,.74-.4.84-.93.2-1.11.28-5.13.28-5.41s0-2.59,0-3,0-.58-.64-.59h-1c-.09,0-.11,0-.11-.11v-.41s0-.09.11-.09.58.05,1.91.06c.74,0,1.15,0,1.33,0a.36.36,0,0,1,.41.27ZM75.21,45c-.16.39-1,2.77-1.13,3.1,0,.11,0,.27-.05.34s.19.35.53.35h.74c.11,0,.16,0,.16.11v.36c0,.11,0,.14-.13.14s-.86-.05-1.79-.06c-1.15,0-1.49,0-1.71,0s-.11,0-.11-.13v-.38a.11.11,0,0,1,.13-.11h.55c.47,0,.69-.21.92-.71.11-.25,1.28-3.14,1.75-4.42.11-.31,1.41-3.67,1.56-4.1a.63.63,0,0,0,0-.53.44.44,0,0,1-.11-.2s0-.11.14-.14A3.17,3.17,0,0,0,78,37.87c.08-.08.13-.14.21-.14s.12.1.17.27c.29,1,1.48,4.52,1.77,5.52.35,1.23,1.34,4.15,1.56,4.61a1.17,1.17,0,0,0,1.06.72h.52c.09,0,.13,0,.12.11v.39c0,.08,0,.11-.16.11-.28,0-.61-.05-1.88-.06s-1.85,0-2.21,0c-.08,0-.13,0-.12-.14v-.36c0-.09,0-.11.14-.11h.39c.44,0,.58-.15.48-.59s-.75-2.58-1-3.21Zm3.68-.53c-.14-.47-1.37-4.4-1.45-4.64s-.08-.22-.12-.22-.13.11-.17.23-1.61,4.21-1.72,4.6Zm7-1.59c0-.38,0-3.2,0-3.44s-.18-.53-.78-.54h-.91c-.08,0-.13,0-.12-.1v-.42c0-.06,0-.09.11-.09s1,.06,2.45.07,1.9,0,2.12,0a.1.1,0,0,1,.11.11v.39c0,.08,0,.11-.13.11h-.74c-.31,0-.55.12-.55.43,0,.16-.08,3.62-.08,3.81v1.21c0,.16,0,3.78,0,4,0,.49.23.57.73.57h.64c.08,0,.13,0,.12.11v.41q0,.09-.14.09c-.19,0-.82-.05-2.18-.07s-2.17,0-2.34,0-.13,0-.12-.1v-.42c0-.06,0-.09.13-.09H85c.31,0,.64,0,.71-.45,0-.24.11-3.62.12-4.45Zm6.2-.4c0-1,0-2.67,0-2.95s-.1-.57-.58-.57h-.74c-.09,0-.11-.08-.11-.16v-.35c0-.08,0-.11.11-.11s.74.05,2,.06c1.52,0,2.18,0,2.32,0s.14,0,.14.13v.36c0,.08,0,.13-.16.12h-.94c-.49,0-.55.15-.55.61,0,.2-.07,2.57-.08,3.67v1.35c0,.27,0,3.65,0,4.3.34,0,3.45.09,3.94,0,.93-.13,1.88-2,2.11-2.62,0-.06.06-.09.13-.06l.25.1s0,0,0,.14-.7,2.69-.8,3.11c-.2,0-1.43,0-2.82-.06l-3.78,0h-1.4l-.61,0c-.11,0-.13,0-.12-.11V49c0-.08,0-.11.11-.11h.75c.58,0,.68-.21.68-.42s.08-4.2.09-5.16Zm9.69-.12c0-.8-.44-3-.44-3.46s.3-.66.74-.65.72.23.72.65-.45,2.66-.49,3.46Zm2.51,0c0-.8-.44-3-.44-3.46a.64.64,0,0,1,.73-.65c.49,0,.74.23.73.65s-.46,2.66-.5,3.46Z"/></g></g></svg>