<?xml version="1.0" encoding="utf-8"?>
<!-- Generator: Adobe Illustrator 22.1.0, SVG Export Plug-In . SVG Version: 6.00 Build 0)  -->
<svg version="1.1" id="Layer_1" xmlns="http://www.w3.org/2000/svg" xmlns:xlink="http://www.w3.org/1999/xlink" x="0px" y="0px"
	 viewBox="0 0 634.4 216.7" style="enable-background:new 0 0 634.4 216.7;" xml:space="preserve">
<style type="text/css">
	.st0{fill:#93272D;}
	.st1{fill:#95272B;}
	.st2{fill:#93272C;}
</style>
<g>
	<path class="st0" d="M166.2,92.5c0-1.7-0.1-5.3-0.1-5.7c0-1.4-0.2-1.8-0.9-1.8h-1.1c-0.3,0-0.3-0.1-0.3-0.3v-0.5
		c0-0.2,0-0.3,0.3-0.3c0.5,0,1.3,0.1,4,0.1c2.6,0,3.6-0.1,4.1-0.1c0.3,0,0.3,0.1,0.3,0.3v0.6c0,0.2,0,0.2-0.3,0.2h-0.6
		c-1,0-1.1,0.5-1.2,1.5c0,0.4-0.2,3.9-0.2,5.5v0.4c0,0.1,0.1,0.2,0.4,0.2h8.1c0.4,0,0.5-0.1,0.5-0.4v-0.3c0-1.5-0.2-5.3-0.2-5.6
		c0-0.9-0.1-1.4-0.6-1.4h-1.1c-0.2,0-0.3-0.1-0.3-0.3v-0.6c0-0.2,0-0.2,0.2-0.2c0.5,0,1.6,0.1,3.9,0.1c2.2,0,3.4-0.1,3.7-0.1
		c0.3,0,0.4,0.1,0.4,0.3v0.5c0,0.2,0,0.3-0.4,0.3h-0.8c-0.8,0-0.9,0.5-0.9,1.4c0,0.4-0.1,4.9-0.1,5.9v0.9c0,0.9,0.1,6,0.1,7.5
		c0,1,0.3,1.3,1.1,1.3h0.9c0.2,0,0.2,0.1,0.2,0.2v0.6c0,0.1,0,0.3-0.3,0.3c-0.4,0-1.3-0.1-3.8-0.1c-2.8,0-3.6,0.1-4.2,0.1
		c-0.3,0-0.4-0.1-0.4-0.3v-0.6c0-0.2,0-0.2,0.3-0.2h1.2c0.6,0,0.7-0.5,0.8-1.2c0.1-1.3,0.1-5.6,0.1-6.5v-0.3c0-0.3-0.3-0.3-0.6-0.3
		h-8.1c-0.3,0-0.4,0.1-0.4,0.3v0.4c0,0.7,0.1,4.8,0.2,6.7c0,0.6,0.3,0.9,0.9,0.9h0.8c0.2,0,0.2,0.1,0.2,0.2v0.6c0,0.2,0,0.2-0.2,0.2
		c-0.5,0-1.4-0.1-3.7-0.1c-2.9,0-3.7,0.1-4.2,0.1c-0.2,0-0.3-0.1-0.3-0.3v-0.6c0-0.2,0-0.2,0.3-0.2h1.2c0.7,0,0.8-0.6,0.8-1.2
		c0-1.3,0.1-6.5,0.1-7.2V92.5z"/>
	<path class="st0" d="M191.8,101.7c-1.9-1.2-4-4.1-4-8c0-1.6,0.4-4.2,2.5-6.7c2.4-2.9,5.4-3.4,7.9-3.4c2.2,0,4.3,0.4,6.6,2.1
		c2.1,1.6,3.7,4.3,3.7,8.1c0,2-0.6,4-2,5.9c-1.8,2.2-4,3.8-8.3,3.8C196.2,103.5,193.9,103.1,191.8,101.7z M204.2,94
		c0-5.9-3.9-9.2-6.2-9.2c-0.5,0-1.9-0.1-3.5,1.5c-1.6,1.5-2.4,4.3-2.4,6.6c0,6.9,4,9.4,6.2,9.4C203.3,102.2,204.2,96.2,204.2,94z"/>
	<path class="st0" d="M227.6,95.2c0-2.4,0-3.7-0.1-5.1c0-1.1-0.2-3.7-0.2-4.1c-0.2-0.7-0.8-1.1-1.4-1.1H225c-0.1,0-0.2-0.1-0.2-0.2
		v-0.7c0-0.1,0-0.2,0.2-0.2c0.3,0,1.2,0.1,3.2,0.1c1.6,0,2.3-0.1,2.6-0.1c0.2,0,0.3,0.1,0.3,0.2v0.6c0,0.1,0,0.2-0.1,0.2h-0.8
		c-0.5,0-0.7,0.5-0.8,1.4c-0.2,1.8-0.6,7.9-0.6,11.5v4.6c0,0.4,0,0.9-0.4,0.9c-0.4,0-0.8-0.1-1.1-0.4c-0.5-0.4-1.8-1.9-3.4-3.8
		l-4.6-5.5c-0.5-0.5-4.2-5.2-4.8-6.1h-0.2v5.5c0,2.2,0.2,5.6,0.3,6.6c0.1,1.6,0.5,2.4,1.7,2.4h0.7c0.2,0,0.2,0.1,0.2,0.2v0.6
		c0,0.2,0,0.2-0.2,0.2c-0.3,0-1.9-0.1-3.2-0.1c-0.8,0-2.7,0.1-3,0.1c-0.1,0-0.1-0.1-0.1-0.2v-0.7c0-0.1,0-0.2,0.2-0.2h0.9
		c0.6,0,1-0.9,1.2-2.7c0-0.5,0.2-4.8,0.2-8.8v-2.4c0-1.6-1-3.1-2.3-3.1l-0.7,0c-0.1,0-0.2-0.1-0.2-0.2v-0.7c0-0.1,0-0.2,0.2-0.2
		c0.1,0,0.4,0,0.9,0c0.5,0,1.4,0.1,2.8,0.1c0.9,0,1.7-0.1,2.1-0.1c0.4,0,0.6,0.1,0.8,0.4l6.3,7.7l4.6,5.8h0.1V95.2z"/>
	<path class="st0" d="M251.6,100.5c0,0.4,0.1,0.6,0.1,0.9s-0.2,0.3-0.4,0.4c-2.2,1.1-4.5,1.7-7.9,1.7c-2.8,0-6-0.9-7.8-3.1
		c-1.6-1.9-2.5-4.2-2.5-7.4c0-2.5,1.2-5.1,3.1-6.8c2-1.7,4.4-2.6,7.6-2.6c2.7,0,4.8,0.8,5.6,1.3c0.3,0.2,0.5,0.1,0.7-0.1l0.3-0.4
		c0.1-0.2,0.2-0.3,0.4-0.3c0.3,0,0.4,0.2,0.4,0.5l0.4,5.6c0,0.3,0,0.5-0.1,0.5l-0.8,0.2c-0.2,0-0.2,0-0.3-0.3
		c-0.4-1.3-1.3-3-2.5-4.1c-1.1-1-2.4-1.7-4.3-1.7c-1.5,0-2.8,0.5-4.1,2c-1.2,1.5-2.2,3.7-2.2,6.2c0,3.2,0.9,6,2.3,7.4
		c1.3,1.3,2.3,1.8,4.1,1.8c1.4,0,2.2-0.1,3.1-0.5c0.6-0.3,0.6-1.1,0.6-2.5v-1.9c0-1-0.3-1.2-0.9-1.2h-1.1c-0.2,0-0.2-0.1-0.2-0.2V95
		c0-0.1,0-0.2,0.2-0.2c0.2,0,1.6,0.1,4,0.1c2.5,0,3.5-0.1,3.7-0.1s0.2,0.1,0.2,0.2v0.7c0,0.2,0,0.2-0.2,0.2h-0.8
		c-0.5,0-0.8,0.2-0.8,1V100.5z"/>
	<path class="st0" d="M261.9,85c-0.4,0-0.8,0-1.5,0.5c-0.6,0.4-2.9,3-3.5,3.7c-0.1,0.1-0.2,0.2-0.3,0.2l-0.5-0.2
		c-0.1,0-0.1-0.1-0.1-0.2l1.7-4.8c0.1-0.2,0.2-0.3,0.4-0.3c0.2,0,0.4,0,0.6,0.1c1.3,0.2,5.1,0.2,7.3,0.2c1.6,0,3-0.1,4.1-0.1
		c0.9-0.1,1.8-0.1,2-0.1c0.4,0,0.6,0.4,0.4,0.6c-0.2,0.2-12,16.8-12.6,17.5h6.5c0.8,0,1.3,0,2-0.3c0.8-0.4,3.4-3.1,3.8-3.6
		c0.1-0.1,0.2-0.1,0.4-0.1l0.5,0.2c0.1,0.1,0.1,0.1,0.1,0.2c-0.4,0.6-1.7,3.9-2.1,4.7c-0.1,0.1-0.2,0.3-0.4,0.3
		c-0.1,0-0.3,0-0.7-0.1c-1.5-0.2-5.8-0.3-8.2-0.3h-6.3c-0.2,0-0.5,0-0.5-0.2c0-0.2,0-0.4,0.1-0.5c1.1-1.7,12.2-17.1,12.4-17.4H261.9
		z"/>
	<path class="st0" d="M280.8,92.8c1.2,0,2.4-0.1,2.8-0.2c0.5-0.1,0.8-0.4,1.2-0.8c0.3-0.4,0.6-1.2,0.6-1.7c0-0.2,0.1-0.2,0.2-0.2
		l0.7,0.1c0.1,0,0.2,0.1,0.2,0.2c-0.1,0.5-0.1,1.9-0.1,2.8c0,1.2,0.1,2.5,0.2,3.1c0,0.2-0.1,0.2-0.2,0.2l-0.6,0.1
		c-0.1,0-0.2,0-0.2-0.2c-0.1-0.4-0.4-1.1-0.5-1.4c-0.3-0.5-0.9-0.9-1.5-0.9c-0.7-0.1-1.6-0.2-2.8-0.2v1.6c0,1.5,0.1,4.1,0.1,4.6
		c0,1.4,0.3,1.9,0.6,2.1c0.4,0.2,0.9,0.2,2.3,0.2c0.5,0,1.6,0,2.2-0.1c0.5-0.1,1.3-0.3,2.1-0.9c0.7-0.6,2.2-2.2,2.8-2.9
		c0.1-0.1,0.2-0.1,0.3-0.1l0.5,0.3c0.1,0.1,0.1,0.1,0.1,0.2l-1.2,4.1c-0.1,0.2-0.3,0.4-0.6,0.4c-0.1,0-0.7,0-2.5-0.1
		c-1.8,0-4.6,0-9.3,0c-1,0-1.8,0-2.3,0c-0.6,0-0.9,0.1-1.2,0.1c-0.2,0-0.2-0.1-0.2-0.3v-0.6c0-0.2,0.1-0.2,0.3-0.2h0.8
		c1.2,0,1.3-0.2,1.3-1.1v-9c0-2.2-0.1-5.6-0.1-5.8c-0.1-0.9-0.4-1.1-1.1-1.1h-1.1c-0.1,0-0.1-0.1-0.1-0.3v-0.6c0-0.1,0-0.2,0.2-0.2
		c0.6,0,1.5,0.1,4,0.1l9.5,0c0.4,0,0.9-0.1,1.1-0.1s0.2,0.1,0.2,0.1c0.1,0.4,1,4.1,1.1,4.3c0.1,0.1,0.1,0.2-0.1,0.3l-0.4,0.2
		c-0.1,0.1-0.2,0-0.3-0.1c-0.1-0.2-2.6-2.6-3.2-3c-0.6-0.4-1.3-0.7-2.1-0.7l-3.6-0.1L280.8,92.8z"/>
	<path class="st0" d="M305.8,89.4h-0.2l-5.1,13.6c-0.1,0.3-0.2,0.7-0.7,0.7c-0.3,0-0.5-0.2-0.6-0.5L293.1,86c-0.3-0.8-0.8-1-1.1-1
		h-0.7c-0.1,0-0.2-0.1-0.2-0.2v-0.7c0-0.1,0-0.2,0.2-0.2c0.2,0,1.1,0.1,3.8,0.1c1.9,0,3.1-0.1,3.3-0.1c0.2,0,0.2,0.1,0.2,0.2v0.7
		c0,0.1,0,0.2-0.2,0.2H298c-0.4,0-0.7,0.4-0.5,0.9l3.7,11.8h0.2c0.3-0.9,3.6-9.5,3.6-10.5c0-0.7-0.3-1.4-0.5-1.7s-0.6-0.5-0.8-0.5
		H303c-0.1,0-0.2-0.1-0.2-0.2v-0.7c0-0.1,0-0.2,0.2-0.2c0.2,0,1.2,0.1,3.6,0.1c2.3,0,3.3-0.1,3.6-0.1c0.2,0,0.2,0.1,0.2,0.2v0.7
		c0,0.1,0,0.2-0.2,0.2h-0.8c-0.4,0-0.7,0.6-0.5,1.1l3.7,11.6h0.2c1.3-3.7,3.7-10.5,3.7-12c0-0.3-0.4-0.7-0.9-0.7h-0.8
		c-0.2,0-0.2-0.1-0.2-0.2v-0.7c0-0.1,0-0.2,0.2-0.2c0.3,0,1.2,0.1,2.9,0.1c1.5,0,2.3-0.1,2.5-0.1c0.2,0,0.2,0.1,0.2,0.2v0.7
		c0,0.1,0,0.2-0.2,0.2h-0.5c-0.5,0-1,0.3-1.3,1c-0.3,0.9-5.8,15.5-6.3,16.8c-0.1,0.3-0.3,0.8-0.8,0.8c-0.4,0-0.5-0.4-0.7-0.7
		L305.8,89.4z"/>
	<path class="st0" d="M327.2,92.8c1.2,0,2.4-0.1,2.8-0.2c0.5-0.1,0.8-0.4,1.2-0.8c0.3-0.4,0.6-1.2,0.6-1.7c0-0.2,0.1-0.2,0.2-0.2
		l0.7,0.1c0.1,0,0.2,0.1,0.2,0.2c-0.1,0.5-0.1,1.9-0.1,2.8c0,1.2,0.1,2.5,0.2,3.1c0,0.2-0.1,0.2-0.2,0.2l-0.6,0.1
		c-0.1,0-0.2,0-0.2-0.2c-0.1-0.4-0.4-1.1-0.5-1.4c-0.3-0.5-0.9-0.9-1.5-0.9c-0.7-0.1-1.6-0.2-2.8-0.2v1.6c0,1.5,0.1,4.1,0.1,4.6
		c0,1.4,0.3,1.9,0.6,2.1c0.4,0.2,0.9,0.2,2.3,0.2c0.5,0,1.6,0,2.2-0.1c0.5-0.1,1.3-0.3,2.1-0.9c0.7-0.6,2.2-2.2,2.8-2.9
		c0.1-0.1,0.2-0.1,0.3-0.1l0.5,0.3c0.1,0.1,0.1,0.1,0.1,0.2l-1.2,4.1c-0.1,0.2-0.3,0.4-0.6,0.4c-0.1,0-0.7,0-2.5-0.1
		c-1.8,0-4.6,0-9.3,0c-1,0-1.8,0-2.3,0c-0.6,0-0.9,0.1-1.2,0.1c-0.2,0-0.2-0.1-0.2-0.3v-0.6c0-0.2,0.1-0.2,0.3-0.2h0.8
		c1.2,0,1.3-0.2,1.3-1.1v-9c0-2.2-0.1-5.6-0.1-5.8c-0.1-0.9-0.4-1.1-1.1-1.1H321c-0.1,0-0.1-0.1-0.1-0.3v-0.6c0-0.1,0-0.2,0.2-0.2
		c0.6,0,1.5,0.1,4,0.1l9.5,0c0.4,0,0.9-0.1,1.1-0.1s0.2,0.1,0.2,0.1c0.1,0.4,1,4.1,1.1,4.3c0.1,0.1,0.1,0.2-0.1,0.3l-0.4,0.2
		c-0.1,0.1-0.2,0-0.3-0.1c-0.1-0.2-2.6-2.6-3.2-3c-0.6-0.4-1.3-0.7-2.1-0.7l-3.6-0.1L327.2,92.8z"/>
	<path class="st0" d="M341.7,91.8c0-0.6-0.1-5.5-0.1-5.9c-0.1-0.6-0.3-0.9-0.9-0.9h-1.3c-0.1,0-0.2-0.1-0.2-0.2v-0.8
		c0-0.1,0.1-0.2,0.2-0.2c0.3,0,1.7,0.1,4.3,0.1c2.8,0,3.6-0.1,4-0.1c0.1,0,0.2,0.1,0.2,0.2v0.7c0,0.1-0.1,0.2-0.2,0.2H347
		c-0.7,0-1.1,0.2-1.1,0.7c0,0.3-0.1,6.2-0.1,6.6v2.1c0,0.3,0.1,6.5,0.1,6.7c0,0.8,0.4,1,0.9,1h1.1c0.1,0,0.2,0.1,0.2,0.2v0.8
		c0,0.1-0.1,0.2-0.2,0.2c-0.3,0-1.4-0.1-4-0.1c-2.8,0-4,0.1-4.3,0.1c-0.1,0-0.2-0.1-0.2-0.2v-0.7c0-0.1,0.1-0.2,0.2-0.2h0.8
		c0.5,0,1.1-0.1,1.2-0.7c0.1-0.4,0.1-6.2,0.1-7.7V91.8z"/>
	<path class="st0" d="M353.9,99.6c0.1,1,0.5,2.5,1.4,2.5h1.1c0.2,0,0.2,0.1,0.2,0.2v0.7c0,0.1,0,0.2-0.2,0.2c-0.3,0-1-0.1-3-0.1
		c-2.3,0-3.2,0.1-3.5,0.1c-0.2,0-0.2,0-0.2-0.2v-0.7c0-0.1,0-0.2,0.2-0.2h1.1c0.9,0,1.2-1.2,1.3-2.1c0.2-1.9,0.5-8.3,0.5-8.8l0-4.1
		c0-1.2-0.3-2.1-1.5-2.1h-0.9c-0.2,0-0.2-0.1-0.2-0.2v-0.8c0-0.1,0-0.2,0.2-0.2c0.3,0,1,0.1,4.2,0.1c1.3,0,2.1-0.1,2.4-0.1
		c0.3,0,0.5,0,0.6,0.5c1.7,4.6,3.7,9.1,5.2,13.1c0.3-0.5,2.3-5.5,2.5-5.9c0.1-0.3,2.8-6.7,2.9-7.3c0.1-0.3,0.4-0.3,1.2-0.3
		c4.2,0,5.1-0.1,5.4-0.1c0.1,0,0.2,0.1,0.2,0.2v0.6c0,0.2,0,0.2-0.2,0.2h-1.2c-0.6,0-0.7,0.5-0.7,1.1c0,0.4,0,7,0.1,7.6
		c0,0.5,0.1,6.5,0.1,6.9c0,1,0.2,1.5,0.6,1.5h1.3c0.2,0,0.2,0.1,0.2,0.2v0.7c0,0.2,0,0.2-0.2,0.2c-0.3,0-0.8-0.1-4-0.1
		c-2.8,0-3.8,0.1-4.2,0.1c-0.2,0-0.2-0.1-0.2-0.2v-0.7c0-0.1,0-0.2,0.2-0.2h1.5c0.5,0,0.7-0.2,0.8-0.9c0-0.3,0.1-5.2,0.1-7.1v-8.2
		H369c-0.3,0.5-3.3,7.8-3.8,8.9c-0.6,1.2-3,7.2-3.1,7.5c-0.1,0.2-0.3,0.6-0.6,0.6c-0.2,0-0.4-0.2-0.5-0.5c-0.1-0.2-3.6-8.6-3.8-9
		c-0.5-1.2-3-7.3-3.2-7.6c-0.1,0.4-0.2,7.2-0.2,7.5S353.8,97.2,353.9,99.6z"/>
	<path class="st0" d="M381.4,95.7c-0.2,0.6-1.5,4.3-1.5,5.1c0,0.6,0.2,1.2,1.1,1.2h0.9c0.3,0,0.3,0.1,0.3,0.2v0.6
		c0,0.2,0,0.3-0.2,0.3c-0.4,0-1.5-0.1-3.7-0.1c-2,0-2.6,0.1-2.9,0.1c-0.2,0-0.2-0.2-0.2-0.4v-0.5c0-0.2,0-0.2,0.2-0.2h0.7
		c0.6,0,1.3-0.4,1.8-1.2c0.4-0.6,2.3-5.3,3.2-7.6c0.2-0.5,2.4-6.3,2.6-7.1c0.1-0.3,0.2-0.6,0-0.9c-0.1-0.1-0.2-0.2-0.2-0.4
		c0-0.1,0.1-0.2,0.3-0.2c0.9-0.2,2.6-0.9,3-1.3c0.1-0.1,0.2-0.2,0.4-0.2c0.2,0,0.2,0.2,0.3,0.5c0.5,1.7,2.6,7.7,3.1,9.5
		c0.6,2.1,2.4,7.1,2.8,7.9c0.5,0.9,1.2,1.2,1.6,1.2h0.9c0.2,0,0.2,0.1,0.2,0.2v0.5c0,0.2,0,0.4-0.2,0.4c-0.5,0-1.1-0.1-4.5-0.1
		c-2.2,0-3.2,0.1-3.7,0.1c-0.3,0-0.3-0.2-0.3-0.4v-0.5c0-0.1,0-0.2,0.2-0.2h0.8c0.7,0,1-0.3,0.8-1c-0.2-1-1.3-4.4-1.6-5.4H381.4z
		 M387,94.6l-2-7.2c-0.1-0.4-0.2-0.6-0.3-0.6c-0.2,0-0.2,0.1-0.3,0.4c-0.1,0.4-2.5,6.7-2.7,7.4H387z"/>
	<path class="st0" d="M403,94.6c0,0.5,0,6.3,0.1,7.4h1.5c1.3,0,2.5,0,3.9-0.1c1.5-0.1,3.3-3.4,3.7-4.4c0.1-0.2,0.2-0.2,0.3-0.2
		l0.5,0.2c0.1,0.1,0.1,0.1,0.1,0.2c-0.1,0.2-1.2,4.6-1.3,5.4c-0.7-0.1-8.5-0.1-11-0.1c-2.7,0-3.6,0.1-4,0.1c-0.2,0-0.2-0.1-0.2-0.2
		v-0.7c0-0.1,0-0.2,0.2-0.2h0.8c1,0,1.2-0.4,1.2-0.7c0-0.5,0.1-7.2,0.1-8.9V91c0-1.7-0.1-4.6-0.1-5c-0.1-0.7-0.2-1-0.8-1h-1
		c-0.2,0-0.2-0.1-0.2-0.3v-0.6c0-0.1,0-0.2,0.2-0.2c0.3,0,1.3,0.1,3.7,0.1c3.2,0,4.3-0.1,4.5-0.1c0.2,0,0.2,0.1,0.2,0.3v0.6
		c0,0.1-0.1,0.2-0.3,0.2H404c-0.8,0-0.9,0.3-0.9,1c0,0.4-0.1,4.4-0.1,6.3V94.6z"/>
	<path class="st0" d="M418.6,95.7c-0.2,0.6-1.5,4.3-1.5,5.1c0,0.6,0.2,1.2,1.1,1.2h0.9c0.3,0,0.3,0.1,0.3,0.2v0.6
		c0,0.2,0,0.3-0.2,0.3c-0.4,0-1.5-0.1-3.7-0.1c-2,0-2.6,0.1-2.9,0.1c-0.2,0-0.2-0.2-0.2-0.4v-0.5c0-0.2,0-0.2,0.2-0.2h0.7
		c0.6,0,1.3-0.4,1.8-1.2c0.4-0.6,2.3-5.3,3.2-7.6c0.2-0.5,2.4-6.3,2.6-7.1c0.1-0.3,0.2-0.6,0-0.9c-0.1-0.1-0.2-0.2-0.2-0.4
		c0-0.1,0.1-0.2,0.3-0.2c0.9-0.2,2.6-0.9,3-1.3c0.1-0.1,0.2-0.2,0.4-0.2c0.2,0,0.2,0.2,0.3,0.5c0.5,1.7,2.6,7.7,3.1,9.5
		c0.6,2.1,2.4,7.1,2.8,7.9c0.5,0.9,1.2,1.2,1.6,1.2h0.9c0.2,0,0.2,0.1,0.2,0.2v0.5c0,0.2,0,0.4-0.2,0.4c-0.5,0-1.1-0.1-4.5-0.1
		c-2.2,0-3.2,0.1-3.7,0.1c-0.3,0-0.3-0.2-0.3-0.4v-0.5c0-0.1,0-0.2,0.2-0.2h0.8c0.7,0,1-0.3,0.8-1c-0.2-1-1.3-4.4-1.6-5.4H418.6z
		 M424.2,94.6l-2-7.2c-0.1-0.4-0.2-0.6-0.3-0.6c-0.2,0-0.2,0.1-0.3,0.4c-0.1,0.4-2.5,6.7-2.7,7.4H424.2z"/>
	<path class="st0" d="M449.8,86.4c0.2,0,0.2,0.2,0.1,0.5c-0.2,0.5-1.2,3.3-1.6,4.5c-0.3,0.9-0.8,2.7-0.8,3.5c0,0.4,0.4,0.5,0.6,0.5
		c1,0,3.5-2.1,3.5-6.7c0-4-2.2-5.8-5.8-5.8c-5.5,0-9.8,5.6-9.8,10.9c0,4.3,2.9,6.7,6.8,6.7c1.6,0,3.2-0.1,4.9-0.9
		c0.1-0.1,0.2-0.1,0.2,0l0.3,0.5c0.1,0.1,0,0.2-0.1,0.3c-1.3,0.8-3.5,1.3-5.7,1.3c-5.9,0-9.1-3.1-9.1-7.6c0-6.4,6.1-12.4,12.8-12.4
		c5.3,0,8,2.8,8,7.2c0,3.5-3.1,7.6-8.2,7.6c-0.7,0-1.2-0.4-1.2-0.9c0-0.4,0.1-1.4,0.7-2.8l-0.1-0.1c-0.9,1.2-2.5,3.8-5,3.8
		c-0.9,0-1.7-0.5-1.7-1.8c0-3.4,4.2-8.6,7.3-8.6c0.8,0,1.2,0.4,1.4,0.9l0.4-0.5c0.1-0.2,0.2-0.2,0.3-0.2H449.8z M445.5,87.1
		c-2,0-3.8,5-3.8,6.8c0,0.6,0.2,0.9,0.7,0.9c0.8,0,3-3.4,3.5-4.3c0.4-0.9,0.5-1.6,0.5-2.1C446.4,87.7,446.1,87.1,445.5,87.1z"/>
	<path class="st0" d="M474.5,100.5c0,0.4,0.1,0.6,0.1,0.9s-0.2,0.3-0.4,0.4c-2.2,1.1-4.5,1.7-7.9,1.7c-2.8,0-6-0.9-7.8-3.1
		c-1.6-1.9-2.5-4.2-2.5-7.4c0-2.5,1.2-5.1,3.1-6.8c2-1.7,4.4-2.6,7.6-2.6c2.7,0,4.8,0.8,5.6,1.3c0.3,0.2,0.5,0.1,0.7-0.1l0.3-0.4
		c0.1-0.2,0.2-0.3,0.4-0.3c0.3,0,0.4,0.2,0.4,0.5l0.4,5.6c0,0.3,0,0.5-0.1,0.5l-0.8,0.2c-0.2,0-0.2,0-0.3-0.3
		c-0.4-1.3-1.3-3-2.5-4.1c-1.1-1-2.4-1.7-4.3-1.7c-1.5,0-2.8,0.5-4.1,2c-1.2,1.5-2.2,3.7-2.2,6.2c0,3.2,0.9,6,2.3,7.4
		c1.3,1.3,2.3,1.8,4.1,1.8c1.4,0,2.2-0.1,3-0.5c0.6-0.3,0.6-1.1,0.6-2.5v-1.9c0-1-0.3-1.2-0.9-1.2h-1.1c-0.2,0-0.2-0.1-0.2-0.2V95
		c0-0.1,0-0.2,0.2-0.2c0.2,0,1.6,0.1,4,0.1c2.5,0,3.5-0.1,3.7-0.1s0.2,0.1,0.2,0.2v0.7c0,0.2,0,0.2-0.2,0.2h-0.8
		c-0.5,0-0.8,0.2-0.8,1V100.5z"/>
	<path class="st0" d="M481.8,99.6c0.1,1,0.5,2.5,1.4,2.5h1.1c0.2,0,0.2,0.1,0.2,0.2v0.7c0,0.1,0,0.2-0.2,0.2c-0.3,0-1-0.1-3-0.1
		c-2.3,0-3.2,0.1-3.5,0.1c-0.2,0-0.2,0-0.2-0.2v-0.7c0-0.1,0-0.2,0.2-0.2h1.1c0.9,0,1.2-1.2,1.3-2.1c0.2-1.9,0.5-8.3,0.5-8.8l0-4.1
		c0-1.2-0.3-2.1-1.5-2.1h-0.9c-0.2,0-0.2-0.1-0.2-0.2v-0.8c0-0.1,0-0.2,0.2-0.2c0.3,0,1,0.1,4.2,0.1c1.3,0,2.1-0.1,2.4-0.1
		c0.3,0,0.5,0,0.6,0.5c1.7,4.6,3.7,9.1,5.2,13.1c0.3-0.5,2.3-5.5,2.5-5.9c0.1-0.3,2.8-6.7,2.9-7.3c0.1-0.3,0.4-0.3,1.2-0.3
		c4.2,0,5.1-0.1,5.4-0.1c0.1,0,0.2,0.1,0.2,0.2v0.6c0,0.2,0,0.2-0.2,0.2h-1.2c-0.6,0-0.7,0.5-0.7,1.1c0,0.4,0,7,0.1,7.6
		c0,0.5,0.1,6.5,0.1,6.9c0,1,0.2,1.5,0.6,1.5h1.3c0.2,0,0.2,0.1,0.2,0.2v0.7c0,0.2,0,0.2-0.2,0.2c-0.3,0-0.8-0.1-4-0.1
		c-2.8,0-3.8,0.1-4.2,0.1c-0.2,0-0.2-0.1-0.2-0.2v-0.7c0-0.1,0-0.2,0.2-0.2h1.5c0.5,0,0.7-0.2,0.8-0.9c0-0.3,0.1-5.2,0.1-7.1v-8.2
		h-0.2c-0.3,0.5-3.3,7.8-3.8,8.9c-0.6,1.2-3,7.2-3.1,7.5c-0.1,0.2-0.3,0.6-0.6,0.6c-0.2,0-0.4-0.2-0.5-0.5c-0.1-0.2-3.6-8.6-3.8-9
		c-0.5-1.2-3-7.3-3.2-7.6c-0.1,0.4-0.2,7.2-0.2,7.5S481.7,97.2,481.8,99.6z"/>
	<path class="st0" d="M509.2,95.7c-0.2,0.6-1.5,4.3-1.5,5.1c0,0.6,0.2,1.2,1.1,1.2h0.9c0.3,0,0.3,0.1,0.3,0.2v0.6
		c0,0.2,0,0.3-0.2,0.3c-0.4,0-1.5-0.1-3.7-0.1c-2,0-2.6,0.1-2.9,0.1c-0.2,0-0.2-0.2-0.2-0.4v-0.5c0-0.2,0-0.2,0.2-0.2h0.7
		c0.6,0,1.3-0.4,1.8-1.2c0.4-0.6,2.3-5.3,3.2-7.6c0.2-0.5,2.4-6.3,2.6-7.1c0.1-0.3,0.2-0.6,0-0.9c-0.1-0.1-0.2-0.2-0.2-0.4
		c0-0.1,0.1-0.2,0.3-0.2c0.9-0.2,2.6-0.9,3-1.3c0.1-0.1,0.2-0.2,0.4-0.2c0.2,0,0.2,0.2,0.3,0.5c0.5,1.7,2.6,7.7,3.1,9.5
		c0.6,2.1,2.4,7.1,2.8,7.9c0.5,0.9,1.2,1.2,1.6,1.2h0.9c0.2,0,0.2,0.1,0.2,0.2v0.5c0,0.2,0,0.4-0.2,0.4c-0.5,0-1.1-0.1-4.5-0.1
		c-2.2,0-3.2,0.1-3.7,0.1c-0.3,0-0.3-0.2-0.3-0.4v-0.5c0-0.1,0-0.2,0.2-0.2h0.8c0.7,0,1-0.3,0.8-1c-0.2-1-1.3-4.4-1.6-5.4H509.2z
		 M514.9,94.6l-2-7.2c-0.1-0.4-0.2-0.6-0.3-0.6c-0.2,0-0.2,0.1-0.3,0.4c-0.1,0.4-2.5,6.7-2.7,7.4H514.9z"/>
	<path class="st0" d="M527.1,91.8c0-0.6-0.1-5.5-0.1-5.9c-0.1-0.6-0.3-0.9-0.9-0.9h-1.3c-0.1,0-0.2-0.1-0.2-0.2v-0.8
		c0-0.1,0.1-0.2,0.2-0.2c0.3,0,1.7,0.1,4.3,0.1c2.8,0,3.6-0.1,4-0.1c0.1,0,0.2,0.1,0.2,0.2v0.7c0,0.1-0.1,0.2-0.2,0.2h-0.8
		c-0.7,0-1.1,0.2-1.1,0.7c0,0.3-0.1,6.2-0.1,6.6v2.1c0,0.3,0.1,6.5,0.1,6.7c0,0.8,0.4,1,0.9,1h1.1c0.1,0,0.2,0.1,0.2,0.2v0.8
		c0,0.1-0.1,0.2-0.2,0.2c-0.3,0-1.4-0.1-4-0.1c-2.8,0-4,0.1-4.3,0.1c-0.1,0-0.2-0.1-0.2-0.2v-0.7c0-0.1,0.1-0.2,0.2-0.2h0.8
		c0.5,0,1.1-0.1,1.2-0.7c0.1-0.4,0.1-6.2,0.1-7.7V91.8z"/>
	<path class="st0" d="M542.3,94.6c0,0.5,0,6.3,0.1,7.4h1.5c1.3,0,2.5,0,3.9-0.1c1.5-0.1,3.3-3.4,3.7-4.4c0.1-0.2,0.2-0.2,0.3-0.2
		l0.5,0.2c0.1,0.1,0.1,0.1,0.1,0.2c-0.1,0.2-1.2,4.6-1.3,5.4c-0.7-0.1-8.5-0.1-11-0.1c-2.7,0-3.6,0.1-4,0.1c-0.2,0-0.2-0.1-0.2-0.2
		v-0.7c0-0.1,0-0.2,0.2-0.2h0.8c1,0,1.2-0.4,1.2-0.7c0-0.5,0.1-7.2,0.1-8.9V91c0-1.7-0.1-4.6-0.1-5c-0.1-0.7-0.2-1-0.8-1h-1
		c-0.2,0-0.2-0.1-0.2-0.3v-0.6c0-0.1,0-0.2,0.2-0.2c0.3,0,1.3,0.1,3.7,0.1c3.2,0,4.3-0.1,4.5-0.1c0.2,0,0.2,0.1,0.2,0.3v0.6
		c0,0.1-0.1,0.2-0.3,0.2h-1.3c-0.8,0-0.9,0.3-0.9,1c0,0.4-0.1,4.4-0.1,6.3V94.6z"/>
	<path class="st0" d="M554.6,101.3c0-0.8,0.6-2.1,2.2-2.1c1.1,0,2.1,0.9,2.1,2.2c0,1.2-0.9,2-2.1,2
		C555.5,103.5,554.6,102.6,554.6,101.3z"/>
	<path class="st0" d="M564.8,101c-2-1.8-2.9-4.9-2.9-7.2c0-2.8,0.9-5.3,2.8-7.3c1.5-1.6,3.8-2.9,7.1-2.9c2.5,0,4.5,0.6,5.4,1.1
		c0.4,0.2,0.5,0.2,0.6,0L578,84c0.1-0.2,0.1-0.2,0.5-0.2c0.4,0,0.5,0.1,0.5,0.4c0,0.5,0.5,5.1,0.6,5.9c0,0.2,0,0.3-0.1,0.4l-0.6,0.2
		c-0.1,0.1-0.2-0.1-0.3-0.3c-0.3-1.1-1-2.5-2.2-3.6c-1.2-1.1-2.6-2-4.6-2c-3.9,0-5.6,3.6-5.6,7.6c0,1.7,0.5,5,2.4,7
		c1.8,1.8,3.3,2,4.2,2c3.1,0,5.4-1.4,6.4-2.9c0.1-0.2,0.3-0.3,0.4-0.2l0.5,0.4c0.1,0.1,0.1,0.2,0,0.3c-1.6,2.3-4.2,4.5-8,4.5
		C568.4,103.5,566.5,102.5,564.8,101z"/>
	<path class="st0" d="M585.6,101.7c-1.9-1.2-4-4.1-4-8c0-1.6,0.4-4.2,2.5-6.7c2.4-2.9,5.4-3.4,7.9-3.4c2.2,0,4.3,0.4,6.6,2.1
		c2.1,1.6,3.7,4.3,3.7,8.1c0,2-0.6,4-2,5.9c-1.8,2.2-4,3.8-8.3,3.8C590.1,103.5,587.7,103.1,585.6,101.7z M598,94
		c0-5.9-3.9-9.2-6.2-9.2c-0.5,0-1.9-0.1-3.5,1.5c-1.6,1.5-2.4,4.3-2.4,6.6c0,6.9,4,9.4,6.2,9.4C597.1,102.2,598,96.2,598,94z"/>
	<path class="st0" d="M608.2,99.6c0.1,1,0.5,2.5,1.4,2.5h1.1c0.2,0,0.2,0.1,0.2,0.2v0.7c0,0.1,0,0.2-0.2,0.2c-0.3,0-1-0.1-3-0.1
		c-2.3,0-3.2,0.1-3.5,0.1c-0.2,0-0.2,0-0.2-0.2v-0.7c0-0.1,0-0.2,0.2-0.2h1.1c0.9,0,1.2-1.2,1.3-2.1c0.2-1.9,0.5-8.3,0.5-8.8l0-4.1
		c0-1.2-0.3-2.1-1.5-2.1h-0.9c-0.2,0-0.2-0.1-0.2-0.2v-0.8c0-0.1,0-0.2,0.2-0.2c0.3,0,1,0.1,4.2,0.1c1.3,0,2.1-0.1,2.4-0.1
		c0.3,0,0.5,0,0.6,0.5c1.7,4.6,3.7,9.1,5.2,13.1c0.3-0.5,2.3-5.5,2.5-5.9c0.1-0.3,2.8-6.7,2.9-7.3c0.1-0.3,0.4-0.3,1.2-0.3
		c4.2,0,5.1-0.1,5.4-0.1c0.1,0,0.2,0.1,0.2,0.2v0.6c0,0.2,0,0.2-0.2,0.2h-1.2c-0.6,0-0.7,0.5-0.7,1.1c0,0.4,0,7,0.1,7.6
		c0,0.5,0.1,6.5,0.1,6.9c0,1,0.2,1.5,0.6,1.5h1.3c0.2,0,0.2,0.1,0.2,0.2v0.7c0,0.2,0,0.2-0.2,0.2c-0.3,0-0.8-0.1-4-0.1
		c-2.8,0-3.8,0.1-4.2,0.1c-0.2,0-0.2-0.1-0.2-0.2v-0.7c0-0.1,0-0.2,0.2-0.2h1.5c0.5,0,0.7-0.2,0.8-0.9c0-0.3,0.1-5.2,0.1-7.1v-8.2
		h-0.2c-0.3,0.5-3.3,7.8-3.8,8.9c-0.6,1.2-3,7.2-3.1,7.5c-0.1,0.2-0.3,0.6-0.6,0.6c-0.2,0-0.4-0.2-0.5-0.5c-0.1-0.2-3.6-8.6-3.8-9
		c-0.5-1.2-3-7.3-3.2-7.6c-0.1,0.4-0.2,7.2-0.2,7.5S608.1,97.2,608.2,99.6z"/>
</g>
<title>Asset 5</title>
<path class="st1" d="M28.4,22.1c0.5,0.3,0.7,1,0.5,1.5c-0.4,0.7-1.1,1.3-1.9,1.5c-1,0.3-1.9,0.6-2.9,0.7c-1,0.2-2.1,0.3-3.1,0.3
	c-1,0-2,0-3-0.2c-0.8-0.1-1.7-0.3-2.5-0.5c-0.6-0.2-1.1-0.5-1.6-0.9c-0.4-0.4-0.8-0.8-1-1.3c-0.3-0.6-0.4-1.3-0.5-2
	c-0.1-1-0.1-2-0.1-3c-0.8,0.1-1.6,0.2-2.4,0.3c-0.1,0.3-0.2,0.6-0.4,0.8c-0.1,0.2-0.3,0.3-0.5,0.3c-0.2,0-0.3-0.1-0.4-0.1
	c-0.2-0.1-0.4-0.3-0.5-0.4c-0.4-0.4-0.6-0.8-0.7-1.3c-0.5-2.2-0.9-3.9-1.3-5.3c-0.2-1-0.7-2-1.3-2.8C4.5,9.4,4.3,9.1,4.2,8.8
	c-0.1-0.2,0-0.5,0.2-0.6C4.7,8.1,5.1,8,5.5,8c0.7,0,1.4,0.1,2.1,0.3C8.4,8.2,9.3,8.1,10.1,8l2.3-0.4c0-1.2-0.1-2.3-0.3-3.5
	c-0.1-0.7-0.3-1.3-0.7-1.9c-0.8-1-0.9-1.6-0.5-1.9s1.5,0,3.2,0.6c0.5,0.2,0.9,0.4,1.3,0.6c0.3,0.2,0.5,0.4,0.6,0.6
	c0.1,0.2,0.1,0.4,0.1,0.7c-0.1,0.2-0.1,0.5-0.3,0.7c-0.1,0.3-0.2,0.7-0.3,1c-0.1,0.5-0.2,1.3-0.3,2.5c1-0.2,1.9-0.3,2.6-0.5
	c0.5-0.1,1.1-0.3,1.6-0.5c0.3-0.2,0.6-0.3,0.8-0.3c0.2-0.1,0.4-0.1,0.7-0.1c0.2,0,0.5,0.1,0.7,0.2c0.3,0.1,0.7,0.3,1,0.5
	c0.6,0.3,1.1,0.7,1.7,1.1c0.3,0.2,0.6,0.5,0.8,0.8c0.1,0.2,0.1,0.5,0,0.6c-0.1,0.2-0.3,0.4-0.5,0.6c-0.4,0.3-0.7,0.7-0.9,1.1
	c-0.2,0.4-0.4,0.8-0.5,1.3c-0.1,0.2-0.1,0.5-0.2,0.9s-0.2,0.8-0.4,1.2s-0.3,0.8-0.4,1.3c-0.1,0.4-0.3,0.8-0.4,1.1
	c-0.2,0.4-0.4,0.8-0.8,1.1c-0.3,0.3-0.5,0.5-0.9,0.7c-0.2,0.1-0.5,0.2-0.8,0.2c-0.2,0-0.4-0.1-0.5-0.3c-0.1-0.2-0.2-0.3-0.3-0.4
	c-0.1-0.1-0.3-0.1-0.4-0.1c-0.2,0-0.6,0-1.2,0.1s-1.1,0.1-1.8,0.2c-0.1,1.1,0,2.2,0.3,3.2c0.1,0.5,0.4,0.9,0.8,1.2
	c1.2,0.5,2.5,0.8,3.8,0.7c1.3,0,2.6-0.3,3.8-0.7c0.5-0.2,0.9-0.6,1.2-1.1c0.5-0.9,0.8-1.8,0.9-2.8c0.2-1.3,0.5-2,0.8-2
	s0.5,0.7,0.6,2c0.1,0.7,0.1,1.2,0.2,1.7c0.1,0.4,0.1,0.7,0.2,1.1c0.1,0.2,0.2,0.5,0.3,0.7C28.2,21.9,28.3,22,28.4,22.1z M12.4,9.4
	c-0.7,0.1-1.3,0.2-2,0.3S9.2,9.8,8.6,9.9c0.1,0.6,0.2,1.2,0.3,1.9s0.2,1.3,0.4,1.9s0.2,1.2,0.3,1.8s0.2,1.1,0.3,1.5l1.2-0.1
	c0.4-0.1,0.8-0.1,1.1-0.2c0-0.5,0-1,0-1.5v-1.4c-0.4,0-0.8,0.1-1,0.1c-0.3,0-0.5,0-0.8-0.1C10,13.5,9.8,13.3,9.8,13s0.3-0.4,0.8-0.5
	l0.8-0.1c0.3-0.1,0.7-0.1,1-0.2L12.4,9.4z M19.8,9.4c0.1-0.6-0.1-0.9-0.4-0.9c-0.6,0-1.2,0-1.9,0.1c-0.7,0.1-1.5,0.2-2.3,0.3
	c0,0.4,0,0.8,0,1.2s0,0.8-0.1,1.2c0.5-0.1,1-0.2,1.5-0.2c0.3,0,0.6,0.1,0.9,0.1c0.6,0.2,0.9,0.5,0.9,0.8s-0.3,0.6-0.9,0.8
	c-0.3,0.2-0.7,0.3-1.1,0.4c-0.4,0.1-0.9,0.2-1.3,0.3v2.7c0.9-0.2,1.5-0.3,1.9-0.3c0.3,0,0.6,0,0.9,0.1c0.2,0.1,0.3,0.1,0.5-0.1
	c0.2-0.3,0.4-0.6,0.5-1c0.1-0.4,0.2-0.8,0.3-1.3s0.2-1,0.3-1.5s0.1-1,0.2-1.5S19.8,9.6,19.8,9.4L19.8,9.4z"/>
<path class="st1" d="M46.5,19.8c-0.7,0.7-1.3,1.3-1.8,1.8s-0.9,1-1.2,1.4c-0.3,0.3-0.5,0.7-0.8,1.1c-0.2,0.3-0.4,0.6-0.5,0.9
	c-0.1,0.3-0.3,0.6-0.5,0.8c-0.1,0.2-0.3,0.2-0.5,0.2c-0.3-0.1-0.5-0.3-0.7-0.5c-0.4-0.4-0.7-0.9-1-1.3c-0.4-0.5-0.7-1.1-0.8-1.7
	c0-0.3,0.3-0.6,1-0.8s0.8-0.7,1-1.6s0.3-2,0.3-3s0.1-2,0.1-3.1c0-0.3,0-0.7-0.1-1c-0.1-0.1-0.3-0.1-0.5,0l-0.9,0.3
	c-0.3,0.2-0.7,0.3-1,0.5c-0.2,0.2-0.5,0.3-0.7,0.4c-0.2,0.1-0.4,0.1-0.7,0.1c-0.2,0-0.5-0.1-0.7-0.2c-0.3-0.2-0.6-0.4-0.8-0.6
	c-0.6-0.6-0.9-0.9-0.7-1.2s0.7-0.3,1.6-0.3c0.4,0,0.8-0.1,1.2-0.2c0.4-0.1,0.9-0.3,1.3-0.4c0.4-0.2,0.8-0.4,1.2-0.6
	c0.3-0.2,0.6-0.5,0.8-0.7c0.1-0.2,0.3-0.3,0.4-0.4c0.1-0.1,0.3-0.2,0.5-0.2c0.2,0,0.4,0,0.7,0c0.3,0.1,0.6,0.2,1,0.3
	c0.4,0.2,0.9,0.3,1.3,0.6c0.2,0.1,0.4,0.3,0.5,0.5c0.1,0.2,0,0.4-0.1,0.6c-0.2,0.3-0.4,0.5-0.6,0.8c-0.3,0.3-0.5,0.6-0.7,1
	c-0.2,0.4-0.3,0.9-0.4,1.3c-0.1,0.7-0.2,1.5-0.2,2.2c0,0.9-0.1,2.1-0.1,3.6l0.8-0.4l0.6-0.3l0.5-0.2l0.5-0.3
	c0.9-0.4,1.4-0.6,1.5-0.4S47.2,19.1,46.5,19.8z M47.1,3.7c0.1,0.4,0,0.8-0.1,1.2c-0.1,0.3-0.3,0.6-0.6,0.8c-0.3,0.2-0.6,0.2-0.9,0.2
	c-0.4,0-0.7-0.1-1-0.3c-1.2-0.8-2.3-1.7-3.2-2.8c-0.5-0.5-0.6-0.8-0.5-1s0.7-0.3,1.6-0.4c1.2-0.2,2.4,0,3.5,0.4
	C46.6,2.3,47,2.9,47.1,3.7z M63.4,9.8c0.9,0.8,1.2,1.4,1.1,1.8s-1,0.5-2.5,0.3c-0.3,0-0.7,0-1.3,0s-1.2,0-1.8,0.1s-1.4,0.1-2.1,0.2
	l-2.2,0.3l-0.7,4c0.4-0.1,0.8-0.2,1.2-0.4c0.3-0.1,0.7-0.3,1-0.5c0.4-0.3,0.9-0.4,1.3-0.4c0.6,0.1,1.2,0.3,1.7,0.7
	c0.6,0.3,1.2,0.7,1.8,1.1c0.3,0.2,0.6,0.5,0.8,0.8c0.1,0.2,0.1,0.4,0,0.6c-0.2,0.2-0.4,0.4-0.7,0.6c-1,0.7-1.8,1.6-2.3,2.7
	c0.7,0.7,1,1.2,0.9,1.5s-0.6,0.5-1.3,0.6c-1.2,0.1-2.4,0.3-3.5,0.4s-2.3,0.2-3.4,0.2c0,0.5-0.1,1-0.3,1.5c-0.2,0.3-0.4,0.5-0.6,0.5
	c-0.4,0-0.8-0.3-1-0.6c-0.4-0.6-0.6-1.2-0.6-1.9c-0.2-1.3-0.4-2.5-0.7-3.8c-0.1-0.7-0.4-1.3-0.7-1.8c-0.2-0.2-0.3-0.4-0.4-0.7
	c-0.1-0.2,0-0.4,0.1-0.5c0.3-0.2,0.6-0.2,0.8-0.2c0.6,0,1.2,0.1,1.8,0.2l0.8-0.1l0.8-0.1l0.4-4.1c-0.5,0.1-1.1,0.2-1.5,0.3
	c-0.4,0.1-0.9,0.2-1.3,0.4c-0.3,0.1-0.7,0.3-1.1,0.3c-0.3,0.1-0.5,0.1-0.8,0.1c-0.2,0-0.4-0.1-0.6-0.2c-0.3-0.1-0.5-0.3-0.7-0.5
	c-0.6-0.5-0.9-0.9-0.8-1s0.5-0.2,1.4-0.3s1.6-0.1,2.6-0.3s2-0.3,2.9-0.5c0.1-1.2,0-2.5-0.3-3.7c-0.4,0.1-0.8,0.2-1.2,0.3L49.3,8
	c-1,0.2-1.5,0.2-1.6-0.1s0.3-0.6,1.2-1c0.7-0.3,1.4-0.7,2.1-1.1c0.7-0.4,1.4-1,2.1-1.5C53.6,3.9,54,3.5,54.4,3
	c0.2-0.3,0.3-0.6,0.3-1c0-0.2,0-0.5,0.2-0.7C55,1.1,55.2,1,55.4,1c0.3,0,0.7,0.1,1,0.2C57,1.4,57.5,1.7,58,2c1.3,0.8,2,1.4,2,1.8
	s-0.5,0.8-1.5,0.9c-0.5,0.1-1,0.2-1.4,0.4c-0.5,0.2-1.1,0.4-1.6,0.7c-0.2,0.2-0.5,0.3-0.7,0.4l-0.7,0.3c0.4,0.2,0.7,0.4,1.1,0.6
	c0.2,0.1,0.4,0.3,0.5,0.5c0.1,0.2,0.1,0.3,0.1,0.5c-0.1,0.2-0.1,0.4-0.2,0.6c-0.1,0.3-0.2,0.5-0.3,0.8c-0.1,0.3-0.2,0.6-0.3,1
	c0.8-0.1,1.5-0.3,2.3-0.5s1.5-0.4,2-0.6c0.8-0.3,1.6-0.4,2.4-0.4C62.3,9.1,63,9.4,63.4,9.8z M56.7,19.1c0.2-0.5,0.1-0.9,0-1
	s-0.5-0.2-1.1-0.1c-1.8,0.4-3.4,0.6-4.7,0.7c0.1,0.7,0.2,1.4,0.3,2.1s0.2,1.3,0.2,1.9l1.6-0.2c0.5-0.1,1.1-0.2,1.7-0.3
	c0.3,0,0.5-0.1,0.7-0.2c0.2-0.1,0.4-0.3,0.5-0.5c0.2-0.3,0.3-0.6,0.4-0.9C56.3,20.2,56.5,19.7,56.7,19.1z"/>
<path class="st1" d="M97.4,9.4c0.4,0.3,0.7,0.7,1,1.1c0.2,0.2,0.2,0.5,0.1,0.8c-0.2,0.2-0.5,0.4-0.8,0.4c-0.6,0.1-1.3,0.1-1.9,0
	c-1.5-0.2-3.1-0.2-4.6-0.2c-1.7,0-3.6,0.1-5.7,0.3c0.5,0.4,0.6,0.7,0.5,0.9c-0.2,0.3-0.5,0.5-0.9,0.6c-0.3,0.1-0.5,0.3-0.7,0.5
	c-0.3,0.3-0.8,0.8-1.4,1.4c0.9-0.2,1.9-0.4,2.8-0.6c0.5-0.2,1-0.4,1.5-0.6c0.2-0.1,0.4-0.2,0.7-0.3c0.2-0.1,0.4-0.1,0.7,0
	c0.3,0,0.6,0.1,0.8,0.3c0.3,0.1,0.7,0.4,1.1,0.6c0.5,0.3,1,0.6,1.4,1c0.3,0.2,0.5,0.5,0.6,0.8c0.1,0.2,0,0.5-0.1,0.7
	c-0.2,0.3-0.4,0.5-0.7,0.8c-0.1,0.1-0.2,0.2-0.3,0.4c-0.1,0.2-0.2,0.4-0.3,0.6c-0.1,0.3-0.2,0.6-0.3,1s-0.3,0.9-0.4,1.5
	c-0.2,0.9-0.5,1.7-0.7,2.3c-0.2,0.5-0.4,1.1-0.7,1.5c-0.3,0.4-0.6,0.8-0.9,1.1c-0.4,0.3-0.9,0.7-1.4,0.9c-0.5,0.4-1.2,0.6-1.9,0.6
	c-0.4-0.1-0.6-0.4-0.7-1c-0.1-0.4-0.3-0.8-0.5-1.2c-0.3-0.6-0.7-1.1-1.2-1.6c-0.9-1-1.2-1.6-1.1-1.8s0.8-0.1,2.1,0.5
	c0.4,0.2,0.8,0.3,1.3,0.4c0.3,0.1,0.6,0.1,0.8,0c0.2,0,0.4-0.1,0.5-0.3c0.1-0.2,0.3-0.3,0.3-0.5c0.7-1.4,1.1-3,1.3-4.5
	c0.1-0.4,0-0.8-0.2-1.2c-0.2-0.2-0.5-0.3-1-0.2l-1.9,0.3c-0.5,0.1-1,0.2-1.4,0.3c-0.3,0.1-0.7,0.2-1,0.4c-0.3,0.1-0.5,0.3-0.8,0.4
	c-0.2,0.2-0.4,0.3-0.7,0.4c-0.1,0.1-0.3,0.1-0.4,0.1c-0.2-0.1-0.3-0.2-0.4-0.3c-0.2-0.3-0.4-0.5-0.5-0.8c-0.2-0.3-0.3-0.6-0.5-0.9
	c-0.1-0.2-0.1-0.4-0.1-0.5c0.1-0.2,0.2-0.3,0.4-0.4c0.3-0.1,0.6-0.2,0.9-0.3c0.2-0.1,0.5-0.2,0.7-0.4c0.2-0.2,0.4-0.4,0.6-0.6
	c0.2-0.3,0.4-0.6,0.5-0.9c0.1-0.3,0.2-0.7,0.3-1c-0.9,0.1-1.8,0.2-2.9,0.4s-2,0.4-2.9,0.6l-1.3,0.3c-0.3,0-0.6,0-0.9,0
	c-0.3,0-0.5-0.1-0.7-0.3c-0.3-0.2-0.5-0.4-0.8-0.6c-0.8-0.6-1.2-1-1.1-1.2s0.6-0.3,1.6-0.2c0.2,0,0.4,0,0.7,0h0.7l0.8-0.1l1.1-0.1
	l7.1-0.8l4.7-0.5c1.2-0.1,2.2-0.3,3-0.4s1.3-0.2,1.8-0.3s1.1-0.2,1.5-0.3c0.4-0.1,0.8-0.1,1.2-0.1c0.3,0,0.7,0.1,1,0.2
	C96.9,9,97.2,9.2,97.4,9.4z M92.2,3.5c-0.5,0.2-1,0.5-1.5,0.9c-0.5,0.4-0.8,1-1.1,1.5c0.8,0.4,1.1,0.8,1.1,1.2s-0.6,0.6-1.6,0.8
	l-1.7,0.2l-1.6,0.2l-1.7,0.2l-1.9,0.2C82,9,81.8,9.3,81.4,9.4c-0.4,0.1-0.8,0-1-0.3c-0.1-0.1-0.1-0.1-0.2-0.2
	c-0.1-0.1-0.1-0.3-0.1-0.4c0-0.2-0.1-0.4-0.1-0.7s-0.1-0.7-0.2-1.2c-0.1-0.7-0.3-1.4-0.5-2c-0.2-0.5-0.4-1-0.8-1.5
	c-0.2-0.3-0.4-0.6-0.5-0.9c-0.1-0.2,0-0.4,0.1-0.5c0,0,0.1,0,0.1,0c0.4-0.1,0.8-0.1,1.2-0.1c0.6,0,1.4,0.1,2.4,0.3
	c0.8-0.1,1.6-0.2,2.2-0.3c0.5-0.1,1.1-0.2,1.6-0.3C86,1.2,86.4,1,86.8,0.9c0.3-0.1,0.6-0.3,0.9-0.5c0.2-0.1,0.3-0.2,0.5-0.3
	C88.3,0,88.5,0,88.8,0c0.3,0,0.6,0.1,0.8,0.2c0.4,0.2,0.8,0.3,1.2,0.6c0.6,0.3,1.1,0.6,1.6,1C92.6,2,92.9,2.2,93,2.5
	c0.1,0.2,0.1,0.4-0.1,0.6C92.7,3.3,92.5,3.4,92.2,3.5z M87.3,4.2c0.1-0.3,0.1-0.7,0.1-1c-0.1-0.2-0.2-0.2-0.4-0.2l-1.8,0.2
	c-0.8,0.1-1.7,0.2-2.8,0.4c0.1,0.6,0.1,1.1,0.2,1.7c0,0.6,0,1.1,0,1.6c1.1-0.1,1.9-0.2,2.6-0.3c0.5-0.1,1-0.2,1.6-0.4
	c0.2-0.2,0.3-0.5,0.4-0.7C87.1,5,87.2,4.6,87.3,4.2z"/>
<path class="st1" d="M118.4,13.6c-0.4,0.3-0.7,0.6-1,1c-0.3,0.5-0.5,1-0.7,1.6c0.3,0.1,0.6,0.3,0.8,0.5c0.1,0.1,0.2,0.3,0.2,0.5
	c0,0.2-0.2,0.3-0.3,0.4c-0.2,0.1-0.5,0.2-0.8,0.2c-0.9,0.1-1.7,0.2-2.2,0.3s-1.2,0.2-1.7,0.2c0,0.6-0.2,1.2-0.4,1.7
	c-0.2,0.3-0.4,0.6-0.7,0.8c-0.3,0.1-0.6,0-0.7-0.2c-0.3-0.4-0.5-0.8-0.4-1.3c0-0.4-0.1-0.8-0.1-1.2s-0.1-0.8-0.1-1.1
	c-1,1.2-2.2,2.2-3.6,2.9c-1,0.5-1.6,0.7-1.7,0.6c-0.1-0.1,0.2-0.7,1-1.6c0.6-0.7,1.2-1.4,1.7-2.1c0.7-1,1.4-2.1,1.9-3.2
	c-0.5-0.8-0.7-1.3-0.6-1.5s0.6-0.3,1.3-0.2c0.4-0.9,0.7-1.6,0.9-2.2c0.2-0.5,0.3-1,0.5-1.4c0.1-0.3,0.1-0.7,0.1-1
	c0-0.3,0-0.6-0.1-0.8c-0.5,0.1-1,0.1-1.5,0c-0.4-0.1-0.9-0.2-1.3-0.3c-0.8-0.3-1.1-0.6-1.1-0.8s0.5-0.3,1.3-0.4
	c1-0.1,1.9-0.2,2.8-0.4c1-0.2,2-0.6,2.9-1c0.5-0.2,1-0.4,1.6-0.4c0.6,0,1.2,0.1,1.8,0.3c0.2,0.1,0.4,0.2,0.5,0.3
	c0.1,0.1,0.1,0.3,0.1,0.5c-0.1,0.2-0.3,0.4-0.5,0.5c-0.4,0.2-0.8,0.4-1.2,0.6c-0.4,0.2-0.8,0.3-1.2,0.4c-0.4,0.1-0.9,0.2-1.4,0.3
	c0.3,0.2,0.6,0.4,0.9,0.7c0.2,0.1,0.3,0.3,0.3,0.5c0,0.2,0,0.3-0.1,0.4c-0.1,0.2-0.2,0.3-0.4,0.4c-0.3,0.4-0.6,0.8-0.8,1.2
	c-0.4,0.6-0.8,1.5-1.2,2.5c0.3-0.1,0.6-0.2,0.9-0.3c0.2-0.1,0.4-0.2,0.6-0.4c0.1-0.1,0.3-0.2,0.4-0.2c0.2-0.1,0.3-0.1,0.5-0.1
	c0.3,0,0.5,0.1,0.7,0.2c0.3,0.1,0.7,0.3,1.1,0.5c0.4,0.2,0.7,0.4,1.1,0.7c0.2,0.1,0.3,0.4,0.4,0.6c0,0.2,0,0.3-0.1,0.5
	C118.7,13.3,118.6,13.4,118.4,13.6z M115,14c0.1-0.7-0.2-1-1.1-0.8c-0.3,0-0.6,0.1-0.8,0.1l-0.8,0.2c0,0.6,0.1,1.2,0.2,1.7
	s0.1,1,0.2,1.6l0.9-0.2c0.3-0.1,0.6-0.1,0.8-0.2c0.2-0.4,0.3-0.8,0.4-1.2C114.9,14.8,115,14.4,115,14z M129,17.6
	c0.6,0.5,0.8,1,0.7,1.4s-0.7,0.5-1.7,0.4c-0.3,0-0.5,0-0.8,0l-1.2,0.1l-1.3,0.1c-0.4,0-0.8,0.1-1.2,0.1l-0.8,0.1l-1.3,0.2
	c-0.5,0.1-0.9,0.2-1.4,0.3s-0.9,0.2-1.2,0.3c-0.2,0.1-0.5,0.2-0.7,0.2c-0.2,0-0.4,0-0.6,0c-0.2,0-0.4-0.1-0.6-0.2
	c-0.3-0.1-0.5-0.3-0.7-0.5c-0.6-0.5-0.9-0.8-0.9-1c0-0.1,0.4-0.2,1.1-0.2c0.4,0,0.8,0,1.2-0.1c0.4,0,1-0.1,1.8-0.3
	c1.5-0.2,2.8-0.5,3.9-0.7s2-0.5,2.8-0.7c0.5-0.2,1-0.2,1.5-0.1C128.1,17,128.6,17.3,129,17.6L129,17.6z M134.2,14.9
	c-0.4,0.4-0.6,0.9-0.7,1.5c-0.2,1-0.4,2-0.4,3.1c-0.1,1.4-0.4,2.8-0.9,4.2c-0.4,1.1-1.1,2-2,2.8c-0.5,0.5-1.2,0.9-2,1
	c-0.4,0-0.8-0.3-0.8-0.7c0,0,0,0,0,0c0-0.2-0.1-0.4-0.2-0.6c-0.1-0.2-0.1-0.4-0.3-0.6c-0.1-0.2-0.3-0.5-0.5-0.8s-0.5-0.7-0.9-1.1
	c-0.6-0.7-0.8-1.1-0.7-1.3s0.6-0.2,1.5,0.1c0.4,0.2,0.9,0.3,1.3,0.4c0.3,0.1,0.5,0.1,0.8,0c0.3-0.1,0.5-0.3,0.6-0.6
	c0.2-0.3,0.3-0.7,0.4-1c0.1-0.3,0.2-0.7,0.3-1.2s0.2-1,0.3-1.6s0.1-1.1,0.2-1.8s0.1-1.2,0.1-1.8c0-0.2-0.1-0.3-0.2-0.4
	c-0.2-0.1-0.3-0.2-0.5-0.2c-0.7,0-1.3,0-2,0.1c-0.8,0.1-1.7,0.3-2.5,0.5s-1.6,0.4-2.3,0.6c-0.5,0.1-1,0.3-1.4,0.6
	c-0.2,0.2-0.5,0.4-0.8,0.5c-0.2,0.1-0.4,0.1-0.6,0.1c-0.2-0.1-0.4-0.2-0.5-0.4c-0.2-0.3-0.4-0.5-0.6-0.8c-0.2-0.3-0.4-0.7-0.4-1.1
	c0-0.2,0.3-0.4,0.9-0.6c0.2,0,0.3-0.2,0.4-0.6c0.1-0.4,0.2-0.8,0.3-1.2c0.1-0.5,0.2-1,0.2-1.6s0.1-1.1,0.1-1.6c0-0.4,0-0.9,0-1.3
	c0-0.2-0.1-0.5-0.2-0.7c-0.5-0.8-0.7-1.3-0.3-1.5s1-0.1,2.2,0.3c0.4,0.2,0.8,0.4,1.2,0.6c0.2,0.1,0.4,0.3,0.5,0.5
	c0.1,0.2,0.1,0.3,0.1,0.5c-0.1,0.2-0.2,0.4-0.3,0.6c-0.1,0.2-0.2,0.3-0.3,0.5c-0.1,0.3-0.2,0.6-0.3,0.9c-0.1,0.4-0.2,0.9-0.3,1.6
	s-0.3,1.5-0.4,2.5c0.8-0.1,1.5-0.1,2.1-0.2s1.1-0.2,1.6-0.3c-0.3-0.2-0.6-0.5-0.7-0.9c0-0.1-0.1-0.3-0.1-0.4c0-0.2,0-0.4,0-0.6
	c0-0.2,0-0.4,0.1-0.6c0-0.2,0.1-0.3,0.2-0.5c0.1-0.2,0.2-0.4,0.2-0.6c0.1-0.2,0.1-0.6,0.2-1s0.2-1,0.2-1.7s0.2-1.5,0.3-2.5
	c0-0.4,0-0.6-0.1-0.7c-0.1-0.1-0.3-0.1-0.4-0.1c-0.4,0.1-0.9,0.2-1.5,0.3c-0.6,0.1-1.2,0.3-1.7,0.6c-0.2,0.1-0.5,0.2-0.8,0.2
	c-0.2,0-0.4,0-0.6,0c-0.2,0-0.4-0.1-0.6-0.2c-0.3-0.2-0.5-0.4-0.8-0.6c-0.6-0.5-0.8-0.8-0.7-1s0.5-0.2,1.2-0.2c0.6,0,1.2,0,1.7-0.1
	c0.5-0.1,1.1-0.2,1.6-0.3c0.5-0.1,1-0.3,1.5-0.5c0.4-0.1,0.7-0.3,1-0.5l0.5-0.4c0.2-0.1,0.3-0.2,0.5-0.2c0.2,0,0.4,0,0.7,0.1
	c0.3,0.1,0.7,0.3,1,0.5c0.5,0.3,0.9,0.5,1.4,0.9c0.2,0.2,0.4,0.4,0.6,0.6c0.1,0.2,0.1,0.4-0.1,0.5c-0.2,0.2-0.4,0.4-0.6,0.5
	c-0.2,0.2-0.5,0.4-0.6,0.7c-0.2,0.3-0.3,0.7-0.4,1c-0.1,0.5-0.3,1-0.4,1.5c-0.1,0.6-0.2,1.3-0.3,2.1c-0.1,0.4-0.2,0.8-0.3,1.2
	c-0.1,0.4-0.3,0.7-0.4,1.1c-0.1,0.3-0.3,0.6-0.5,0.9c-0.1,0.2-0.3,0.4-0.5,0.6c0.9-0.1,1.6-0.2,2.1-0.4c0.3-0.1,0.7-0.2,1-0.3
	c0.4-0.2,0.8-0.3,1.2-0.3c0.6,0.1,1.1,0.3,1.6,0.6c0.5,0.2,1,0.5,1.5,0.9c0.3,0.2,0.5,0.4,0.6,0.7c0.1,0.2,0.1,0.4,0,0.6
	C134.5,14.5,134.4,14.7,134.2,14.9L134.2,14.9z"/>
<path class="st1" d="M13.3,41.1c0-0.8-0.4-3-0.4-3.5s0.3-0.7,0.7-0.7s0.7,0.2,0.7,0.7s-0.4,2.7-0.5,3.5H13.3z M15.8,41.1
	c0-0.8-0.4-3-0.4-3.5c0-0.4,0.3-0.7,0.6-0.7c0,0,0.1,0,0.1,0c0.5,0,0.7,0.2,0.7,0.7s-0.5,2.7-0.5,3.5L15.8,41.1z"/>
<path class="st1" d="M22.5,37.8h-0.4c-0.8,0-1.7,0-2.5,0.2c-0.7,0.2-1.2,1.3-1.4,1.8c0,0.1-0.1,0.1-0.2,0.1l-0.3-0.1
	c0,0-0.1,0-0.1-0.1c0.2-0.6,0.7-2.6,0.8-2.8s0.1-0.2,0.2-0.2c0.1,0,0.1,0,0.2,0.1l0.2,0.1c0.3,0.2,0.6,0.3,0.9,0.3
	c0.8,0,1.5,0.1,3,0.1h0.8c1.7,0,2.4,0,3.1-0.1c0.3,0,0.6-0.1,0.8-0.2l0.3-0.2c0.1,0,0.1-0.1,0.2-0.1c0.1,0,0.1,0,0.1,0.2
	s0.3,2.1,0.4,2.8c0,0.1,0,0.1-0.1,0.1L28.3,40c-0.1,0-0.1,0-0.1-0.1c-0.1-0.3-0.6-1.5-1.1-1.8c-0.9-0.2-1.8-0.3-2.7-0.3h-0.4v4.5
	c0,0.2,0,4.6,0,4.9s0.1,0.6,0.5,0.6h1c0.1,0,0.1,0,0.1,0.2v0.3c0,0.1,0,0.1-0.2,0.1s-0.7,0-2.2-0.1s-2.2,0-2.4,0s-0.1-0.1-0.1-0.2
	V48c0-0.1,0-0.2,0.1-0.2h1.1c0.3,0,0.5-0.2,0.5-0.4c0-0.5,0.1-5.3,0.1-5.6L22.5,37.8z"/>
<path class="st1" d="M32.9,42.5c0.1,0,1.8,0,2-0.1c0.5-0.1,0.6-0.2,0.7-0.7c0.1-0.2,0.1-0.5,0.1-0.8c0-0.1,0-0.1,0.1-0.1
	c0,0,0,0,0,0h0.4c0.1,0,0.1,0,0.1,0.1c0,0,0,0,0,0c0,0.3-0.1,1.6-0.1,1.8c0,0.5,0.1,1.3,0.1,1.6c0,0.1,0,0.1-0.1,0.1h-0.3
	c-0.1,0-0.1,0-0.1-0.1c0-0.2-0.1-0.5-0.2-0.7c-0.1-0.3-0.3-0.6-0.7-0.6c-0.7,0-1.8,0-2.1,0v1c0,0.8,0,2.4,0,2.7
	c0,0.8,0.4,1.1,0.9,1.2c0.4,0.1,0.8,0.1,1.2,0.1c0.3,0,1,0,1.4,0c0.5-0.1,1-0.3,1.4-0.5c0.5-0.5,0.9-1.1,1.3-1.7
	c0-0.1,0.1-0.1,0.2-0.1l0.2,0.2c0.1,0,0.1,0.1,0,0.2l-0.9,2.3c0,0.2-0.2,0.3-0.3,0.2l-1.4,0L32,48.5h-1.4c-0.3,0-0.5,0-0.7,0
	s-0.1,0-0.1-0.1V48c0-0.1,0-0.1,0.2-0.1h0.6c0.7,0,0.8-0.1,0.8-0.7l0-5.2c0-1.3,0-3.3,0-3.4c-0.1-0.5-0.2-0.6-0.8-0.6h-0.6
	c-0.1,0-0.1,0-0.1-0.1v-0.4c0,0,0-0.1,0.1-0.1c0.4,0,0.9,0.1,1.9,0.1h0.7c1.5,0,3.1,0,4.7,0c0.2,0,0.5,0,0.6,0c0.1,0,0.1,0,0.1,0.1
	l0.8,2.5c0,0.1,0,0.1,0,0.1l-0.2,0.1c0,0-0.1,0-0.1,0c-0.5-0.6-1-1.2-1.5-1.8c-0.3-0.3-0.8-0.4-1.2-0.5l-2.8-0.1L32.9,42.5z"/>
<path class="st1" d="M42,41.5c0-1,0-2.7,0-2.9S41.9,38,41.4,38h-0.7c-0.1,0-0.1-0.1-0.1-0.2v-0.3c0-0.1,0-0.1,0.1-0.1s0.7,0,2,0.1
	c1.5,0,2.2,0,2.3,0s0.1,0,0.1,0.1v0.4c0,0.1,0,0.1-0.2,0.1h-0.9c-0.5,0-0.5,0.2-0.5,0.6c0,0.2-0.1,2.6-0.1,3.7v1.3
	c0,0.3,0,3.7,0,4.3c0.3,0,3.5,0.1,3.9,0c0.9-0.1,1.9-2,2.1-2.6c0-0.1,0.1-0.1,0.1-0.1l0.2,0.1c0,0,0,0,0,0.2s-0.7,2.7-0.8,3.1
	c-0.2,0-1.4,0-2.8-0.1h-3.8h-1.4h-0.6c-0.1,0-0.1,0-0.1-0.1v-0.4c0-0.1,0-0.1,0.1-0.1h0.8c0.6,0,0.7-0.2,0.7-0.4s0.1-4.2,0.1-5.2
	L42,41.5z"/>
<path class="st1" d="M53.7,42.6c0.1,0,1.8,0,2-0.1c0.5-0.1,0.6-0.2,0.7-0.7c0.1-0.3,0.1-0.5,0.1-0.8c0-0.1,0-0.1,0.1-0.1
	c0,0,0,0,0,0l0.3,0c0.1,0,0.1,0,0.1,0.1c0,0,0,0,0,0c0,0.3-0.1,1.6-0.1,1.8c0,0.5,0.1,1.3,0.1,1.6c0,0.1,0,0.1-0.1,0.1h-0.3
	c-0.1,0-0.1,0-0.1-0.1s-0.1-0.6-0.2-0.7c-0.1-0.3-0.3-0.6-0.7-0.6c-0.7-0.1-1.8-0.1-2.1-0.1v1c0,0.8,0,2.4,0,2.7
	c0,0.8,0.4,1.1,0.9,1.2c0.4,0.1,0.8,0.1,1.2,0.1c0.3,0,1,0,1.4,0c0.5-0.1,1-0.3,1.4-0.5c0.5-0.5,0.9-1.1,1.3-1.6
	c0-0.1,0.1-0.1,0.2-0.1l0.2,0.2c0.1,0,0.1,0.1,0,0.2l-0.8,2.3c0,0.1-0.2,0.2-0.3,0.2l-1.4,0h-4.9h-1.3c-0.3,0-0.5,0-0.7,0
	s-0.1,0-0.1-0.1v-0.4c0-0.1,0-0.1,0.2-0.1h0.6c0.7,0,0.8-0.1,0.8-0.7l0-5.3c0-1.3,0-3.3,0-3.4c0-0.5-0.2-0.6-0.8-0.6h-0.6
	c-0.1,0-0.1,0-0.1-0.1v-0.4c0,0,0-0.1,0.1-0.1c0.3,0,0.9,0,1.9,0.1h0.7h4.7c0.2,0,0.5,0,0.6,0s0.1,0,0.1,0.1l0.8,2.5
	c0,0.1,0,0.1,0,0.1l-0.2,0.1c0,0-0.1,0-0.1,0c-0.5-0.6-1-1.2-1.5-1.8c-0.4-0.2-0.8-0.4-1.2-0.4L53.7,38L53.7,42.6z"/>
<path class="st1" d="M64.1,44.6c0,0.7,0,2.9,0,3.1s0.2,0.5,0.5,0.5h1c0.1,0,0.1,0,0.1,0.1v0.4c0,0.1,0,0.1-0.2,0.1s-0.7,0-2.2-0.1
	s-2,0-2.2,0s-0.1,0-0.1-0.1v-0.4c0-0.1,0-0.1,0.1-0.1h0.7c0.5,0,0.6-0.1,0.7-0.5c0-0.2,0.1-2.6,0.1-4.4v-1.8c0-1,0-2.8,0-2.9
	c0-0.3-0.2-0.3-0.6-0.3h-0.9c-0.1,0-0.1,0-0.1-0.1v-0.4c0-0.1,0-0.1,0.1-0.1s0.7,0,2.2,0.1c0.3,0,1.2,0,1.7,0
	c1.2-0.1,2.5,0.2,3.5,0.8c0.7,0.5,1.2,1.4,1.2,2.3c0,2-1.5,3.2-4,3.2c-0.6,0-1.1,0-1.7-0.1L64.1,44.6z M64.1,43.2
	c0.5,0.1,1,0.2,1.4,0.2c0.9,0,1.7-0.4,2.2-1.1c0.3-0.5,0.5-1,0.4-1.6c0-1.5-1.2-2.6-2.7-2.6c0,0-0.1,0-0.1,0c-0.4,0-0.8,0-1.2,0.1
	L64.1,43.2z"/>
<path class="st1" d="M72.6,42.6c0-1,0-3.1,0-3.3c0-0.8-0.1-1-0.7-1h-0.7c-0.1,0-0.1,0-0.1-0.1v-0.4c0-0.1,0-0.1,0.1-0.1
	c0.3,0,0.8,0.1,2.2,0.1c1.2,0,1.8,0,2.1,0c0.1,0,0.2,0,0.2,0.1v0.4c0,0.1,0,0.1-0.1,0.1h-0.8c-0.5,0-0.6,0.3-0.6,0.9
	c0,0.2,0,2.3-0.1,3.2v0.3c0,0.1,0,0.1,0.2,0.1H80c0.2,0,0.3,0,0.3-0.2v-0.2c0-0.9,0-3.1,0-3.3c0-0.5-0.1-0.8-0.5-0.8H79
	c-0.1,0-0.1,0-0.1-0.1v-0.4c0-0.1,0-0.1,0.1-0.1c0.3,0,1,0.1,2.1,0.1s1.7,0,2,0c0.1,0,0.1,0,0.1,0.1v0.4c0,0.1,0,0.1-0.1,0.1h-0.7
	c-0.5,0-0.5,0.3-0.5,0.8c0,0.2-0.1,2.9-0.1,3.5v0.5c0,0.5,0,3.5,0,4.4c0,0.6,0.2,0.8,0.6,0.8h0.7c0.1,0,0.1,0,0.1,0.1v0.4
	c0,0.1,0,0.1-0.1,0.1c-0.3,0-0.8-0.1-2-0.1c-1.4,0-1.9,0-2.3,0c-0.1,0-0.1,0-0.1-0.1c0,0,0,0,0,0v-0.4c0-0.1,0-0.1,0.1-0.1h1
	c0.4,0,0.4-0.3,0.4-0.7c0-0.7,0.1-3.3,0.1-3.8v-0.2c0-0.2-0.1-0.2-0.3-0.2l-5.7,0c-0.2,0-0.2,0-0.2,0.2v0.3c0,0.4,0,2.8,0,3.9
	c0,0.4,0.2,0.5,0.5,0.5h0.8c0.1,0,0.1,0,0.1,0.1v0.4c0,0.1,0,0.1-0.1,0.1c-0.3,0-0.8,0-2-0.1c-1.3,0-1.8,0-2.2,0
	c-0.1,0-0.1,0-0.1-0.1v-0.4c0-0.1,0-0.1,0.1-0.1c0,0,0,0,0,0H72c0.4,0,0.4-0.4,0.4-0.8c0-0.7,0.1-3.8,0.1-4.2L72.6,42.6z"/>
<path class="st1" d="M87.1,48.2c-1.5-1.1-2.3-2.8-2.3-4.7c0-1.4,0.6-2.8,1.5-3.9c1-1.3,2.6-2.1,4.3-2c1.3,0,2.5,0.4,3.5,1.3
	c1.4,1.2,2.1,2.9,2.1,4.7c0,1.2-0.4,2.5-1.2,3.4c-1.1,1.4-2.8,2.3-4.5,2.2C89.3,49.1,88.1,48.8,87.1,48.2z M94.7,43.7
	c0-3.4-2.4-5.5-4.1-5.5c-0.9-0.1-1.8,0.2-2.5,0.9c-1,1-1.6,2.4-1.6,3.9c0,4.1,2.8,5.6,4.2,5.6C94,48.6,94.7,45.1,94.7,43.7z"/>
<path class="st1" d="M99.3,40c0-0.9-0.5-1.5-1-1.5h-0.7c-0.1,0-0.1-0.1-0.1-0.1V38c0-0.1,0-0.1,0.1-0.1s0.2,0,0.4,0s0.6,0,1.1,0
	s0.9,0,1,0c0.2,0,0.3,0.1,0.5,0.2l3.2,4.3c0.2,0.2,2.8,3.5,3.2,4h0.1v-1.9c0-1.4,0-2.2,0-3c0-0.8-0.1-1.6-0.2-2.4
	c-0.1-0.4-0.5-0.6-0.9-0.6h-0.5c-0.1,0-0.1,0-0.1-0.1V38c0,0,0-0.1,0.1-0.1c0,0,0,0,0,0c0.2,0,0.7,0.1,1.7,0.1s1.3,0,1.5,0
	s0.1,0,0.1,0.1v0.4c0,0.1,0,0.1-0.1,0.1h-0.4c-0.4,0-0.6,0.3-0.6,0.9c-0.1,1-0.1,2.6-0.1,3.6v5.9c0,0.2,0,0.4-0.1,0.4
	s-0.3-0.2-0.4-0.2l-1.9-2.4c-1.1-1.4-2.2-2.8-2.3-2.9s-3-3.8-3.1-3.9h-0.1v3.5c0,1.5,0.1,4,0.1,4.3c0,0.6,0.1,0.9,0.6,0.9h0.4
	c0.1,0,0.1,0,0.1,0.1V49c0,0.1,0,0.1-0.1,0.1L99.5,49h-1.6c-0.1,0-0.1,0-0.1-0.1v-0.4c0,0,0-0.1,0.1-0.1h0.5c0.4,0,0.6-0.2,0.7-1
	c0-0.3,0.1-2.1,0.1-4.9L99.3,40z"/>
<path class="st1" d="M113.6,43.2c0.1,0,1.8,0,2-0.1c0.5-0.1,0.6-0.2,0.7-0.7c0.1-0.3,0.1-0.5,0.1-0.8c0-0.1,0-0.1,0.1-0.1
	c0,0,0,0,0,0h0.4c0.1,0,0.1,0.1,0.1,0.1c0,0,0,0,0,0c0,0.3-0.1,1.5-0.1,1.8c0,0.5,0.1,1.3,0.1,1.6c0,0.1,0,0.1-0.1,0.1c0,0,0,0,0,0
	h-0.3c-0.1,0-0.1,0-0.1-0.2s-0.1-0.6-0.2-0.7c-0.1-0.3-0.3-0.6-0.7-0.6c-0.7-0.1-1.8-0.1-2.1-0.1v1c0,0.8,0,2.4,0,2.7
	c0,0.8,0.4,1.1,0.9,1.2c0.4,0.1,0.8,0.1,1.2,0.1c0.3,0,1,0,1.4,0c0.5-0.1,1-0.2,1.4-0.5c0.5-0.5,0.9-1.1,1.3-1.6
	c0-0.1,0.1-0.1,0.2-0.1l0.2,0.1c0.1,0,0.1,0.1,0,0.2l-0.8,2.3c0,0.1-0.2,0.2-0.3,0.2h-1.4l-4.9-0.1c-0.6,0-1,0-1.3,0h-0.7
	c-0.1,0-0.1,0-0.1-0.1v-0.4c0-0.1,0-0.1,0.2-0.1h0.6c0.7,0,0.8-0.1,0.8-0.7v-5.3c0-1.3,0-3.3,0-3.4c-0.1-0.5-0.2-0.6-0.8-0.6h-0.6
	c-0.1,0-0.1,0-0.1-0.1v-0.4c0,0,0-0.1,0.1-0.1c0.3,0,0.9,0,1.9,0.1h0.7h4.7c0.2,0,0.6,0,0.6,0c0.1,0,0.1,0,0.1,0.1l0.8,2.5
	c0,0.1,0,0.1,0,0.1l-0.2,0.1c0,0-0.1,0-0.1,0c-0.5-0.7-1-1.3-1.6-1.8c-0.4-0.2-0.8-0.4-1.2-0.4l-2.8-0.1L113.6,43.2z"/>
<path class="st1" d="M122.2,42c0-0.8-0.4-3-0.4-3.5c0-0.4,0.3-0.7,0.7-0.7c0,0,0.1,0,0.1,0c0.5,0,0.7,0.2,0.7,0.7s-0.4,2.7-0.5,3.5
	L122.2,42z M124.7,42c0-0.8-0.4-3-0.4-3.5c0-0.4,0.3-0.7,0.6-0.7c0,0,0.1,0,0.1,0c0.5,0,0.7,0.2,0.7,0.7s-0.5,2.7-0.5,3.5L124.7,42z
	"/>
<path class="st2" d="M167.4,26.4c-1.6-1.3-3-2.9-4-4.7c-1.2-2.2-1.8-4.6-1.8-7c0-2.5,0.7-5,2-7.2c1-1.7,2.3-3.3,3.8-4.6
	c0.1-0.1,0.3-0.2,0.5-0.2c0.2,0,0.5,0.2,0.5,0.4c0,0.2-0.1,0.3-0.2,0.5c-2.1,2.6-3.3,6.4-3.3,11.1c0,4.3,1.2,8.5,3.3,11.1
	c0.1,0.1,0.2,0.3,0.2,0.5c0,0.1-0.3,0.4-0.5,0.4C167.7,26.6,167.5,26.5,167.4,26.4z"/>
<path class="st2" d="M181.8,4.7c0.1,0,0.3,0.1,0.3,0.2c0,0,0,0,0,0c-0.1,0.4-0.3,0.7-0.5,1c-1.2,2-2.2,4.1-3.1,6.2
	c-1.1,2.7-2,5.5-2.6,8.3c-0.2,1.1-1.1,1.9-2.2,2c-0.8,0-1.5-0.7-1.6-1.5c0,0,0-0.1,0-0.1c0.2-1.1,0.6-2.1,1.1-3
	c0.4-0.8,5-8.3,6.2-10.1h-6c-1.6,0-1.8,0.5-2.6,1.4c-0.1,0.2-0.3,0.2-0.5,0.1s-0.2-0.2-0.2-0.4l1.6-4.9c0-0.2,0.1-0.2,0.4-0.2
	s0.4,0.1,0.3,0.5s0.1,0.5,1.5,0.5L181.8,4.7z"/>
<path class="st2" d="M187.3,9.1c0-0.6-0.1-1.2-0.6-1.2c-0.4,0-0.8,0.1-1.2,0.2l-1.3,0.4c-0.1,0-0.2,0-0.3-0.1l-0.2-0.5
	c-0.1-0.1,0-0.2,0.1-0.3l6.3-3.1c0.2-0.1,0.3-0.1,0.5-0.2c0.2,0,0.2,0.2,0.2,0.4s0,4.3,0,7.6v1.1c0,1.4,0,5.8,0,6.1
	c0,1.4,0.1,1.5,1.4,1.5h0.9c0.2,0,0.3,0.1,0.3,0.2V22c0,0.1-0.1,0.2-0.3,0.2l-4.2-0.1c-0.8,0-4.4,0.1-4.5,0.1s-0.2,0-0.2-0.2v-0.7
	c0-0.2,0.1-0.2,0.4-0.2h0.7c1.4,0,1.8-0.1,1.9-1.4c0.1-1.1,0-4,0-4.9L187.3,9.1z"/>
<path class="st2" d="M203,22.1c-0.2,0-0.3,0-0.3-0.3V18H196c-0.5,0-0.8-0.2-0.8-0.5c0-0.4,0.2-0.7,0.5-1L205,4.8
	c0.1-0.2,0.4-0.4,0.7-0.4c0.3,0,0.4,0.2,0.4,0.9v10.4h1.6c0.2,0,0.3,0.1,0.3,0.2v1.9c0,0.2-0.1,0.3-0.4,0.3H206v3.7
	c0,0.3-0.1,0.4-0.4,0.4H203z M202.7,15.6V9.9c0-0.4-0.3-0.4-0.5-0.1l-4.2,5.3c-0.2,0.3-0.2,0.5,0.2,0.5H202.7z"/>
<path class="st2" d="M210,2.9c1.6,1.3,3,2.9,4,4.7c1.2,2.1,1.8,4.6,1.8,7c0,2.5-0.7,5-2,7.2c-1,1.7-2.3,3.3-3.8,4.6
	c-0.1,0.1-0.3,0.2-0.5,0.2c-0.2,0-0.5-0.2-0.5-0.4c0-0.2,0.1-0.3,0.2-0.5c2.1-2.6,3.3-6.4,3.3-11.1c0-4.3-1.2-8.5-3.3-11.1
	C209.1,3.4,209,3.2,209,3c0-0.1,0.3-0.4,0.5-0.4C209.7,2.7,209.9,2.7,210,2.9z"/>
<path class="st2" d="M218,14.3c0-0.2,0.1-0.2,0.2-0.2h7.2c0.2,0,0.3,0.1,0.3,0.3v1.5c0,0.1-0.1,0.2-0.3,0.2h-7.3
	c-0.1,0-0.2,0-0.2-0.1V14.3z"/>
<path class="st2" d="M229.5,22.1c-0.4,0-0.9,0-1.3,0l-0.8,0.1c-0.1,0-0.2,0-0.3-0.2c-0.1-0.2,0-0.5,0.1-0.6c1.8-1.6,3.5-3.4,5-5.3
	c1.6-2,2.6-4,2.6-6.3c-0.1-1.9-1.3-3.2-3-3.2c-1.3,0.1-2.4,0.9-3,2c-0.1,0.2-0.2,0.2-0.3,0.2l-0.4-0.2c-0.1-0.1-0.1-0.1,0-0.4
	c0.8-2.3,3.1-3.9,5.6-3.9c2.6-0.1,4.9,2,4.9,4.6c0,0,0,0.1,0,0.1c0,2.2-1,4.3-3.9,7c-1.5,1.4-2.7,2.4-3.5,3.1v0.1h4.5
	c1.3,0,2.5-0.8,2.9-2c0.1-0.2,0.2-0.3,0.5-0.1s0.4,0.2,0.3,0.4l-1.9,4.8c-0.1,0.2-0.2,0.3-0.4,0.3s-0.2-0.1-0.3-0.3
	s-0.6-0.4-1.7-0.4L229.5,22.1z"/>
<path class="st2" d="M247.8,22.1c-0.2,0-0.3,0-0.3-0.3V18h-6.7c-0.5,0-0.8-0.2-0.8-0.5c0-0.4,0.2-0.7,0.5-1l9.3-11.8
	c0.1-0.2,0.4-0.4,0.7-0.4c0.3,0,0.4,0.2,0.4,0.9v10.4h1.6c0.2,0,0.3,0.1,0.3,0.2v1.9c0,0.2-0.1,0.3-0.4,0.3h-1.5v3.7
	c0,0.3-0.1,0.4-0.4,0.4H247.8z M247.5,15.6V9.9c0-0.4-0.3-0.4-0.5-0.1l-4.2,5.3c-0.2,0.3-0.2,0.5,0.2,0.5H247.5z"/>
<path class="st2" d="M260.8,22.1c-0.2,0-0.3,0-0.3-0.3V18h-6.7c-0.5,0-0.8-0.2-0.8-0.5c0-0.4,0.2-0.7,0.5-1l9.3-11.8
	c0.1-0.2,0.4-0.4,0.7-0.4c0.3,0,0.4,0.2,0.4,0.9v10.4h1.6c0.2,0,0.3,0.1,0.3,0.2v1.9c0,0.2-0.1,0.3-0.4,0.3h-1.5v3.7
	c0,0.3,0,0.4-0.4,0.4H260.8z M260.5,15.6V9.9c0-0.4-0.3-0.4-0.5-0.1l-4.2,5.3c-0.2,0.3-0.2,0.5,0.2,0.5H260.5z"/>
<path class="st2" d="M267.3,14.3c0-0.2,0-0.2,0.2-0.2h7.2c0.2,0,0.3,0.1,0.3,0.3v1.5c0,0.1-0.1,0.2-0.3,0.2h-7.3
	c-0.1,0-0.2,0-0.2-0.1V14.3z"/>
<path class="st2" d="M288.7,13.2c0,6-1.9,9.2-5.7,9.2c-4.6,0-5.9-5-5.9-8.3c0-5.8,2-9.8,5.9-9.8C287.9,4.3,288.7,9.3,288.7,13.2z
	 M281.5,7.1c-0.5,2.2-0.7,4.5-0.7,6.7c-0.1,1.9,0.1,3.7,0.4,5.5c0.4,1.5,0.9,2,1.8,2s1.4-0.5,1.7-1.7c0.3-2.3,0.4-4.7,0.3-7
	c0-4.4-0.5-7.3-1.9-7.3C282.2,5.4,281.8,6.1,281.5,7.1L281.5,7.1z"/>
<path class="st2" d="M300.2,6.3c0.9,1.2,1.4,2.6,1.5,4.1c0,3.7-1.5,7.2-4.2,9.7c-1.2,1.1-2.6,1.8-4.2,2.3c-0.3,0.1-0.5,0.1-0.8,0.1
	c-0.2,0-0.4-0.1-0.4-0.4c0-0.2,0.1-0.4,0.3-0.4c2.2-0.8,4.6-3.6,5.2-7.2h-0.2c-0.8,0.6-1.8,0.8-2.9,0.8c-2.4,0-4.4-2-4.3-4.5
	c0-0.1,0-0.1,0-0.2c0-1.8,0.7-3.5,1.9-4.8c1-0.9,2.4-1.4,3.7-1.4C298,4.3,299.2,4.9,300.2,6.3z M293.6,9.2c0,2.6,1.1,4.5,2.5,4.5
	c0.5,0,1.1-0.2,1.5-0.5c0.4-0.5,0.4-2.1,0.4-3.3c0-2.4-0.4-4.5-2-4.5S293.6,6.8,293.6,9.2z"/>
<path class="st2" d="M304.7,20.8c-1.1-1.5-1.7-3.3-1.6-5.1c0-3,1.2-5.9,3.4-8.1c1.4-1.4,3.2-2.4,5.1-3c0.4-0.1,0.8-0.2,1.2-0.2
	c0.2,0,0.4,0.1,0.4,0.3s-0.1,0.4-0.6,0.6c-2.1,0.8-4.9,3.8-5.6,7l0.2,0.1c0.8-0.7,1.8-1,2.9-1c3.2,0,4.5,2.5,4.5,4.8
	c0.1,1.7-0.5,3.4-1.7,4.6c-1.1,1.2-2.7,1.8-4.3,1.7C307.1,22.6,305.6,22,304.7,20.8z M311,17.5c0-2.5-0.7-4.5-2.2-4.5
	c-0.6-0.1-1.1,0.1-1.5,0.4c-0.5,0.5-0.5,1.6-0.5,3.4c0,1.5,0.3,4.6,2.1,4.6C309.8,21.5,311,21.1,311,17.5z"/>
<path class="st2" d="M319,10.6c1.3,0,2.6,0.3,3.8,0.6c2.1,0.7,3.5,2.7,3.4,4.9c0,3.4-3.2,6.3-7.2,6.3c-1.7,0-3.2-0.7-3.2-1.5
	c0-0.6,0.3-0.9,0.7-0.9c0.5,0.1,1.1,0.3,1.5,0.6c0.5,0.3,1.1,0.4,1.7,0.4c1.8,0.1,3.4-1.3,3.5-3.1c0-0.1,0-0.3,0-0.4
	c0.1-1.4-0.7-2.6-1.9-3.2c-1.1-0.5-2.2-0.7-3.4-0.7c-0.3,0-0.4-0.1-0.4-0.4l1-8.1c0-0.3,0.1-0.4,0.4-0.4h5.8c0.9,0,1.1-0.4,1.6-1.3
	c0.1-0.2,0.2-0.2,0.5-0.1s0.3,0.2,0.2,0.4l-1,3.5c-0.1,0.4-0.3,0.6-1.1,0.6h-5.5L319,10.6z"/>
<path class="st1" d="M28.4,100.9c0.5,0.3,0.7,1,0.5,1.5c-0.4,0.7-1.1,1.3-1.9,1.5c-1,0.3-1.9,0.6-2.9,0.7c-2,0.3-4,0.4-6.1,0.2
	c-0.8-0.1-1.7-0.3-2.5-0.6c-0.6-0.2-1.1-0.5-1.6-0.8c-0.4-0.4-0.8-0.8-1-1.3c-0.3-0.6-0.4-1.3-0.5-2c-0.1-1-0.1-2-0.1-3
	c-0.8,0.1-1.6,0.2-2.4,0.3c-0.1,0.3-0.2,0.6-0.4,0.8c-0.1,0.2-0.3,0.3-0.5,0.3c-0.1,0-0.3-0.1-0.4-0.1C8.3,98.2,8.2,98,8,97.9
	c-0.2-0.2-0.3-0.4-0.4-0.6c-0.1-0.2-0.2-0.5-0.3-0.7c-0.5-2.2-0.9-3.9-1.3-5.3c-0.2-1-0.7-2-1.3-2.9c-0.2-0.3-0.4-0.6-0.5-0.9
	c-0.1-0.2,0-0.4,0.2-0.5c0.3-0.2,0.7-0.2,1.1-0.2c0.7,0,1.4,0.1,2.1,0.3c0.9-0.1,1.7-0.2,2.5-0.3s1.6-0.2,2.3-0.4
	c0-1.2-0.1-2.3-0.3-3.5c-0.1-0.7-0.3-1.3-0.7-1.9c-0.8-1-0.9-1.6-0.5-1.9s1.5,0,3.2,0.6c0.5,0.2,0.9,0.4,1.3,0.6
	c0.3,0.2,0.5,0.4,0.6,0.6c0.1,0.2,0.1,0.4,0.1,0.7c-0.1,0.2-0.2,0.5-0.3,0.7c-0.1,0.3-0.2,0.7-0.3,1c-0.1,0.5-0.2,1.3-0.3,2.5
	c1-0.2,1.9-0.3,2.6-0.5c0.5-0.1,1.1-0.3,1.6-0.5c0.3-0.2,0.6-0.3,0.8-0.3c0.2-0.1,0.4-0.1,0.6-0.1c0.2,0,0.5,0.1,0.7,0.2
	c0.3,0.1,0.7,0.3,1,0.5c0.6,0.3,1.1,0.7,1.7,1.1c0.3,0.2,0.6,0.5,0.8,0.8c0.1,0.2,0.1,0.4,0,0.6c-0.1,0.2-0.3,0.4-0.5,0.6
	c-0.4,0.3-0.7,0.7-0.9,1.1c-0.2,0.4-0.4,0.8-0.5,1.3c-0.1,0.2-0.1,0.5-0.2,0.9s-0.2,0.8-0.4,1.2s-0.3,0.8-0.4,1.3
	c-0.1,0.4-0.3,0.8-0.4,1.2c-0.2,0.4-0.4,0.8-0.8,1.1c-0.3,0.3-0.5,0.5-0.9,0.7c-0.2,0.1-0.5,0.2-0.8,0.2c-0.2,0-0.4-0.1-0.5-0.3
	c-0.1-0.2-0.2-0.3-0.3-0.4c-0.1-0.1-0.3-0.1-0.4-0.1c-0.4,0-0.8,0-1.2,0.1c-0.5,0.1-1.1,0.1-1.8,0.2c-0.1,1.1,0,2.2,0.3,3.2
	c0.1,0.5,0.4,0.9,0.8,1.2c1.2,0.5,2.6,0.8,3.9,0.7c1.3,0,2.6-0.3,3.8-0.7c0.5-0.2,0.9-0.6,1.1-1.1c0.5-0.9,0.8-1.8,0.9-2.8
	c0.2-1.3,0.5-2,0.8-2s0.5,0.7,0.6,2c0.1,0.7,0.1,1.2,0.2,1.7c0.1,0.4,0.1,0.7,0.2,1.1c0.1,0.2,0.2,0.5,0.3,0.7
	C28.2,100.6,28.3,100.8,28.4,100.9z M12.4,88.1c-0.7,0.1-1.3,0.2-2,0.3s-1.2,0.2-1.8,0.2c0.1,0.6,0.2,1.2,0.3,1.9s0.2,1.2,0.4,1.9
	s0.2,1.2,0.3,1.8s0.2,1.1,0.3,1.5l1.2-0.1c0.4,0,0.8-0.1,1.1-0.2c0-0.5,0-1,0-1.5v-1.4c-0.4,0-0.8,0.1-1,0.1c-0.3,0-0.5,0-0.8-0.1
	C10,92.2,9.8,92,9.8,91.8s0.3-0.4,0.8-0.5l0.8-0.1c0.3-0.1,0.7-0.1,1-0.2L12.4,88.1z M19.8,88.1c0.1-0.6-0.1-0.9-0.4-0.9
	c-0.5,0-1.2,0-1.9,0.1s-1.5,0.2-2.3,0.3c0,0.4,0,0.8,0,1.2s0,0.8-0.1,1.2c0.5-0.1,1-0.2,1.5-0.2c0.3,0,0.6,0.1,0.9,0.1
	c0.6,0.2,0.9,0.5,0.9,0.8s-0.3,0.6-0.9,0.8c-0.3,0.2-0.7,0.3-1.1,0.4c-0.4,0.1-0.9,0.2-1.3,0.3v2.7c0.9-0.2,1.5-0.3,1.9-0.3
	c0.3,0,0.6,0,0.9,0.1c0.2,0.1,0.3,0.1,0.5-0.1c0.2-0.3,0.4-0.6,0.5-1c0.1-0.4,0.2-0.8,0.3-1.3s0.2-1,0.3-1.5s0.1-1,0.2-1.5
	S19.8,88.4,19.8,88.1L19.8,88.1z"/>
<path class="st1" d="M52,88.3c-0.1,0.2-0.3,0.3-0.4,0.5c-0.1,0.3-0.3,0.6-0.3,0.9c-0.1,0.5-0.2,1-0.3,1.5c-0.1,0.6-0.2,1.4-0.3,2.4
	c-0.1,0.7-0.1,1.3-0.2,1.8c-0.1,0.5-0.1,0.9-0.3,1.3c-0.1,0.3-0.2,0.7-0.4,1c-0.2,0.3-0.3,0.6-0.5,0.8c-0.4,0.6-0.8,0.9-1.2,0.9
	s-0.7-0.4-0.9-1.4c0-0.1-0.1-0.2-0.2-0.3c-0.1-0.1-0.3-0.1-0.4-0.1c-0.3,0-0.7,0-1,0.1c-0.4,0.1-1,0.2-1.8,0.4l-0.9,0.2
	c-0.2,0-0.4,0.1-0.6,0.1c-0.2,0-0.4,0-0.5,0c-0.2,0-0.4,0-0.6,0c0,0.4-0.2,0.8-0.4,1.2c-0.1,0.2-0.3,0.3-0.5,0.3
	c-0.2,0-0.3-0.1-0.4-0.2c-0.2-0.2-0.4-0.4-0.5-0.7c-0.2-0.5-0.3-0.9-0.5-1.4c-0.2-0.8-0.3-1.6-0.4-2.4c-0.1-1.3-0.4-2.7-0.7-4
	c-0.2-0.9-0.5-1.7-1-2.4c-0.7-0.8-0.8-1.3-0.5-1.6s1.3-0.2,3,0.2c0.6,0,1.1-0.1,1.7-0.2c0.6-0.1,1.2-0.2,2-0.4c0-1,0-1.9,0-2.6
	s0-1.3-0.1-1.9c-0.1-0.4-0.2-0.8-0.3-1.2c-0.1-0.3-0.3-0.6-0.5-0.8c-0.3-0.3-0.5-0.7-0.7-1.2c-0.1-0.3-0.1-0.5,0.1-0.7
	c0.3-0.2,0.7-0.2,1-0.1c0.7,0.1,1.5,0.3,2.2,0.6c0.4,0.1,0.8,0.3,1.2,0.5c0.2,0.1,0.4,0.3,0.5,0.5c0.1,0.2,0.1,0.4,0.1,0.6
	c-0.1,0.3-0.2,0.5-0.3,0.8c-0.1,0.2-0.2,0.4-0.2,0.7c-0.1,0.3-0.1,0.6-0.2,1s-0.1,0.9-0.1,1.4s-0.1,1.2-0.1,2
	c0.8-0.1,1.5-0.4,2.2-0.7c0.3-0.2,0.5-0.3,0.7-0.3c0.2-0.1,0.3-0.1,0.5-0.1c0.2,0,0.4,0,0.5,0.1c0.2,0.1,0.4,0.2,0.6,0.4
	c0.6,0.4,1,0.8,1.4,1.1c0.3,0.2,0.5,0.4,0.7,0.7c0.1,0.1,0.2,0.3,0.1,0.5C52.2,88,52.1,88.2,52,88.3z M42.9,88.4l-1.1,0.2l-1.4,0.1
	c0.1,0.7,0.2,1.5,0.2,2.2s0.2,1.5,0.2,2.3s0.1,1.4,0.2,2.1s0.1,1.2,0.2,1.7l0.8-0.2l0.8-0.2l0.1-3.8c-0.4,0-0.8,0-1.2-0.2
	c-0.7-0.3-1-0.5-0.8-0.7s0.4-0.3,1-0.5l0.6-0.1l0.5-0.1L42.9,88.4z M48.2,88.1c0-0.2-0.1-0.4-0.2-0.5c-0.1-0.1-0.4-0.1-0.9,0
	s-1.2,0.2-1.7,0.4l-0.1,2.4c0.6-0.2,1.2-0.2,1.7,0c0.3,0.1,0.5,0.2,0.7,0.4c0.1,0.1,0.2,0.3,0.2,0.5c0,0.1-0.1,0.3-0.2,0.4
	c-0.1,0.1-0.3,0.2-0.4,0.2l-0.9,0.2l-1.2,0.3L45.1,96l0.7-0.1c0.2,0,0.3,0,0.5,0c0.1,0,0.2,0,0.3,0.1c0.1,0,0.2,0.1,0.3,0.2
	c0.3,0.2,0.5,0.2,0.6,0.2s0.2-0.3,0.3-0.7c0.2-1.3,0.4-2.6,0.5-3.9C48.3,90.4,48.3,89.2,48.2,88.1L48.2,88.1z M63,98.2
	c-0.1,0.3-0.4,0.6-0.6,0.9c-0.2,0.2-0.5,0.4-0.8,0.4c-0.2,0.1-0.5,0.1-0.7,0c-0.2-0.1-0.4-0.2-0.5-0.4c-0.3-0.5-0.7-1-1.2-1.4
	c-0.7-0.6-1.5-1.1-2.3-1.6c-0.8-0.5-1.2-0.9-1.1-1.2c0.1-0.3,0.5-0.3,1.4-0.2c0.7,0.2,1.2,0.3,1.6,0.3c0.3,0.1,0.6,0.1,0.8,0.1
	c0.2,0,0.3-0.1,0.3-0.2c0-0.2-0.1-0.4-0.1-0.6c-0.2-0.6-0.5-1.2-0.9-1.8c-0.6-0.7-1.2-1.3-1.9-1.9c-0.2-0.1-0.4-0.3-0.5-0.5
	c-0.1-0.1-0.2-0.3-0.2-0.4c0-0.2,0-0.4,0.1-0.5c0.1-0.3,0.3-0.5,0.4-0.7c0.2-0.2,0.3-0.5,0.4-0.7l0.4-0.7c0.1-0.2,0.3-0.5,0.4-0.8
	l0.5-1c0.3-0.5,0.2-0.7-0.3-0.6c-0.8,0.2-1.3,0.4-1.8,0.5c-0.4,0.1-0.8,0.2-1.2,0.2c0,1.2,0,2.4,0,3.5s0,2.2,0,3.2s0,2.2,0,3.4
	s0,2.4,0,3.8c0,0.7,0,1.3,0,1.9s-0.1,1-0.1,1.5c0,0.4-0.1,0.9-0.2,1.3c-0.1,0.4-0.2,0.9-0.4,1.3c-0.4,1.1-0.7,1.8-1,1.8
	c-0.3,0.1-0.6-0.5-0.8-1.8c-0.1-0.7-0.2-1.4-0.2-2.1c0-0.9,0-1.8,0-2.9c0-1.2,0-2.2,0.1-3.1s0-1.8,0-2.6s0-1.8,0-2.8s0-2.2,0-3.6
	c0-0.8-0.1-1.5-0.2-2.2c-0.1-0.5-0.3-1-0.5-1.4c-0.2-0.3-0.3-0.6-0.4-0.9c0-0.2,0.1-0.3,0.3-0.4c0.4-0.1,0.7-0.1,1.1,0
	c0.5,0.1,1.2,0.2,2.1,0.5c0.8-0.1,1.5-0.3,2.3-0.5c0.5-0.2,1-0.4,1.4-0.8c0.2-0.2,0.5-0.4,0.7-0.5c0.2-0.1,0.4-0.2,0.6-0.2
	c0.3,0,0.5,0.1,0.7,0.2c0.3,0.1,0.7,0.3,1.2,0.6c1.2,0.7,1.8,1.2,1.9,1.6s-0.3,0.8-1,1.1c-0.3,0.1-0.6,0.3-0.9,0.4
	c-0.3,0.2-0.7,0.4-1,0.6c-0.3,0.3-0.7,0.6-1.2,0.9c-0.4,0.4-0.9,0.8-1.5,1.4c-0.2,0.2-0.3,0.4-0.3,0.5s0.1,0.2,0.3,0.3
	c1.2,0.6,2.3,1.2,3.3,2c0.7,0.5,1.4,1.2,1.8,2c0.4,0.7,0.5,1.4,0.5,2.2C63.6,96.6,63.4,97.4,63,98.2z"/>
<path class="st1" d="M81.7,95.4c0.2,0.2,0.1,0.4-0.2,0.7c-0.4,0.4-0.8,0.7-1.2,1l-2.7,2c-0.7,0.5-1.2,1-1.7,1.3s-0.8,0.7-1,0.9
	c-0.2,0.2-0.4,0.4-0.6,0.6c-0.1,0.2-0.3,0.3-0.5,0.4c-0.2,0.1-0.4,0.1-0.6,0.1c-0.3-0.1-0.6-0.2-0.8-0.3c-0.3-0.2-0.8-0.4-1.3-0.8
	c-1-0.7-1.5-1.2-1.5-1.6c0.1-0.4,0.7-0.6,1.8-0.7c0.5,0,1-0.1,1.5-0.3c0.7-0.2,1.4-0.5,2-0.8v-5.1c-0.5,0.1-1,0.1-1.5,0.1
	c-0.4-0.1-0.8-0.2-1.1-0.3c-0.7-0.3-1-0.5-1-0.6s0.4-0.3,1.2-0.5c0.4-0.1,0.8-0.2,1.2-0.3c0.4-0.1,0.9-0.3,1.3-0.5
	c0-2.3,0-4-0.1-5.2c0-0.9-0.2-1.7-0.7-2.5c-0.3-0.3-0.5-0.7-0.7-1.1c-0.1-0.3-0.1-0.5,0.1-0.6c0.3-0.2,0.7-0.2,1-0.1
	c0.7,0.1,1.4,0.3,2,0.5c0.4,0.1,0.9,0.3,1.2,0.6c0.3,0.2,0.5,0.4,0.6,0.7c0.1,0.2,0.1,0.5,0.1,0.8c-0.1,0.3-0.2,0.6-0.3,0.8
	c-0.2,0.5-0.3,1.1-0.3,1.7c-0.1,0.8-0.1,1.9-0.1,3.5c0.3-0.1,0.5-0.1,0.8-0.2c0.2,0,0.5,0,0.7,0.1c0.8,0.2,1.3,0.4,1.4,0.7
	s-0.3,0.7-1.2,1.2c-0.6,0.3-1.1,0.5-1.7,0.8v4.4c0.9-0.5,1.9-0.8,2.8-1.2C81.3,95.4,81.6,95.4,81.7,95.4z M99.6,99.5
	c0.3,0.4,0.5,0.8,0.6,1.2c0.1,0.5-0.1,0.9-0.4,1.2c-0.5,0.5-1.1,0.8-1.8,1.1c-1.1,0.4-2.3,0.7-3.5,0.9c-1.1,0.2-2.2,0.3-3.2,0.3
	c-1.2,0-2.4-0.1-3.6-0.3c-1.4-0.2-2.7-0.7-3.7-1.6c-0.9-0.9-1.5-2-1.6-3.2c-0.1-0.7-0.2-1.3-0.2-2c0-0.8,0-1.7,0-2.5
	c-0.4,0.3-0.8,0.5-1.3,0.6c-0.4,0-0.8,0-1.1-0.2c-0.3-0.1-0.6-0.3-0.9-0.5c-0.2-0.1-0.3-0.3-0.2-0.4s0.1-0.2,0.4-0.3
	s0.5-0.2,0.9-0.3c0.8-0.3,1.6-0.7,2.4-1.1c0-0.9,0-1.8-0.1-2.7c0-0.5-0.2-1-0.4-1.4c-0.7-0.8-0.9-1.3-0.7-1.6s1-0.2,2.3,0.2
	c0.4,0.1,0.8,0.3,1.2,0.5c0.2,0.1,0.4,0.3,0.6,0.5c0.1,0.2,0.2,0.4,0.1,0.6c0,0.2-0.1,0.4-0.2,0.6c-0.1,0.3-0.3,0.7-0.3,1.1
	c0,0.3-0.1,0.6-0.1,0.9l0.9-0.5c0.3-0.2,0.6-0.3,0.9-0.5v-2.5c0-0.5,0-1,0-1.5s0-1,0-1.5c0-0.7,0-1.3-0.1-1.7s-0.1-0.8-0.1-1.2
	c0-0.3-0.1-0.5-0.2-0.7c-0.1-0.2-0.1-0.3-0.2-0.5c-0.3-0.4-0.6-0.8-0.8-1.2c-0.1-0.3-0.1-0.6,0-0.7c0.2-0.2,0.6-0.3,0.9-0.2
	c0.6,0.1,1.2,0.2,1.8,0.4c0.5,0.2,1,0.4,1.4,0.6c0.3,0.2,0.5,0.4,0.7,0.7c0.1,0.2,0.2,0.5,0.1,0.7c-0.1,0.3-0.1,0.5-0.3,0.8
	c-0.1,0.2-0.2,0.4-0.2,0.6c-0.1,0.4-0.1,0.8-0.2,1.3c0,0.5-0.1,1.2-0.2,2S89,87.6,89,88.7c0.8-0.5,1.3-0.8,1.6-1.1
	c0.2-0.1,0.5-0.4,0.6-0.6c0.1-0.3,0.3-0.5,0.5-0.7c0.1-0.2,0.3-0.3,0.6-0.3c0.3,0,0.5,0,0.8,0.1c0.3,0.1,0.7,0.2,1.2,0.5
	c0.5,0.2,0.9,0.5,1.4,0.7c0.3,0.2,0.5,0.4,0.6,0.7c0.1,0.2,0,0.5-0.1,0.6c-0.2,0.2-0.4,0.5-0.6,0.7c-0.1,0.1-0.2,0.2-0.3,0.3
	c-0.1,0.2-0.2,0.3-0.3,0.5c-0.1,0.2-0.2,0.6-0.3,1s-0.2,0.9-0.3,1.6S94,94,93.9,94.5s-0.3,1-0.4,1.4c-0.1,0.3-0.3,0.7-0.5,1
	c-0.2,0.3-0.4,0.5-0.6,0.8c-0.6,0.6-1.1,0.9-1.4,0.8s-0.6-0.4-0.8-1.2c-0.1-0.3-0.2-0.6-0.3-0.9c-0.2-0.3-0.3-0.7-0.6-1.2
	c-0.3-0.6-0.4-1-0.4-1.1s0.4,0,0.9,0.2c0.2,0.1,0.5,0.2,0.7,0.2c0.2,0,0.3-0.2,0.4-0.5l0.3-0.9c0.1-0.3,0.1-0.6,0.2-0.9
	c0-0.3,0.1-0.7,0.1-1.1s0.1-1,0.1-1.7c0-0.1,0-0.3-0.2-0.3c-0.1-0.1-0.2-0.1-0.3-0.1L90,89.8c-0.4,0.2-0.7,0.4-1.1,0.6
	c-0.1,1.6-0.2,3-0.3,4.3c-0.1,1-0.3,2-0.5,2.9c-0.1,0.6-0.3,1.1-0.6,1.7c-0.2,0.3-0.4,0.5-0.6,0.4s-0.3-0.3-0.5-0.8
	c-0.1-0.7-0.2-1.3-0.2-2c0-0.1,0-0.4,0-0.8s0-0.8,0-1.3s0-1,0.1-1.5s0-1,0.1-1.4l-0.9,0.5c-0.3,0.2-0.6,0.4-0.8,0.6
	c-0.1,1.2-0.1,2.3-0.1,3.3c0,0.7,0.1,1.3,0.2,2c0.1,0.4,0.2,0.8,0.4,1.2c0.1,0.3,0.4,0.5,0.6,0.7c0.3,0.2,0.6,0.3,0.9,0.4
	c0.4,0.1,0.9,0.2,1.3,0.3c0.8,0.2,1.6,0.2,2.5,0.2c1.1,0,2.1-0.2,3.2-0.4c0.4-0.1,0.9-0.2,1.3-0.4c0.4-0.2,0.7-0.4,1-0.8
	c0.3-0.4,0.6-0.9,0.8-1.4c0.2-0.8,0.4-1.6,0.6-2.4c0.1-0.5,0.2-0.9,0.3-1.4c0.1-0.3,0.2-0.5,0.4-0.5s0.2,0.1,0.3,0.5
	c0.1,0.5,0.2,1,0.2,1.6c0.1,0.6,0.1,1.1,0.2,1.5c0,0.3,0.1,0.7,0.2,1c0.1,0.2,0.1,0.5,0.2,0.7C99.3,99.2,99.4,99.4,99.6,99.5z"/>
<path class="st1" d="M117.9,95.3c0.2,0.2,0.1,0.4-0.1,0.6s-0.6,0.5-1.2,1c-1.2,0.9-2.1,1.6-2.8,2.2c-0.7,0.6-1.3,1-1.7,1.3
	s-0.7,0.6-0.9,0.8c-0.2,0.2-0.3,0.4-0.5,0.6c-0.1,0.2-0.3,0.4-0.5,0.5c-0.2,0.1-0.4,0.2-0.6,0.1c-0.3,0-0.6-0.1-0.8-0.3
	c-0.4-0.2-0.8-0.5-1.2-0.7c-1-0.7-1.4-1.1-1.3-1.4s0.7-0.6,1.8-0.8c0.5-0.1,1-0.3,1.5-0.4c0.7-0.2,1.3-0.5,1.9-0.8v-5.9
	c-0.3,0-0.6,0.1-0.8,0.1c-0.2,0-0.4,0-0.6,0c-0.2,0-0.4,0-0.6-0.1l-0.7-0.1c-0.7-0.2-1-0.4-1-0.6s0.4-0.4,1.2-0.6
	c0.4-0.1,0.8-0.2,1.2-0.3s0.8-0.2,1.3-0.4c0-1,0-2,0-2.7s-0.1-1.4-0.1-1.9c-0.1-0.5-0.1-0.9-0.3-1.3c-0.1-0.3-0.2-0.6-0.4-0.9
	c-0.3-0.4-0.6-0.8-0.8-1.2c-0.1-0.3-0.1-0.6,0-0.7c0.3-0.2,0.7-0.2,1-0.1c0.7,0.1,1.3,0.3,2,0.6c0.6,0.2,1.1,0.4,1.5,0.6
	c0.3,0.1,0.6,0.3,0.8,0.5c0.1,0.2,0.2,0.4,0.1,0.7c-0.1,0.3-0.2,0.6-0.4,0.9c-0.2,0.5-0.3,1-0.4,1.4c-0.1,0.7-0.2,1.6-0.2,2.9
	c0.2-0.1,0.5-0.1,0.7-0.2c0.2,0,0.4,0,0.6,0.1c1.9,0.5,2,1.2,0.2,2l-0.8,0.3l-0.7,0.3l-0.1,5.3c0.9-0.5,1.8-0.8,2.7-1.2
	C117.5,95.3,117.8,95.2,117.9,95.3z M133.1,100.4c1.1,0.9,1.6,1.6,1.3,2s-1.2,0.4-2.8,0.2c-0.5-0.1-1-0.2-1.6-0.2s-1.2-0.1-1.8-0.1
	h-1.9c-0.7,0-1.3,0-1.9,0.1c-1.7,0.1-3.1,0.3-4.2,0.4c-0.9,0.1-1.7,0.3-2.6,0.5c-0.3,0.1-0.7,0.2-1,0.2c-0.3,0-0.5,0-0.8,0
	c-0.2,0-0.5-0.1-0.7-0.2c-0.2-0.1-0.5-0.2-0.8-0.4c-1-0.6-1.4-0.9-1.4-1.1s0.6-0.3,1.7-0.3l1.6-0.1c0.7-0.1,1.6-0.1,2.6-0.2
	c0-2.1,0.1-3.8,0.1-5.1s0-2.3-0.1-3.1c0-0.6-0.1-1.2-0.2-1.7c-0.1-0.3-0.2-0.7-0.4-0.9c-0.6-0.9-0.8-1.6-0.6-1.8s1.1-0.1,2.5,0.5
	c0.5,0.2,0.9,0.4,1.2,0.6c0.2,0.1,0.5,0.3,0.6,0.5c0.1,0.2,0.1,0.4,0.1,0.7c-0.1,0.3-0.2,0.7-0.3,1c-0.1,0.2-0.2,0.5-0.2,0.7
	c-0.1,0.5-0.1,0.9-0.1,1.4c0,0.6-0.1,1.5-0.1,2.6s0,2.6,0,4.4c0.5,0,1-0.1,1.4-0.2l1.4-0.2c0-2-0.1-3.9-0.1-5.6s0-3.2,0-4.4
	c0-1.7,0-3.1,0-4.2s-0.1-2-0.2-2.6c0-0.5-0.2-1-0.3-1.5c-0.1-0.4-0.3-0.7-0.5-1c-0.3-0.3-0.5-0.6-0.7-1c-0.1-0.3-0.1-0.5,0-0.6
	s0.4-0.2,0.8-0.2c0.6,0.1,1.1,0.2,1.7,0.4c0.9,0.3,1.6,0.5,2.1,0.7c0.4,0.1,0.7,0.3,1,0.6c0.2,0.2,0.2,0.4,0.2,0.7
	c-0.1,0.3-0.2,0.7-0.4,1c-0.1,0.3-0.2,0.6-0.3,0.9c-0.1,0.4-0.2,0.9-0.2,1.4c0,0.6-0.1,1.3-0.1,2.2s0,2,0,3.3
	c0.7-0.3,1.3-0.6,1.7-0.7c0.4-0.1,0.7-0.2,1.1-0.3c0.3-0.1,0.5-0.1,0.8,0c0.3,0.1,0.5,0.2,0.8,0.3c0.9,0.4,1.3,0.8,1.3,1.1
	s-0.5,0.6-1.3,0.8c-0.8,0.2-1.6,0.4-2.4,0.5c-0.7,0.1-1.3,0.1-2,0c0,0.4,0,0.8,0,1.2c0,0.4,0,0.8,0,1.3s0,1,0,1.4c0,1.2,0,2.5,0,4
	l1-0.3c0.3-0.1,0.7-0.1,1-0.2c0.5-0.1,0.9-0.2,1.2-0.3c0.3-0.1,0.7-0.1,1,0c0.3,0.1,0.6,0.2,0.9,0.3
	C132.4,100,132.8,100.2,133.1,100.4z"/>
<path class="st1" d="M33.7,118.5c0-0.8-0.5-3-0.4-3.5s0.3-0.7,0.7-0.7s0.7,0.2,0.7,0.7s-0.4,2.7-0.5,3.5H33.7z M36.2,118.5
	c0-0.8-0.5-3-0.4-3.4c0-0.4,0.3-0.7,0.6-0.7c0,0,0.1,0,0.1,0c0.5,0,0.7,0.2,0.7,0.7s-0.5,2.7-0.5,3.5H36.2z M41.9,119.8
	c0.1,0,1.8,0,2-0.1c0.5-0.1,0.6-0.2,0.7-0.7c0.1-0.2,0.1-0.5,0.1-0.8c0-0.1,0-0.1,0.1-0.1c0,0,0,0,0,0h0.4c0,0,0.1,0,0.1,0.1
	c0,0,0,0,0,0c0,0.3-0.1,1.6-0.1,1.8c0,0.6,0,1.3,0.1,1.6c0,0.1,0,0.1-0.1,0.1h-0.3c-0.1,0-0.1,0-0.1-0.1s-0.1-0.6-0.2-0.7
	c-0.1-0.3-0.3-0.6-0.7-0.6c-0.7-0.1-1.8-0.1-2.1-0.1v1c0,0.8,0,2.4,0,2.7c0,0.8,0.4,1.1,0.9,1.2c0.4,0.1,0.8,0.1,1.2,0.1
	c0.3,0,1,0,1.4,0c0.5-0.1,1-0.2,1.4-0.5c0.5-0.5,0.9-1.1,1.3-1.6c0-0.1,0.1-0.1,0.2-0.1l0.2,0.2c0.1,0,0.1,0.1,0,0.2l-0.8,2.3
	c0,0.2-0.2,0.3-0.3,0.2h-1.4l-4.9-0.1h-1.3H39c-0.1,0-0.1,0-0.1-0.1v-0.4c0-0.1,0-0.1,0.2-0.1h0.6c0.7,0,0.8-0.1,0.8-0.7l0-5.2
	c0-1.3,0-3.3,0-3.4c-0.1-0.5-0.2-0.6-0.8-0.6h-0.6c-0.1,0-0.1,0-0.1-0.1v-0.4c0,0,0-0.1,0.1-0.1c0.3,0,0.9,0.1,1.9,0.1h0.7
	c1.5,0,3.1,0,4.7,0c0.2,0,0.5,0,0.6,0c0.1,0,0.1,0,0.1,0.1l0.8,2.5c0,0.1,0,0.1,0,0.2l-0.2,0.1c0,0-0.1,0-0.1,0
	c-0.5-0.6-1-1.2-1.6-1.8c-0.3-0.2-0.8-0.4-1.2-0.4l-2.8-0.1L41.9,119.8z M50,119.5c0-0.1,0-0.1,0.1-0.1h4.4c0.1,0,0.2,0,0.2,0.2v0.6
	c0,0.1-0.1,0.1-0.2,0.1h-4.4c-0.1,0-0.1,0-0.1-0.1V119.5z M63.4,123.4c0.2-0.2,1.8-4,1.9-4.2s1.8-3.9,1.9-4.2s0.2-0.2,0.4-0.2
	c2.1,0,2.6,0,2.8,0s0.1,0,0.1,0.1v0.4c0,0.1,0,0.1-0.1,0.1h-0.7c-0.5,0-0.5,0.3-0.5,0.6s-0.1,2.7-0.1,3.8v1.1c0,0.8,0,3.3,0,3.6
	c0,0.6,0.1,0.8,0.5,0.8h0.9c0.1,0,0.1,0,0.1,0.1v0.4c0,0.1,0,0.1-0.1,0.1s-0.5,0-2.2-0.1c-1.4,0-2.1,0-2.3,0s-0.1,0-0.1-0.1v-0.4
	c0-0.1,0-0.1,0.1-0.1h1.1c0.3,0,0.4-0.1,0.4-0.6c0-0.2,0-2.9,0.1-4.1v-1c0-1,0-3.8,0-4l0,0c-0.2,0.2-2.4,5.1-2.5,5.3
	s-1.9,4.2-1.9,4.3s-0.2,0.4-0.3,0.4s-0.2-0.1-0.2-0.3l-2.1-5.3c-0.3-0.7-1.7-4.2-1.9-4.4c-0.1,0.2-0.1,4.2-0.1,4.4s0,3.5,0,4
	c0.1,0.9,0.2,1.1,0.7,1.2H60c0.1,0,0.1,0.1,0.1,0.1v0.4c0,0.1,0,0.1-0.1,0.1s-0.6-0.1-1.9-0.1s-1.9,0-2,0s-0.1,0-0.1-0.1v-0.4
	c0,0,0-0.1,0.1-0.1h0.8c0.6,0,0.7-0.4,0.8-0.9c0.2-1.1,0.3-5.1,0.3-5.4s0-2.6,0-3s0-0.6-0.6-0.6h-1c-0.1,0-0.1,0-0.1-0.1v-0.4
	c0,0,0-0.1,0.1-0.1s0.6,0.1,1.9,0.1c0.7,0,1.1,0,1.3,0c0.2,0,0.4,0.1,0.4,0.3L63.4,123.4z M74.8,121.7c-0.2,0.4-1,2.8-1.1,3.1
	c0,0.1,0,0.2,0,0.3c0,0.2,0.2,0.3,0.5,0.3h0.7c0.1,0,0.2,0,0.2,0.1v0.4c0,0.1,0,0.1-0.1,0.1s-0.9-0.1-1.8-0.1c-1.1,0-1.5,0-1.7,0
	s-0.1,0-0.1-0.1v-0.4c0-0.1,0-0.1,0.1-0.1c0,0,0,0,0,0H72c0.5,0,0.7-0.2,0.9-0.7c0.1-0.2,1.3-3.2,1.8-4.4c0.1-0.3,1.4-3.7,1.6-4.1
	c0.1-0.2,0.1-0.4,0-0.5c-0.1-0.1-0.1-0.1-0.1-0.2c0,0,0-0.1,0.1-0.1c0.5-0.2,0.9-0.4,1.3-0.8c0.1-0.1,0.1-0.1,0.2-0.1
	s0.1,0.1,0.2,0.3c0.3,1,1.5,4.5,1.8,5.5c0.3,1.2,1.3,4.2,1.6,4.6c0.2,0.4,0.6,0.7,1.1,0.7h0.5c0.1,0,0.1,0,0.1,0.1v0.4
	c0,0.1,0,0.1-0.2,0.1c-0.3,0-0.6-0.1-1.9-0.1s-1.8,0-2.2,0c-0.1,0-0.1,0-0.1-0.1v-0.4c0-0.1,0-0.1,0.1-0.1h0.4
	c0.4,0,0.6-0.2,0.5-0.6s-0.7-2.6-1-3.2L74.8,121.7z M78.5,121.2c-0.1-0.5-1.4-4.4-1.4-4.7s-0.1-0.2-0.1-0.2s-0.1,0.1-0.2,0.2
	s-1.6,4.2-1.7,4.6L78.5,121.2z M85.5,119.6c0-0.4,0-3.2,0-3.4s-0.2-0.5-0.8-0.5h-0.9c-0.1,0-0.1,0-0.1-0.1v-0.4c0-0.1,0-0.1,0.1-0.1
	c0,0,0,0,0,0c0.2,0,1,0.1,2.4,0.1s1.9,0,2.1,0c0.1,0,0.1,0,0.1,0.1c0,0,0,0,0,0v0.4c0,0.1,0,0.1-0.1,0.1c0,0,0,0,0,0h-0.7
	c-0.3,0-0.6,0.1-0.6,0.4c0,0.2-0.1,3.6-0.1,3.8v1.2c0,0.2,0,3.8,0,4c0,0.5,0.2,0.6,0.7,0.6h0.6c0.1,0,0.1,0,0.1,0.1v0.4
	c0,0.1,0,0.1-0.1,0.1s-0.8,0-2.2-0.1s-2.2,0-2.3,0s-0.1,0-0.1-0.1v-0.4c0-0.1,0-0.1,0.1-0.1h0.9c0.3,0,0.6,0,0.7-0.4
	c0-0.2,0.1-3.6,0.1-4.4L85.5,119.6z M91.7,119.2c0-1,0-2.7,0-3s-0.1-0.6-0.6-0.6h-0.8c-0.1,0-0.1-0.1-0.1-0.2v-0.3
	c0-0.1,0-0.1,0.1-0.1s0.7,0,2,0.1c1.5,0,2.2,0,2.3,0s0.1,0.1,0.1,0.1v0.4c0,0.1,0,0.1-0.2,0.1h-0.9c-0.5,0-0.6,0.2-0.6,0.6
	c0,0.2-0.1,2.6-0.1,3.7v1.3c0,0.3,0,3.7,0,4.3c0.3,0,3.4,0.1,3.9,0c0.9-0.1,1.9-2,2.1-2.6c0-0.1,0.1-0.1,0.1-0.1l0.2,0.1
	c0.1,0,0.1,0,0,0.1s-0.7,2.7-0.8,3.1c-0.2,0-1.4,0-2.8-0.1s-2.9,0-3.8,0c-0.6,0-1.1,0-1.4,0h-0.6c-0.1,0-0.1,0-0.1-0.1v-0.4
	c0-0.1,0-0.1,0.1-0.1h0.8c0.6,0,0.7-0.2,0.7-0.4s0.1-4.2,0.1-5.2L91.7,119.2z M101.4,119.1c0-0.8-0.4-3-0.4-3.5s0.3-0.7,0.7-0.7
	s0.7,0.2,0.7,0.7s-0.4,2.7-0.5,3.5H101.4z M103.9,119.1c0-0.8-0.4-3-0.4-3.4c0-0.4,0.3-0.7,0.6-0.7c0,0,0.1,0,0.1,0
	c0.5,0,0.7,0.2,0.7,0.7s-0.5,2.7-0.5,3.5L103.9,119.1z"/>
<path class="st1" d="M12.1,161.5c-0.3,0.3-0.6,0.5-0.8,0.9c-0.3,0.3-0.5,0.6-0.7,0.9c-0.4,0.8-0.9,1.6-1.3,2.3s-0.9,1.4-1.2,2
	c0.5,0.3,0.8,0.7,1,1.2c0.1,0.5,0,1.1-0.1,1.6c0,0.1-0.1,0.4-0.1,0.8s-0.1,0.9-0.1,1.5s0,1.2,0,1.9s0,1.3,0,1.9s0,1.1,0,1.6
	s0,0.8,0,1c0,0.6,0,1.1,0,1.5s-0.1,0.7-0.1,0.9s-0.1,0.5-0.1,0.6c0,0.2-0.1,0.4-0.1,0.6c-0.3,1-0.6,1.5-1,1.5c-0.4,0-1-0.5-1.7-1.5
	c-0.3-0.5-0.5-1-0.5-1.6c0-0.8,0.2-1.7,0.6-2.4c0.3-0.8,0.5-1.7,0.5-2.6c0-1.1,0.1-2.3,0.1-3.7V171c0-0.4,0-0.8,0-1.2
	c-0.7,0.7-1.4,1.4-2.2,2c-0.7,0.5-1.4,1-2.2,1.4c-1.3,0.6-2,0.9-2,0.8c-0.1-0.1,0.3-0.6,1.2-1.6c1-1.1,1.9-2.2,2.8-3.4
	c0.8-1.2,1.6-2.4,2.3-3.6c0.6-1.1,1.1-2.2,1.5-3.4c0.3-0.8,0.4-1.7,0.3-2.5c-0.1-0.4-0.2-0.8-0.2-1.2c0-0.3,0.1-0.5,0.3-0.5
	c0.3,0,0.6,0.1,0.9,0.2c0.6,0.3,1.2,0.6,1.7,0.9c0.7,0.3,1.3,0.8,1.7,1.5C12.7,160.8,12.5,161.3,12.1,161.5z M28.2,178.7
	c0.3,0.3,0.5,0.6,0.7,0.9c0.1,0.2,0.1,0.5,0,0.8c-0.2,0.3-0.5,0.4-0.8,0.4c-0.6,0.1-1.2,0-1.8-0.1c-0.6-0.1-1.2-0.1-1.8-0.2
	c-0.7,0-1.4-0.1-2.1-0.1s-1.5,0-2.2,0s-1.4,0.1-2,0.1c-1.4,0.1-2.5,0.2-3.4,0.4c-0.8,0.1-1.7,0.3-2.5,0.6c-0.4,0.1-0.6,0.2-0.9,0.2
	c-0.2,0-0.4,0-0.6,0c-0.2,0-0.4-0.1-0.6-0.2c-0.2-0.1-0.5-0.3-0.8-0.5c-0.6-0.4-0.8-0.7-0.6-0.9c0.2-0.2,0.6-0.3,1.3-0.4
	c0.4,0,1.1-0.1,2.3-0.2s2.5-0.3,4-0.5l0.1-5.1c-0.6,0.1-1.1,0.1-1.5,0.2c-0.3,0-0.6,0.1-0.9,0.1c-0.2,0-0.4,0-0.6-0.1l-0.5-0.1
	c-1-0.3-1.4-0.6-1.4-0.8s0.6-0.4,1.6-0.6c0.6-0.1,1.1-0.2,1.8-0.3s1.2-0.2,1.6-0.3v-1.6c0-0.5,0-0.9,0-1.2c0-0.3-0.1-0.6-0.1-0.9
	c-0.1-0.3-0.1-0.5-0.2-0.8c-0.8,0.1-1.4,0.2-1.9,0.3s-0.9,0.1-1.2,0.1c-0.3,0-0.5,0-0.8-0.1c-0.2,0-0.4-0.1-0.5-0.2
	c-0.9-0.4-1.3-0.6-1.2-0.8s0.6-0.4,1.6-0.5c0.5-0.1,1.2-0.2,1.9-0.3s1.4-0.3,2.1-0.4c0.7-0.2,1.4-0.3,2.1-0.5s1.2-0.3,1.7-0.5
	c0.8-0.3,1.4-0.5,1.9-0.6c0.4-0.1,0.9-0.2,1.3-0.3c0.4,0,0.7,0,1.1,0.1c0.4,0.1,0.8,0.3,1.1,0.5c0.6,0.4,1,0.7,0.9,1.1
	s-0.4,0.6-1.1,0.7l-2.6,0.4l-3.7,0.6c0.3,0.2,0.7,0.4,1,0.6c0.2,0.1,0.4,0.3,0.5,0.5c0.1,0.2,0.1,0.4,0,0.5c0,0.2-0.1,0.4-0.2,0.6
	c-0.1,0.2-0.2,0.5-0.3,0.8c-0.1,0.4-0.1,0.7-0.2,1.1c0.5-0.1,0.9-0.2,1.4-0.3c0.3-0.1,0.7-0.1,1-0.1c0.3,0,0.5,0.1,0.8,0.1
	c0.3,0.1,0.5,0.2,0.7,0.4c0.5,0.3,0.8,0.6,0.6,1s-0.5,0.6-1.2,0.7l-1.5,0.2l-2,0.3l-0.2,5.1l2.1-0.3c0.7-0.1,1.4-0.2,1.9-0.3
	c0.6-0.1,1.2-0.2,1.6-0.3c0.4-0.1,0.8-0.1,1.2,0c0.3,0.1,0.7,0.2,1,0.3C27.5,178.2,27.8,178.4,28.2,178.7L28.2,178.7z M20.7,162
	c0,0.3-0.1,0.6-0.2,0.9c-0.1,0.2-0.3,0.4-0.6,0.6c-0.2,0.1-0.5,0.2-0.8,0.2c-0.3,0-0.6-0.2-0.8-0.4c-0.5-0.4-1-0.9-1.4-1.4
	c-0.4-0.5-0.8-1-1.2-1.7s-0.6-1-0.4-1.1s0.6-0.2,1.3-0.1c0.9,0.1,1.6,0.3,2.2,0.4c0.5,0.1,0.9,0.3,1.3,0.6c0.3,0.2,0.5,0.5,0.6,0.8
	C20.7,161.2,20.7,161.6,20.7,162z"/>
<path class="st1" d="M62.7,179c0.4,0.4,0.6,1.1,0.3,1.6c-0.5,0.7-1.2,1.3-2.1,1.6c-0.4,0.2-0.9,0.4-1.4,0.5
	c-0.6,0.2-1.1,0.3-1.7,0.4c-0.6,0.1-1.3,0.2-2.1,0.2s-1.7,0.1-2.6,0.1c-1.7,0.1-3.4-0.3-4.9-0.9c-1.1-0.5-1.8-1.5-2-2.7
	c-0.1-0.7-0.2-1.5-0.3-2.2c0-0.8-0.1-1.7,0-2.6l-2.3,0.5c-0.7,0.1-1.1,0.2-1.4,0.3c-0.6,0.2-1,0.3-1.4,0.4c-0.3,0.1-0.6,0.1-0.9,0.1
	c-0.3,0-0.5-0.1-0.8-0.2c-0.2-0.1-0.6-0.3-1-0.5c-0.6-0.3-0.8-0.6-0.7-0.8c0.3-0.2,0.7-0.4,1.1-0.4c0.7-0.1,1.8-0.2,3.1-0.4
	s2.7-0.5,4.2-0.9c0.1-0.7,0.1-1.5,0-2.2c0-0.5-0.1-0.9-0.3-1.3c-0.4,0.1-0.9,0.2-1.4,0.3c-0.5,0.1-1,0.1-1.5,0.1
	c-1.4,0-2.1-0.1-2.1-0.4s0.6-0.6,1.8-0.8c0.8-0.2,1.5-0.4,2.3-0.7c0.8-0.3,1.5-0.6,2.2-1c0.6-0.3,1.2-0.6,1.8-1
	c0.3-0.2,0.7-0.5,0.9-0.8c0.1-0.3,0.3-0.5,0.4-0.8c0.1-0.2,0.3-0.3,0.5-0.3c0.3,0,0.5,0.1,0.8,0.2c0.3,0.2,0.7,0.4,1.2,0.7
	c0.5,0.3,1,0.7,1.5,1.1c0.2,0.2,0.4,0.5,0.4,0.8c0,0.2-0.2,0.4-0.5,0.5c-0.4,0.1-0.9,0.2-1.3,0.2c-0.7,0.1-1.3,0.2-2,0.4
	c-0.9,0.2-1.8,0.5-2.8,0.8c0.5,0.2,0.9,0.3,1.2,0.4c0.2,0.1,0.4,0.2,0.6,0.4c0.1,0.1,0.1,0.3,0,0.5c-0.1,0.2-0.2,0.4-0.4,0.6
	c-0.1,0.2-0.3,0.4-0.3,0.6c-0.1,0.3-0.1,0.6-0.2,0.9c0.7-0.2,1.4-0.4,2-0.6s1.2-0.4,1.7-0.6s1-0.4,1.4-0.5c0.3-0.1,0.7-0.2,1-0.2
	c0.3,0,0.5,0,0.8,0.1c0.3,0.1,0.6,0.2,0.8,0.4c0.4,0.2,0.7,0.4,1,0.7c0.2,0.2,0.2,0.4,0.1,0.6c-0.3,0.3-0.7,0.4-1.1,0.5
	c-0.8,0.2-1.6,0.3-2.4,0.4c-0.6,0.1-1.4,0.2-2.4,0.4s-2,0.4-3,0.6c-0.1,0.7-0.1,1.5,0,2.2c0,0.6,0.1,1.1,0.2,1.6
	c0,0.3,0.1,0.6,0.3,0.8c0.1,0.2,0.3,0.4,0.6,0.5c0.3,0.1,0.7,0.2,1.1,0.3c0.6,0.1,1.2,0.1,1.8,0.1c0.9,0,1.9-0.1,2.8-0.2
	c1-0.2,1.9-0.4,2.8-0.8c0.3-0.1,0.5-0.2,0.8-0.4c0.3-0.2,0.5-0.4,0.6-0.7c0.2-0.4,0.4-0.7,0.5-1.1c0.2-0.5,0.3-1.1,0.4-1.7
	c0.3-1.6,0.7-2.4,1-2.3s0.5,0.9,0.5,2.5c0,0.8,0.1,1.6,0.2,2.5C62.3,178.2,62.4,178.6,62.7,179z M61.5,161.6
	c0.5,0.4,0.8,0.8,1.2,1.3c0.2,0.3,0.3,0.6,0.2,0.9c-0.1,0.3-0.3,0.5-0.5,0.5c-0.4,0.1-0.8,0.2-1.1,0.2c-0.7,0-1.4,0.2-2.1,0.3
	c-0.8,0.2-1.5,0.5-2.2,0.8c-0.7,0.3-1.1,0.4-1.3,0.2s0-0.6,0.5-1.4c0.3-0.5,0.5-0.8,0.6-1.1c0.1-0.2,0.2-0.4,0.2-0.6
	c0-0.1-0.1-0.2-0.2-0.2c-0.2,0-0.4,0-0.6,0c-0.7,0-1.4,0.1-2.3,0.2l-2.6,0.3c-0.9,0.1-1.8,0.2-2.6,0.3s-1.6,0.2-2.2,0.4
	s-1.1,0.2-1.5,0.2c-0.4,0.1-0.7,0.1-1.1,0.1c-0.3,0-0.6,0-0.9,0c-0.3,0-0.5-0.1-0.8-0.2c-0.2,0.6-0.4,1.3-0.6,1.9
	c-0.2,0.6-0.5,1.1-0.8,1.6c-0.2,0.3-0.5,0.6-0.8,0.8c-0.2,0.2-0.5,0.3-0.8,0.3c-0.3,0-0.5-0.1-0.7-0.4c-0.2-0.3-0.4-0.6-0.4-1
	c-0.1-0.5-0.1-1.1-0.1-1.6c0.1-0.4,0.4-0.8,0.7-1.1c0.4-0.3,0.7-0.7,1-1.1c0.3-0.5,0.5-1,0.7-1.5c0.1-0.2,0.2-0.4,0.3-0.6
	c0.1-0.1,0.2-0.2,0.3-0.2c0.2,0.1,0.4,0.2,0.5,0.4c0.2,0.4,0.4,0.7,0.6,1.1c0.5,0,1.2-0.1,1.9-0.1s1.6-0.2,2.5-0.3l3.3-0.5
	c1.3-0.2,2.7-0.4,4.3-0.7c0.5-0.1,1-0.2,1.5-0.3c0.5-0.1,1.1-0.3,1.6-0.6c0.3-0.1,0.5-0.2,0.8-0.3c0.3-0.1,0.5,0,0.8,0.1
	c0.4,0.1,0.7,0.3,1.1,0.6C60.4,160.7,61,161.2,61.5,161.6L61.5,161.6z M51.5,158.4c0.1,0.4,0.1,0.8,0,1.3c0,0.3-0.2,0.6-0.4,0.8
	c-0.2,0.2-0.5,0.3-0.7,0.3c-0.4,0-0.7-0.1-1-0.4c-0.5-0.3-0.9-0.6-1.3-1c-0.5-0.4-0.9-0.9-1.3-1.4c-0.5-0.6-0.7-1-0.5-1.2
	s0.6-0.3,1.3-0.3c0.6,0,1.3,0.1,1.9,0.2c0.4,0.1,0.8,0.2,1.2,0.4c0.3,0.1,0.5,0.3,0.7,0.6C51.4,157.9,51.5,158.2,51.5,158.4
	L51.5,158.4z"/>
<path class="st1" d="M81.7,174.2c0.2,0.2,0.1,0.4-0.2,0.7c-0.4,0.4-0.8,0.7-1.2,1c-1.1,0.8-2,1.5-2.7,2s-1.2,1-1.7,1.3
	s-0.8,0.6-1,0.9c-0.2,0.2-0.4,0.4-0.6,0.6c-0.1,0.2-0.3,0.3-0.5,0.4c-0.2,0.1-0.4,0.1-0.6,0.1c-0.3-0.1-0.6-0.2-0.8-0.3
	c-0.4-0.2-0.9-0.5-1.3-0.8c-1-0.7-1.5-1.2-1.5-1.6c0.1-0.4,0.7-0.6,1.8-0.6c0.5,0,1-0.1,1.5-0.3c0.7-0.2,1.4-0.5,2-0.8v-5.1
	c-0.5,0.1-1,0.1-1.5,0.1c-0.4-0.1-0.8-0.2-1.1-0.3c-0.7-0.3-1-0.5-1-0.6s0.4-0.3,1.2-0.5c0.4-0.1,0.8-0.2,1.2-0.3
	c0.4-0.1,0.9-0.3,1.3-0.5c0-2.3,0-4-0.1-5.2c0-0.9-0.2-1.7-0.7-2.5c-0.3-0.3-0.5-0.7-0.7-1.1c-0.1-0.3-0.1-0.5,0.1-0.6
	c0.3-0.2,0.7-0.2,1-0.1c0.7,0.1,1.4,0.3,2,0.5c0.4,0.1,0.9,0.3,1.2,0.6c0.3,0.2,0.5,0.4,0.6,0.7c0.1,0.2,0.1,0.5,0.1,0.8
	c-0.1,0.3-0.2,0.6-0.3,0.9c-0.2,0.5-0.3,1.1-0.3,1.6c-0.1,0.8-0.1,1.9-0.1,3.5c0.3-0.1,0.5-0.1,0.8-0.1c0.2,0,0.5,0,0.7,0.1
	c0.8,0.2,1.3,0.4,1.4,0.7s-0.3,0.7-1.2,1.1c-0.6,0.3-1.1,0.5-1.7,0.8v4.4c0.9-0.5,1.9-0.8,2.8-1.2C81.3,174.1,81.6,174.1,81.7,174.2
	z M99.6,178.2c0.3,0.4,0.5,0.8,0.6,1.2c0.1,0.4-0.1,0.9-0.4,1.2c-0.5,0.5-1.1,0.9-1.8,1.1c-1.1,0.4-2.3,0.7-3.5,0.9
	c-1.1,0.2-2.2,0.3-3.2,0.3c-1.2,0-2.4-0.1-3.6-0.3c-1.4-0.2-2.7-0.7-3.7-1.6c-0.9-0.9-1.5-2-1.6-3.2c-0.1-0.7-0.2-1.3-0.2-2
	c0-0.8,0-1.7,0-2.5c-0.4,0.3-0.8,0.5-1.3,0.6c-0.4,0-0.8,0-1.1-0.2c-0.3-0.1-0.6-0.3-0.9-0.5c-0.2-0.1-0.3-0.3-0.2-0.4
	c0-0.1,0.1-0.2,0.4-0.3s0.5-0.2,0.9-0.3c0.8-0.3,1.6-0.7,2.4-1.1c0-0.9,0-1.8-0.1-2.8c0-0.5-0.2-1-0.4-1.4c-0.7-0.8-0.9-1.3-0.7-1.6
	s1-0.2,2.3,0.2c0.4,0.1,0.8,0.3,1.2,0.5c0.2,0.1,0.4,0.3,0.6,0.5c0.1,0.2,0.2,0.4,0.1,0.6c0,0.2-0.1,0.4-0.2,0.6
	c-0.1,0.3-0.3,0.7-0.3,1.1c0,0.3-0.1,0.6-0.1,0.9l0.9-0.5l0.9-0.5v-2.5c0-0.5,0-1,0-1.5s0-1,0-1.5c0-0.7,0-1.3-0.1-1.7
	s-0.1-0.9-0.1-1.1c0-0.3-0.1-0.5-0.2-0.7c-0.1-0.2-0.1-0.3-0.2-0.5c-0.3-0.4-0.5-0.8-0.7-1.2c-0.1-0.3-0.1-0.6,0-0.7
	c0.2-0.2,0.6-0.3,0.9-0.2c0.6,0.1,1.2,0.2,1.8,0.4c0.5,0.2,1,0.4,1.4,0.6c0.3,0.2,0.5,0.4,0.7,0.7c0.1,0.2,0.2,0.5,0.1,0.7
	c-0.1,0.3-0.1,0.5-0.3,0.8c-0.1,0.2-0.2,0.4-0.2,0.6c-0.1,0.4-0.1,0.8-0.2,1.3c-0.1,0.5-0.1,1.2-0.2,2c-0.1,0.8-0.1,1.8-0.1,2.9
	c0.8-0.5,1.3-0.9,1.6-1.1c0.2-0.1,0.5-0.4,0.6-0.6c0.1-0.3,0.3-0.5,0.5-0.7c0.1-0.2,0.3-0.3,0.6-0.3c0.3,0,0.5,0,0.8,0.1
	c0.4,0.1,0.8,0.3,1.2,0.4c0.5,0.2,0.9,0.5,1.4,0.7c0.3,0.2,0.5,0.4,0.6,0.6c0.1,0.2,0,0.5-0.1,0.6c-0.2,0.3-0.4,0.5-0.6,0.7
	c-0.1,0.1-0.2,0.2-0.3,0.3c-0.1,0.2-0.2,0.3-0.3,0.5c-0.1,0.2-0.2,0.6-0.3,0.9s-0.2,0.9-0.3,1.6s-0.3,1.3-0.4,1.8s-0.3,1-0.4,1.4
	c-0.1,0.3-0.3,0.7-0.5,1c-0.2,0.3-0.4,0.6-0.6,0.8c-0.6,0.6-1.1,0.9-1.4,0.8s-0.6-0.4-0.8-1.2c-0.1-0.3-0.2-0.6-0.3-0.9
	c-0.2-0.3-0.3-0.7-0.6-1.2s-0.4-1-0.4-1.1s0.4,0,0.9,0.2c0.2,0.1,0.5,0.2,0.7,0.2c0.2,0,0.3-0.2,0.4-0.5l0.3-0.9
	c0.1-0.3,0.1-0.6,0.2-0.9c0-0.3,0.1-0.7,0.1-1.1s0.1-1,0.1-1.7c0-0.1,0-0.3-0.2-0.3c-0.1-0.1-0.2-0.1-0.3-0.1l-1.1,0.6
	c-0.4,0.2-0.7,0.4-1.1,0.6c-0.1,1.6-0.2,3-0.3,4.3c-0.1,1-0.3,2-0.5,2.9c-0.1,0.6-0.3,1.1-0.6,1.7c-0.2,0.3-0.4,0.5-0.6,0.4
	s-0.3-0.3-0.5-0.8c-0.1-0.7-0.2-1.3-0.2-2c0-0.1,0-0.4,0-0.8s0-0.8,0-1.3s0-1,0.1-1.5s0-1,0.1-1.4l-0.9,0.5
	c-0.3,0.2-0.6,0.4-0.8,0.6c-0.1,1.2-0.1,2.3-0.1,3.3c0,0.7,0.1,1.3,0.2,2c0.1,0.4,0.2,0.8,0.4,1.2c0.1,0.3,0.4,0.5,0.6,0.7
	c0.3,0.2,0.6,0.3,0.9,0.4c0.4,0.1,0.9,0.2,1.3,0.3c0.8,0.2,1.6,0.2,2.5,0.2c1.1,0,2.1-0.2,3.2-0.5c0.4-0.1,0.9-0.2,1.3-0.3
	c0.4-0.2,0.7-0.4,1-0.8c0.3-0.4,0.6-0.9,0.8-1.4c0.2-0.8,0.4-1.6,0.6-2.4c0.1-0.5,0.2-0.9,0.3-1.4c0.1-0.3,0.2-0.5,0.4-0.5
	s0.2,0.1,0.3,0.5c0.1,0.5,0.2,1,0.2,1.6c0.1,0.6,0.1,1.1,0.2,1.5c0.1,0.3,0.1,0.7,0.2,1c0.1,0.2,0.1,0.5,0.2,0.7
	C99.3,177.9,99.4,178.1,99.6,178.2z"/>
<path class="st1" d="M117.9,174.1c0.2,0.2,0.1,0.4-0.1,0.6s-0.6,0.5-1.2,1c-1.2,0.9-2.1,1.6-2.8,2.2c-0.7,0.6-1.3,1-1.7,1.4
	s-0.7,0.6-0.9,0.8c-0.2,0.2-0.3,0.4-0.5,0.6c-0.1,0.2-0.3,0.4-0.5,0.5c-0.2,0.1-0.4,0.2-0.6,0.1c-0.3,0-0.6-0.1-0.8-0.3
	c-0.4-0.2-0.8-0.5-1.2-0.7c-1-0.6-1.4-1.1-1.3-1.4s0.7-0.6,1.8-0.8c0.5-0.1,1-0.3,1.5-0.4c0.7-0.2,1.3-0.5,1.9-0.8v-5.9
	c-0.3,0-0.6,0.1-0.8,0.1c-0.2,0-0.4,0-0.6,0c-0.2,0-0.4,0-0.6-0.1l-0.7-0.2c-0.7-0.2-1-0.4-1-0.6s0.4-0.4,1.2-0.6
	c0.4-0.1,0.8-0.2,1.2-0.3c0.4-0.1,0.8-0.2,1.3-0.4c0-1,0-1.9,0-2.7s-0.1-1.4-0.1-1.9c-0.1-0.4-0.1-0.9-0.3-1.3
	c-0.1-0.3-0.2-0.6-0.4-0.9c-0.3-0.4-0.6-0.8-0.8-1.2c-0.1-0.3-0.1-0.6,0-0.7c0.3-0.2,0.7-0.2,1-0.1c0.7,0.1,1.3,0.3,2,0.6
	c0.6,0.2,1.1,0.4,1.5,0.6c0.3,0.1,0.6,0.3,0.8,0.5c0.1,0.2,0.2,0.4,0.1,0.6c-0.1,0.3-0.2,0.6-0.4,0.9c-0.2,0.5-0.3,0.9-0.4,1.4
	c-0.1,0.7-0.2,1.6-0.2,2.9c0.2-0.1,0.5-0.1,0.7-0.1c0.2,0,0.4,0,0.6,0.1c1.9,0.5,2,1.2,0.2,2l-0.8,0.3l-0.7,0.3l-0.1,5.3
	c0.9-0.5,1.8-0.8,2.7-1.2C117.5,174,117.8,174,117.9,174.1z M133.1,179.2c1.1,0.9,1.6,1.6,1.3,2s-1.2,0.4-2.8,0.2
	c-0.5-0.1-1-0.1-1.6-0.2s-1.2-0.1-1.8-0.1s-1.3,0-1.9,0s-1.3,0-1.9,0.1c-1.7,0.1-3.1,0.3-4.2,0.4c-0.9,0.1-1.7,0.3-2.6,0.5
	c-0.3,0.1-0.7,0.2-1,0.2c-0.3,0-0.5,0-0.8,0c-0.2,0-0.5-0.1-0.7-0.2c-0.3-0.1-0.5-0.2-0.8-0.4c-1-0.6-1.4-0.9-1.4-1.1
	s0.6-0.3,1.7-0.3l1.6-0.1c0.7-0.1,1.6-0.1,2.6-0.2c0-2.1,0.1-3.8,0.1-5.1s0-2.3-0.1-3.1c0-0.6-0.1-1.1-0.2-1.7
	c-0.1-0.4-0.2-0.7-0.4-1c-0.6-0.9-0.8-1.6-0.6-1.8s1.1-0.1,2.5,0.5c0.5,0.2,0.9,0.4,1.2,0.6c0.2,0.1,0.5,0.3,0.6,0.5
	c0.1,0.2,0.1,0.4,0.1,0.6c-0.1,0.3-0.2,0.7-0.3,1c-0.1,0.2-0.2,0.5-0.2,0.7c-0.1,0.5-0.1,0.9-0.1,1.4c0,0.6-0.1,1.5-0.1,2.6
	s0,2.6,0,4.4c0.5,0,1-0.1,1.4-0.2s1-0.1,1.4-0.1c0-2-0.1-3.9-0.1-5.6s0-3.2,0-4.4c0-1.7,0-3.1,0-4.2s-0.1-2-0.2-2.6
	c0-0.5-0.2-1-0.3-1.5c-0.1-0.3-0.3-0.7-0.5-0.9c-0.3-0.3-0.5-0.6-0.7-1c-0.1-0.3-0.1-0.5,0-0.6s0.4-0.2,0.8-0.2
	c0.6,0.1,1.1,0.2,1.7,0.4c0.9,0.3,1.6,0.5,2.1,0.7c0.4,0.1,0.7,0.3,1,0.6c0.2,0.2,0.2,0.4,0.2,0.7c-0.1,0.3-0.2,0.7-0.4,1
	c-0.1,0.3-0.3,0.6-0.3,0.9c-0.1,0.4-0.2,0.9-0.2,1.4c0,0.6-0.1,1.3-0.1,2.2s0,2,0,3.3c0.7-0.3,1.3-0.6,1.7-0.7
	c0.4-0.1,0.7-0.2,1.1-0.3c0.3,0,0.5,0,0.8,0c0.3,0.1,0.5,0.2,0.8,0.3c0.9,0.4,1.3,0.8,1.3,1.1s-0.5,0.6-1.3,0.8
	c-1,0.2-1.8,0.4-2.4,0.5c-0.7,0.1-1.3,0.1-2,0c0,0.4,0,0.8,0,1.2s0,0.8,0,1.3s0,1,0,1.4c0,1.2,0,2.5,0,4c0.5-0.1,1-0.2,1.4-0.2
	c0.3-0.1,0.7-0.1,1-0.2c0.5-0.1,0.9-0.2,1.2-0.3c0.3-0.1,0.7-0.1,1,0c0.3,0.1,0.6,0.2,0.9,0.3C132.6,178.7,132.8,178.9,133.1,179.2
	L133.1,179.2z"/>
<path class="st1" d="M26,197.6c0-0.8-0.4-3-0.4-3.5c0-0.4,0.3-0.6,0.6-0.7c0,0,0.1,0,0.1,0c0.5,0,0.7,0.2,0.7,0.6s-0.5,2.7-0.5,3.5
	H26z M28.5,197.6c0-0.8-0.4-3-0.4-3.5s0.3-0.6,0.7-0.6s0.7,0.2,0.7,0.6s-0.5,2.7-0.5,3.5H28.5z"/>
<path class="st1" d="M33.9,200.5c-0.2,0.4-1,2.8-1.1,3.1c0,0.1,0,0.3,0,0.4s0.2,0.3,0.5,0.4H34c0.1,0,0.2,0,0.2,0.1v0.4
	c0,0.1,0,0.1-0.1,0.1s-0.9-0.1-1.8-0.1c-1.1,0-1.5,0-1.7,0s-0.1,0-0.1-0.1v-0.4c0-0.1,0.1-0.1,0.1-0.1c0,0,0,0,0,0h0.5
	c0.5,0,0.7-0.2,0.9-0.7c0.1-0.2,1.3-3.1,1.8-4.4c0.1-0.3,1.4-3.7,1.6-4.1c0.1-0.2,0.1-0.4,0-0.5c-0.1-0.1-0.1-0.1-0.1-0.2
	c0-0.1,0-0.1,0.2-0.1c0.5-0.1,0.9-0.4,1.3-0.8c0.1-0.1,0.1-0.1,0.2-0.1s0.1,0.1,0.2,0.3c0.3,1,1.5,4.5,1.8,5.5
	c0.3,1.2,1.3,4.1,1.6,4.6c0.2,0.4,0.6,0.7,1.1,0.7H42c0.1,0,0.1,0,0.1,0.1v0.4c0,0.1,0,0.1-0.2,0.1c-0.3,0-0.6-0.1-1.9-0.1
	s-1.8,0-2.2,0c-0.1,0-0.1,0-0.1-0.1c0,0,0,0,0,0v-0.4c0-0.1,0-0.1,0.1-0.1h0.4c0.4,0,0.6-0.1,0.5-0.6s-0.8-2.6-1-3.2L33.9,200.5z
	 M37.6,200c-0.1-0.5-1.4-4.4-1.5-4.6s-0.1-0.2-0.1-0.2s-0.1,0.1-0.2,0.2s-1.6,4.2-1.7,4.6L37.6,200z"/>
<path class="st1" d="M44.6,197.8c0-0.4,0-2.6-0.1-2.9s-0.2-0.4-0.7-0.4H43c-0.1,0-0.1,0-0.1-0.1v-0.4c0-0.1,0-0.1,0.1-0.1
	s0.9,0.1,2.3,0.1h2.3c2,0,3.7,0.3,5.1,1.5c1.1,1,1.8,2.5,1.7,4c0.1,1.5-0.5,3-1.6,4.1c-1.5,1.6-3.7,1.6-4.9,1.6
	c-1,0-2.2-0.1-2.9-0.1c-1.4,0-2,0-2.2,0s-0.1,0-0.1-0.1v-0.4c0-0.1,0-0.1,0.1-0.1h1c0.3,0,0.5-0.1,0.5-0.4s0.2-3.9,0.2-5.1
	L44.6,197.8z M46,199.3c0,0.2,0,2.9,0,3.9c0,0.3,0.1,0.6,0.3,0.9c0.5,0.4,1.1,0.6,1.7,0.5c1.4,0.1,2.8-0.6,3.7-1.7
	c0.8-1,1.2-2.2,1.2-3.5c0-1.3-0.5-2.5-1.3-3.5c-1-1-2.5-1.6-3.9-1.5c-0.4,0-0.9,0-1.3,0.1c-0.2,0.1-0.3,0.4-0.3,0.7c0,0.6,0,2.7,0,3
	L46,199.3z"/>
<path class="st1" d="M57.5,197.9c0-0.4,0-2.6-0.1-2.9s-0.2-0.4-0.7-0.4H56c-0.1,0-0.1,0-0.1-0.1V194c0-0.1,0-0.1,0.1-0.1
	s0.9,0,2.3,0.1c0.4,0,2,0,2.3,0c2,0,3.7,0.3,5.1,1.4c1.1,1,1.8,2.5,1.7,4c0.1,1.5-0.5,3-1.6,4.1c-1.5,1.6-3.7,1.6-4.9,1.6
	c-1,0-2.2-0.1-2.9-0.1c-1.4,0-2,0-2.2,0s-0.1,0-0.1-0.1v-0.4c0-0.1,0-0.1,0.1-0.1h1c0.3,0,0.5-0.1,0.5-0.4s0.2-3.9,0.2-5.1
	L57.5,197.9z M59,199.4c0,0.2,0,2.9,0,3.8c0,0.3,0.1,0.6,0.3,0.9c0.5,0.4,1.1,0.6,1.7,0.5c1.4,0,2.8-0.6,3.7-1.7
	c0.8-1,1.2-2.2,1.2-3.5c0-1.3-0.5-2.5-1.3-3.5c-1-1-2.5-1.6-3.9-1.5c-0.4,0-0.9,0-1.3,0.1c-0.2,0.1-0.3,0.4-0.3,0.7c0,0.7,0,2.7,0,3
	L59,199.4z"/>
<path class="st1" d="M70.4,198c0-1.2,0-2.2,0-2.6s-0.2-0.8-0.6-0.8h-0.6c-0.1,0-0.1,0-0.1-0.1v-0.4c0-0.1,0-0.1,0.1-0.1
	s0.6,0.1,1.9,0.1c0.9,0,2.3,0,2.6,0c1.1,0,2.1,0.3,2.9,1c0.5,0.5,0.8,1.1,0.8,1.8c0,2-0.9,2.7-2.9,3.1l0,0c0.3,0.1,0.5,0.3,0.7,0.6
	c0.2,0.2,1.3,1.8,1.4,2c0.4,0.6,0.9,1.3,1.4,1.8c0.3,0.2,0.7,0.3,1.1,0.3c0.1,0,0.1,0.1,0.1,0.1v0.4c0,0.1,0,0.1-0.1,0.1
	s-0.5-0.1-1.2-0.1c-0.5,0-1,0-1.3,0c-0.2-0.3-0.5-0.6-0.7-0.9c-0.1-0.2-1-1.7-1-1.8s-0.8-1.2-1-1.5c-0.4-0.6-1-0.9-1.7-0.9
	c-0.2,0-0.3,0-0.5,0v0.9c0,0.9,0,2.7,0,2.9s0.2,0.6,0.4,0.6h1c0.1,0,0.1,0,0.1,0.1v0.4c0,0.1,0,0.1-0.2,0.1s-0.6-0.1-2.1-0.1
	s-1.8,0-2,0S69,205,69,204.9v-0.4c0-0.1,0-0.1,0.1-0.1h0.6c0.3,0,0.6-0.1,0.6-0.5c0-1.6,0.1-3,0.1-4.5L70.4,198z M71.8,199.6
	c0.2,0.1,0.5,0.1,0.7,0.1c2.8,0,3.4-1.9,3.4-2.6c0-0.7-0.3-1.3-0.8-1.8c-0.7-0.6-1.7-0.8-2.6-0.8c-0.2,0-0.4,0-0.5,0.1
	c-0.1,0.1-0.2,0.3-0.2,0.5L71.8,199.6z"/>
<path class="st1" d="M83,199.3c0.1,0,1.8-0.1,2-0.1c0.5-0.1,0.6-0.2,0.7-0.7c0.1-0.3,0.1-0.5,0.1-0.8c0-0.1,0-0.1,0.1-0.1
	c0,0,0,0,0,0h0.4c0.1,0,0.1,0,0.1,0.1c0,0,0,0,0,0c0,0.3-0.1,1.6-0.1,1.8c0,0.6,0.1,1.3,0.1,1.6c0,0.1,0,0.1-0.1,0.1H86
	c-0.1,0-0.1,0-0.1-0.1s-0.1-0.6-0.2-0.7c-0.1-0.3-0.3-0.6-0.7-0.6c-0.7-0.1-1.8-0.1-2.1-0.1v1c0,0.9,0,2.4,0,2.7
	c0,0.8,0.4,1.1,0.9,1.2c0.4,0.1,0.8,0.1,1.2,0.1c0.3,0,1,0,1.4,0c0.5-0.1,1-0.3,1.4-0.5c0.5-0.5,0.9-1.1,1.3-1.6
	c0-0.1,0.1-0.1,0.2-0.1l0.2,0.1c0.1,0.1,0.1,0.1,0,0.2l-0.8,2.3c-0.1,0.1-0.2,0.2-0.3,0.2H87l-4.9-0.1h-1.3h-0.7
	c-0.1,0-0.1,0-0.1-0.1v-0.4c0-0.1,0-0.1,0.2-0.1h0.6c0.7,0,0.8-0.1,0.8-0.7v-5.3c0-1.3,0-3.3,0-3.4c-0.1-0.5-0.2-0.6-0.8-0.6h-0.6
	c-0.1,0-0.1,0-0.1-0.1v-0.4c0,0,0-0.1,0.1-0.1c0.3,0,0.9,0,1.9,0.1h0.7h4.7H88c0.1,0,0.1,0,0.1,0.1l0.8,2.5c0,0.1,0,0.1,0,0.1
	l-0.2,0.1c0,0-0.1,0-0.1-0.1c-0.5-0.6-1-1.2-1.6-1.8c-0.4-0.2-0.8-0.4-1.2-0.4l-2.8-0.1V199.3z"/>
<path class="st1" d="M92.1,204.8c-0.2-0.1-0.3-0.2-0.4-0.2s-0.2,0.1-0.2,0.3s-0.2,0.2-0.3,0.2s-0.2-0.1-0.1-0.2
	c0.1-0.4,0.2-2.4,0.3-2.8c0-0.1,0-0.1,0.1-0.1h0.2c0.1,0,0.1,0,0.1,0.1c0,0.7,0.2,1.3,0.6,1.8c0.5,0.7,1.3,1.2,2.2,1.2
	c1.1,0.1,2.1-0.7,2.1-1.8c0-0.1,0-0.1,0-0.2c0-1.6-1.1-2.2-2.4-2.7c-0.8-0.2-1.6-0.7-2.3-1.2c-0.6-0.6-0.8-1.5-0.8-2.3
	c0.1-0.8,0.4-1.5,1-2c0.6-0.5,1.4-0.8,2.2-0.7c0.6,0,1.3,0.1,1.8,0.4c0.1,0.1,0.2,0.1,0.3,0l0.2-0.2c0.1-0.1,0.1-0.1,0.2-0.1
	c0.1,0,0.1,0.1,0.1,0.3c0,0.6,0.2,2.1,0.2,2.5c0,0.1,0,0.1-0.1,0.1H97c0,0-0.1,0-0.1,0c0,0,0,0,0,0c-0.2-0.7-0.5-1.3-1-1.8
	c-0.4-0.5-1.1-0.7-1.7-0.7c-1-0.1-1.8,0.6-1.9,1.6c0,0.1,0,0.1,0,0.2c0,0.5,0.1,1,0.5,1.4c0.5,0.5,1.1,0.8,1.8,1
	c1,0.2,1.8,0.6,2.5,1.3c0.5,0.6,0.7,1.4,0.7,2.1c0.1,1.7-1.2,3.3-2.9,3.4c-0.1,0-0.2,0-0.3,0C93.7,205.7,92.8,205.4,92.1,204.8z"/>
<path class="st1" d="M100.9,204.9c-0.2-0.1-0.3-0.2-0.4-0.2s-0.2,0.1-0.2,0.3s-0.2,0.2-0.3,0.2s-0.2-0.1-0.1-0.2
	c0.1-0.4,0.2-2.4,0.3-2.8c0-0.1,0-0.1,0.1-0.1h0.2c0.1,0,0.1,0,0.1,0.1c0,0.7,0.2,1.3,0.6,1.8c0.5,0.7,1.3,1.2,2.2,1.2
	c1.1,0.1,2.1-0.7,2.1-1.8c0-0.1,0-0.1,0-0.2c0-1.6-1.1-2.2-2.4-2.7c-0.8-0.3-1.6-0.7-2.3-1.3c-0.6-0.6-0.8-1.5-0.8-2.3
	c0.1-0.8,0.4-1.5,1-2c0.6-0.5,1.4-0.8,2.2-0.7c0.6,0,1.3,0.1,1.8,0.4c0.1,0.1,0.2,0.1,0.3,0l0.2-0.2c0.1-0.1,0.1-0.1,0.2-0.1
	c0.1,0,0.1,0.1,0.1,0.3c0,0.6,0.2,2.2,0.2,2.5c0,0.1,0,0.1-0.1,0.1h-0.2c0,0-0.1,0-0.1,0c-0.2-0.7-0.5-1.3-1-1.8
	c-0.4-0.5-1.1-0.7-1.7-0.7c-1-0.1-1.8,0.7-1.9,1.6c0,0.1,0,0.1,0,0.2c0,0.5,0.1,1,0.5,1.4c0.5,0.5,1.1,0.8,1.8,1
	c1,0.2,1.8,0.6,2.5,1.3c0.5,0.6,0.7,1.4,0.7,2.1c0.1,1.7-1.2,3.3-2.9,3.4c-0.1,0-0.2,0-0.3,0C102.5,205.7,101.6,205.4,100.9,204.9z"
	/>
<path class="st1" d="M109,198.3c0-0.8-0.4-3-0.4-3.4c0-0.4,0.3-0.7,0.7-0.7c0,0,0.1,0,0.1,0c0.5,0,0.7,0.2,0.7,0.6s-0.4,2.7-0.5,3.5
	H109z M111.5,198.3c0-0.8-0.4-3-0.4-3.4c0-0.4,0.3-0.6,0.6-0.7c0,0,0.1,0,0.1,0c0.5,0,0.7,0.2,0.7,0.6s-0.5,2.7-0.5,3.5L111.5,198.3
	z"/>
<path class="st0" d="M163.6,177.2c0-2.3,1.4-3.7,3.3-4.9c-2.1-1.5-3.4-2.4-3.4-4.7s2-5,6-5c2.7,0,4.7,1.7,4.7,3.6s-0.8,3.2-3.4,4.6
	c2.3,1.2,3.7,2.6,3.7,5.2c0,2.2-2.1,4.8-5.8,4.8C165,180.9,163.6,178.9,163.6,177.2z M171.3,176.9c0-1.5-0.9-2.5-3.5-3.9
	c-1.1,0.9-1.7,2.3-1.7,3.7c-0.1,1.6,1.1,3,2.7,3.2C170.4,179.9,171.3,178.8,171.3,176.9L171.3,176.9z M166.8,167
	c0,1.4,0.8,2.1,3,3.3c1.1-0.8,1.8-2.1,1.8-3.4c0-1.8-0.9-3.1-2.4-3.1S166.8,165.4,166.8,167z"/>
<path class="st0" d="M176.8,177.2c0-2.3,1.4-3.7,3.3-4.9c-2.1-1.5-3.4-2.4-3.4-4.7s2-5,6-5c2.7,0,4.7,1.7,4.7,3.6s-0.8,3.2-3.4,4.6
	c2.3,1.2,3.7,2.6,3.7,5.2c0,2.2-2.1,4.8-5.8,4.8C178.2,180.9,176.8,178.9,176.8,177.2z M184.5,176.9c0-1.5-0.9-2.5-3.5-3.9
	c-1.1,0.9-1.7,2.3-1.7,3.7c-0.1,1.6,1.1,3,2.7,3.2C183.6,179.9,184.5,178.8,184.5,176.9L184.5,176.9z M180,167c0,1.4,0.8,2.1,3,3.3
	c1.1-0.8,1.8-2.1,1.8-3.4c0-1.8-0.9-3.1-2.4-3.1S180,165.4,180,167z"/>
<path class="st0" d="M198.8,170.2c0-1.6-0.1-5.1-0.1-5.5c0-1.3-0.2-1.7-0.9-1.7h-1.1c-0.3,0-0.3-0.1-0.3-0.3v-0.5
	c0-0.1,0-0.3,0.3-0.3c0.4,0,1.3,0.1,3.9,0.1s3.5-0.1,4-0.1c0.3,0,0.3,0.1,0.3,0.3v0.6c0,0.1,0,0.2-0.3,0.2H204
	c-0.9,0-1.1,0.4-1.1,1.4c0,0.4-0.2,3.8-0.2,5.3v0.4c0,0.1,0.1,0.2,0.4,0.2h7.8c0.4,0,0.5-0.1,0.5-0.3v-0.3c0-1.5-0.2-5.1-0.2-5.4
	c0-0.8-0.1-1.3-0.6-1.3h-1.1c-0.2,0-0.3-0.1-0.3-0.3v-0.6c0-0.1,0-0.2,0.2-0.2c0.5,0,1.6,0.1,3.8,0.1s3.3-0.1,3.6-0.1
	s0.3,0.1,0.3,0.3v0.5c0,0.2,0,0.3-0.3,0.3h-0.8c-0.8,0-0.8,0.4-0.8,1.3c0,0.4,0,4.8,0,5.8v0.9c0,0.8,0,5.8,0.1,7.2
	c0,0.9,0.3,1.3,1,1.3h0.9c0.2,0,0.2,0.1,0.2,0.2v0.6c0,0.1,0,0.3-0.3,0.3c-0.4,0-1.3-0.1-3.7-0.1c-2.7,0-3.5,0.1-4.1,0.1
	c-0.3,0-0.3-0.1-0.3-0.3v-0.6c0-0.2,0-0.2,0.3-0.2h1.1c0.6,0,0.7-0.5,0.7-1.1c0.1-1.2,0.1-5.4,0.1-6.3v-0.3c0-0.3-0.3-0.3-0.6-0.3
	H203c-0.3,0-0.4,0.1-0.4,0.3v0.4c0,0.6,0.1,4.7,0.2,6.4c0,0.6,0.3,0.9,0.9,0.9h0.7c0.2,0,0.2,0.1,0.2,0.2v0.6c0,0.1,0,0.2-0.2,0.2
	c-0.5,0-1.4-0.1-3.6-0.1c-2.8,0-3.6,0.1-4.1,0.1c-0.2,0-0.3-0.1-0.3-0.3v-0.5c0-0.2,0-0.2,0.3-0.2h1.3c0.7,0,0.7-0.6,0.7-1.2
	c0-1.2,0.1-6.3,0.1-7L198.8,170.2z"/>
<path class="st0" d="M222.2,169.6c0-0.6-0.1-5.3-0.1-5.7c-0.1-0.6-0.3-0.9-0.9-0.9H220c-0.1,0-0.2-0.1-0.2-0.2v-0.8
	c0-0.1,0.1-0.2,0.2-0.2c0.3,0,1.6,0.1,4.2,0.1s3.5-0.1,3.9-0.1c0.1,0,0.2,0.1,0.2,0.2v0.7c0,0.1-0.1,0.2-0.2,0.2h-0.8
	c-0.6,0-1,0.2-1,0.7c0,0.3-0.1,6-0.1,6.4v2c0,0.3,0.1,6.3,0.1,6.5c0,0.8,0.4,0.9,0.9,0.9h1.1c0.1,0,0.2,0.1,0.2,0.2v0.7
	c0,0.1-0.1,0.2-0.2,0.1c-0.3,0-1.4-0.1-3.8-0.1c-2.7,0-3.9,0.1-4.1,0.1s-0.2-0.1-0.2-0.2v-0.7c0-0.1,0.1-0.2,0.2-0.2h0.8
	c0.5,0,1.1-0.1,1.2-0.7c0-0.4,0.1-6,0.1-7.4L222.2,169.6z"/>
<path class="st0" d="M237.1,172.3c0,0.4,0,6.1,0.1,7.1h1.5c1.2,0,2.4,0,3.8-0.1s3.2-3.3,3.6-4.2c0.1-0.1,0.1-0.2,0.3-0.1l0.5,0.2
	c0.1,0.1,0.1,0.1,0,0.2s-1.1,4.5-1.3,5.2c-0.7-0.1-8.2-0.1-10.6-0.1c-2.6,0-3.5,0.1-3.9,0.1c-0.2,0-0.2-0.1-0.2-0.2v-0.7
	c0-0.1,0-0.2,0.2-0.2h0.9c1,0,1.1-0.4,1.1-0.6c0-0.5,0.1-7,0.1-8.6v-1.5c0-1.7-0.1-4.4-0.1-4.9c0-0.7-0.2-0.9-0.8-0.9h-1
	c-0.2,0-0.2-0.1-0.2-0.3v-0.6c0-0.1,0-0.2,0.2-0.2s1.2,0.1,3.6,0.1c3.1,0,4.1-0.1,4.4-0.1s0.2,0.1,0.2,0.3v0.6
	c0,0.1-0.1,0.2-0.3,0.2h-1.2c-0.8,0-0.9,0.3-0.9,1c0,0.3-0.1,4.3-0.1,6.1L237.1,172.3z"/>
<path class="st0" d="M253.8,172.3c0,0.4,0,6.1,0.1,7.1h1.5c1.2,0,2.4,0,3.8-0.1s3.2-3.3,3.6-4.2c0.1-0.1,0.2-0.2,0.3-0.1l0.5,0.2
	c0.1,0.1,0.1,0.1,0,0.2s-1.1,4.5-1.3,5.2c-0.7-0.1-8.2-0.1-10.6-0.1c-2.6,0-3.5,0.1-3.9,0.1c-0.2,0-0.2-0.1-0.2-0.2v-0.7
	c0-0.1,0-0.2,0.2-0.2h0.8c1,0,1.1-0.4,1.1-0.6c0-0.5,0.1-7,0.1-8.6v-1.5c0-1.7-0.1-4.4-0.1-4.9c-0.1-0.7-0.2-0.9-0.8-0.9h-1
	c-0.2,0-0.2-0.1-0.2-0.3v-0.6c0-0.1,0-0.2,0.2-0.2s1.2,0.1,3.6,0.1c3.1,0,4.2-0.1,4.4-0.1c0.2,0,0.2,0.1,0.2,0.3v0.6
	c0,0.1,0,0.2-0.3,0.2h-1.2c-0.8,0-0.9,0.3-0.9,1c0,0.3-0.1,4.3-0.1,6.1L253.8,172.3z"/>
<path class="st0" d="M266.8,174.7c0.1,0,0.2,0,0.2,0.2c0.1,1,0.4,2.1,1,2.9c0.7,1.1,2,1.8,3.3,1.8c1.3,0,3.3-0.8,3.3-2.9
	s-0.4-2.8-3.8-4.1c-1.4-0.6-2.7-1.3-3.8-2.3c-0.9-1-1.4-2.3-1.3-3.7c-0.1-1.6,0.7-3,2-3.8c1.1-0.9,2.4-1.3,3.8-1.3
	c1.2,0,2.4,0.1,3.5,0.5c0.2,0.1,0.5,0.1,0.6-0.1l0.3-0.3c0.1-0.1,0.2-0.2,0.4-0.2c0.2,0,0.2,0.3,0.3,0.4l0.4,4.5
	c0,0.1,0,0.1-0.1,0.2c0,0,0,0,0,0l-0.6,0.2c-0.1,0.1-0.3,0-0.3-0.2c-0.4-1-0.9-1.9-1.6-2.7c-0.7-0.7-1.6-1.2-2.6-1.1
	c-1.4,0-2.6,1-2.8,2.4c-0.1,0.9,0.1,1.7,0.7,2.4c1,0.8,2.2,1.4,3.5,1.7c1.3,0.4,2.4,1.1,3.4,2c1.1,1,1.6,2.4,1.4,3.9
	c0.1,3.1-2.3,5.7-5.4,5.8c-0.1,0-0.2,0-0.4,0c-1.6,0.1-3.3-0.3-4.7-1.1c-0.2-0.1-0.4-0.2-0.6-0.3c-0.2,0-0.3,0.2-0.4,0.4
	s-0.3,0.3-0.5,0.3s-0.4-0.1-0.4-0.4l0.4-5c0-0.2,0.1-0.2,0.2-0.2L266.8,174.7z"/>
<path class="st0" d="M282.7,169.6c0-0.6-0.1-5.3-0.1-5.7c0-0.6-0.3-0.9-0.9-0.9h-1.2c-0.1,0-0.2-0.1-0.2-0.2v-0.8
	c0-0.1,0.1-0.2,0.2-0.2c0.3,0,1.6,0.1,4.2,0.1s3.5-0.1,3.9-0.1c0.1,0,0.2,0.1,0.2,0.2v0.7c0,0.1-0.1,0.2-0.2,0.2h-0.8
	c-0.6,0-1,0.2-1,0.7c0,0.3-0.1,6-0.1,6.4v2c0,0.3,0.1,6.3,0.1,6.5c0,0.8,0.4,0.9,0.9,0.9h1.1c0.1,0,0.2,0.1,0.2,0.2v0.7
	c0,0.1-0.1,0.2-0.2,0.1c-0.3,0-1.4-0.1-3.8-0.1c-2.7,0-3.9,0.1-4.2,0.1c-0.1,0-0.2-0.1-0.2-0.2v-0.7c0-0.1,0.1-0.2,0.2-0.2h0.8
	c0.5,0,1.1-0.1,1.2-0.7c0-0.4,0.1-6,0.1-7.4L282.7,169.6z"/>
<path class="st0" d="M293.6,168.5c0-0.7-0.1-4.4-0.1-4.8c-0.1-0.6-0.4-0.7-0.9-0.7h-1.3c-0.1,0-0.2,0-0.2-0.2v-0.8
	c0-0.1,0.1-0.1,0.2-0.1c0.3,0,1.5,0.1,4.1,0.1c0.7,0,3.3-0.1,3.9-0.1c3.5,0,6.4,0.3,8.9,2.4c1.9,1.6,3,4.1,2.9,6.6
	c0.1,2.5-0.8,5-2.6,6.9c-2.5,2.8-7,2.8-8.6,2.8c-0.4,0-3.5-0.1-4.9-0.1c-2.3,0-3.3,0.1-3.7,0.1c-0.1,0-0.2-0.1-0.2-0.2v-0.7
	c0-0.1,0.1-0.2,0.2-0.2h1.4c0.5,0,0.8-0.2,0.8-0.6s0.2-6.4,0.2-8.4L293.6,168.5z M297.6,171c0,0.3,0,4.8,0,6.4c0,0.5,0.1,1,0.4,1.4
	c0.6,0.5,1.3,0.7,2.1,0.6c1.9-0.1,3.7-1,4.9-2.5c1.2-1.8,1.9-3.9,1.9-6c0-2.1-0.8-4.1-2.1-5.7c-1.4-1.4-3.2-2.3-5.2-2.4
	c-0.5-0.1-1,0-1.5,0.2c-0.4,0.2-0.5,0.6-0.5,1.1c0,1.1,0,4.5,0,4.9L297.6,171z"/>
<path class="st0" d="M319.7,170.5c0.9,0,1.8,0,2.7-0.1c0.5-0.1,0.9-0.4,1.2-0.8c0.3-0.5,0.6-1,0.6-1.6c0-0.2,0.1-0.2,0.2-0.2
	l0.7,0.1c0.1,0,0.2,0.1,0.2,0.2c-0.1,0.9-0.1,1.8-0.1,2.7c0,1.2,0.1,2.4,0.2,3c0,0.2-0.1,0.2-0.2,0.2l-0.6,0.1c-0.1,0-0.2,0-0.2-0.2
	c-0.1-0.5-0.3-0.9-0.5-1.3c-0.3-0.5-0.9-0.8-1.4-0.9c-0.9-0.1-1.8-0.2-2.7-0.2v1.6c0,1.4,0.1,4,0.1,4.4c0,1.4,0.3,1.8,0.6,2
	c0.7,0.2,1.5,0.3,2.2,0.2c0.4,0,1.5,0,2.1-0.1c0.7-0.1,1.4-0.4,2-0.9c0.9-0.9,1.8-1.8,2.7-2.8c0.1-0.1,0.2-0.1,0.3-0.1l0.5,0.3
	c0.1,0.1,0.1,0.1,0.1,0.2l-1.2,3.9c-0.1,0.3-0.3,0.4-0.6,0.4l-2.4-0.1c-1.7,0-4.5,0-9,0c-1,0-1.7,0-2.2,0s-0.9,0.1-1.1,0.1
	s-0.2-0.1-0.2-0.3v-0.5c0-0.2,0.1-0.2,0.3-0.2h0.8c1.2,0,1.3-0.2,1.3-1.1v-8.8c0-2.2,0-5.4-0.1-5.6c-0.1-0.8-0.4-1-1.1-1h-1
	c-0.1,0-0.1-0.1-0.1-0.3v-0.6c0-0.1,0-0.2,0.2-0.2c0.6,0,1.5,0.1,3.9,0.1h9.2c0.4,0,0.9-0.1,1-0.1s0.2,0.1,0.2,0.1
	c0.1,0.4,1,3.9,1.1,4.2s0.1,0.2-0.1,0.3l-0.4,0.2c-0.1,0.1-0.3,0-0.3-0.1c0,0,0,0,0,0c-1-1-2-2-3.1-2.9c-0.6-0.4-1.3-0.6-2-0.7
	l-3.5-0.1L319.7,170.5z"/>
<path class="st0" d="M341.1,169.1c0-1,0-4.1-0.1-4.6c-0.1-1.5-0.5-1.6-1.4-1.6h-0.8c-0.2,0-0.2,0-0.2-0.2v-0.6c0-0.1,0-0.2,0.2-0.2
	c0.3,0,1.6,0.1,4.1,0.1c0.8,0,2.4-0.1,4.2-0.1c1.5-0.1,3.1,0.1,4.5,0.7c1.3,0.7,2.1,2.1,2,3.6c0,1.7-1,3.4-3.8,4.3l0,0
	c3.2,0.8,4.9,2.4,4.9,5.2c0,1.4-0.8,3.4-2,4c-1.1,0.6-2.9,1-6.1,1c-0.2,0-0.9,0-1.6-0.1s-1.6-0.1-2.1-0.1c-1.3,0-2.2,0-2.7,0l-1,0.1
	c-0.3,0-0.3-0.1-0.3-0.3v-0.6c0-0.2,0-0.2,0.3-0.2h0.9c0.8,0,0.9-0.3,1-1.1c0.1-0.6,0.1-4,0.1-6.2V169.1z M344.9,170.2
	c1.2,0.2,2.5-0.1,3.5-0.7c0.8-0.8,1.3-1.9,1.2-3.1c0.1-1-0.3-2-1.1-2.6c-0.7-0.5-1.6-0.9-2.5-0.9c-0.5,0-1.1,0-1.1,0.4
	s-0.1,2.8-0.1,5L344.9,170.2z M344.9,176.3c0,2.5,0.6,3.5,2,3.5c1.9,0,3.6-0.9,3.6-4.2c0-2.1-0.9-3.5-2.4-4.1
	c-1-0.4-2.1-0.5-3.2-0.4L344.9,176.3z"/>
<path class="st0" d="M363.1,172.3c0,0.4,0,6.1,0.1,7.1h1.5c1.2,0,2.4,0,3.8-0.1s3.2-3.3,3.6-4.2c0.1-0.1,0.2-0.2,0.3-0.1l0.5,0.2
	c0.1,0.1,0.1,0.1,0,0.2s-1.1,4.5-1.3,5.2c-0.7-0.1-8.2-0.1-10.6-0.1c-2.6,0-3.5,0.1-3.9,0.1s-0.2-0.1-0.2-0.2v-0.7
	c0-0.1,0-0.2,0.2-0.2h0.9c1,0,1.1-0.4,1.1-0.6c0-0.5,0.1-7,0.1-8.6v-1.5c0-1.7,0-4.4-0.1-4.9c-0.1-0.7-0.2-0.9-0.8-0.9h-1
	c-0.1,0-0.2-0.1-0.2-0.3v-0.6c0-0.1,0-0.2,0.2-0.2s1.2,0.1,3.6,0.1c3.1,0,4.2-0.1,4.4-0.1s0.2,0.1,0.2,0.3v0.6c0,0.1,0,0.2-0.3,0.2
	h-1.2c-0.8,0-0.9,0.3-0.9,1c0,0.3-0.1,4.3-0.1,6.1L363.1,172.3z"/>
<path class="st0" d="M383.4,162.1c0-0.1,0-0.2,0.1-0.2s1.4,0.1,3.2,0.1c2.4,0,3.1-0.1,3.3-0.1s0.2,0.1,0.2,0.2v0.7
	c0,0.1,0,0.2-0.2,0.2h-0.6c-0.9,0-1.6,0.6-1.9,1.4c-1,1.8-2.2,4.9-3.2,7.1c-0.6,1.4-3.6,8.4-4,9.2c-0.2,0.3-0.3,0.4-0.6,0.4
	s-0.4-0.3-0.6-0.7c-1-2.1-3.4-8.4-4.1-10.2s-2-5.6-2.4-6.3s-0.6-0.9-1.1-0.9h-0.7c-0.1,0-0.1-0.1-0.1-0.3v-0.6c0-0.1,0-0.2,0.2-0.2
	s1.1,0.1,4.3,0.1c2.7,0,3.9-0.1,4.1-0.1s0.3,0.1,0.3,0.2v0.6c0,0.1,0,0.2-0.2,0.2h-1.1c-0.6,0-1.1,0.3-1.1,0.6c0,0.3,0,0.6,0.1,0.9
	c0.2,0.9,1.2,4.1,1.8,5.6l2,5.8h0.1c0.8-1.8,2-5,2.4-6c0.5-1.3,1.3-3.5,1.7-4.6c0.2-0.5,0.3-0.9,0.3-1.4c-0.1-0.5-0.5-0.9-1.1-0.9
	h-0.8c-0.1,0-0.1-0.1-0.1-0.2L383.4,162.1z"/>
<path class="st0" d="M392.3,168.5c0-0.7-0.1-4.4-0.1-4.8c-0.1-0.6-0.4-0.7-0.9-0.7H390c-0.1,0-0.2,0-0.2-0.2v-0.8
	c0-0.1,0.1-0.1,0.2-0.1c0.3,0,1.5,0.1,4.1,0.1c0.7,0,3.3-0.1,3.9-0.1c3.5,0,6.4,0.3,8.9,2.4c1.9,1.6,3,4.1,2.9,6.6
	c0.1,2.5-0.8,5-2.6,6.9c-2.5,2.8-7,2.8-8.6,2.8c-0.4,0-3.5-0.1-4.9-0.1c-2.3,0-3.3,0.1-3.7,0.1c-0.1,0-0.2-0.1-0.2-0.2v-0.7
	c0-0.1,0.1-0.2,0.2-0.2h1.4c0.5,0,0.8-0.2,0.8-0.6s0.2-6.4,0.2-8.4L392.3,168.5z M396.2,171c0,0.3,0,4.8,0,6.4c0,0.5,0.1,1,0.4,1.4
	c0.6,0.5,1.3,0.7,2.1,0.6c1.9-0.1,3.7-1,4.9-2.6c1.2-1.8,1.9-3.9,1.9-6c0-2.1-0.8-4.1-2.1-5.7c-1.4-1.4-3.2-2.3-5.2-2.4
	c-0.5-0.1-1,0-1.5,0.2c-0.4,0.2-0.5,0.6-0.5,1.1c0,1.1,0,4.5,0,4.9L396.2,171z"/>
<path class="st0" d="M412.8,185.3c-0.2,0.1-0.4,0.1-0.6,0.1c-0.2,0-0.3-0.1-0.3-0.3s0.1-0.2,0.3-0.4c0.5-0.5,2-1.8,2-3.3
	c0-0.4-0.2-0.7-0.6-0.8c-0.8-0.2-1.4-0.9-1.4-1.7c-0.1-1.1,0.7-2.1,1.9-2.1c0,0,0,0,0,0c1.5,0,2.6,1.4,2.6,3.4
	C416.6,182.9,413.6,184.8,412.8,185.3z"/>
<path class="st0" d="M429.5,173.3c-0.6,1.6-1.1,3.3-1.5,5c0,0.6,0.2,1.2,1,1.2h1c0.3,0,0.3,0.1,0.3,0.2v0.6c0,0.2,0,0.3-0.2,0.3
	s-1.4-0.1-3.5-0.1c-1.9,0-2.5,0.1-2.9,0.1c-0.2,0-0.2-0.1-0.2-0.3v-0.5c0-0.2,0-0.2,0.2-0.2h0.7c0.7-0.1,1.4-0.5,1.8-1.1
	c0.4-0.6,2.2-5.1,3.1-7.4c0.2-0.5,2.3-6.1,2.6-6.9c0.1-0.3,0.1-0.6,0-0.9c-0.1-0.1-0.2-0.2-0.2-0.3s0.1-0.2,0.3-0.2
	c1.1-0.2,2.1-0.7,2.9-1.3c0.1-0.1,0.2-0.2,0.3-0.2s0.2,0.2,0.3,0.4c0.5,1.6,2.5,7.5,3,9.2c0.6,2,2.3,6.9,2.7,7.6
	c0.3,0.6,0.8,1.1,1.5,1.2h0.9c0.2,0,0.2,0.1,0.2,0.2v0.5c0,0.2,0,0.3-0.2,0.3c-0.5,0-1-0.1-4.4-0.1c-2.2,0-3.1,0.1-3.6,0.1
	c-0.3,0-0.3-0.1-0.3-0.3v-0.5c0-0.1,0-0.2,0.2-0.2h0.7c0.7,0,0.9-0.3,0.8-0.9c-0.2-0.9-1.3-4.3-1.6-5.2L429.5,173.3z M435,172.3
	l-2-6.9c-0.1-0.4-0.1-0.6-0.3-0.6s-0.2,0.1-0.3,0.3s-2.4,6.5-2.6,7.2H435z"/>
<path class="st0" d="M450.5,173.6c0,1.2,0,4.8,0.1,5.1c0,0.6,0.3,0.8,0.7,0.8h1.3c0.2,0,0.2,0.1,0.2,0.2v0.7c0,0.1,0,0.2-0.2,0.2
	s-1.2-0.1-4.2-0.1c-2.3,0-3.3,0.1-3.6,0.1s-0.2-0.1-0.2-0.2v-0.7c0-0.1,0-0.2,0.2-0.2h0.7c0.9,0,1.1-0.1,1.1-0.8
	c0-0.3,0.1-4.3,0.1-7.4v-3c0-1.7,0-4.5,0-4.8c0-0.5-0.3-0.6-0.8-0.6h-1.2c-0.1,0-0.2-0.1-0.2-0.2v-0.7c0-0.1,0-0.2,0.2-0.2
	c0.3,0,1.2,0.1,4,0.1c0.5,0,2-0.1,2.9-0.1c3.2,0,4.8,0.3,6.3,1.4c1.2,1,1.9,2.4,1.9,4c0,3.1-2.5,5.3-6.9,5.3c-0.8,0-1.4,0-2.1-0.1
	L450.5,173.6z M450.5,171.6c0.5,0.1,1.1,0.2,1.6,0.2c1.1-0.2,2.1-0.8,2.7-1.8c0.5-0.8,0.7-1.8,0.6-2.8c0-3.6-2.6-4.4-3.7-4.4
	c-0.4,0-0.8,0-1.2,0.1V171.6z"/>
<path class="st0" d="M468.9,163.2H468c-1.2,0-2.4,0.1-3.5,0.4c-0.9,0.9-1.7,1.9-2.4,2.9c-0.1,0.1-0.2,0.2-0.3,0.2l-0.6-0.2
	c-0.1,0-0.1-0.1-0.1-0.2c0.3-1.1,1.1-4.6,1.2-5.1c0.1-0.3,0.2-0.4,0.4-0.4s0.3,0.1,0.5,0.4c0.4,0.5,1.1,0.7,1.7,0.6
	c1.4,0.1,2.5,0.2,5.2,0.2h1.5c2.9,0,4-0.1,5.1-0.2c0.7,0,1.3-0.3,1.9-0.6c0.3-0.3,0.4-0.4,0.6-0.4s0.3,0.1,0.3,0.4l0.8,5.2
	c0,0.1,0,0.2-0.1,0.2l-0.5,0.2c-0.1,0-0.2-0.1-0.3-0.2c-0.6-1-1.4-2-2.2-2.9c-1.2-0.4-2.4-0.5-3.6-0.5h-0.9v7.2c0,0.4,0,7.7,0,8.1
	c0,0.7,0.3,1,0.9,1h1.2c0.2,0,0.3,0.1,0.3,0.3v0.6c0,0.1,0,0.2-0.3,0.2s-1.1-0.1-4-0.1s-3.9,0.1-4.2,0.1c-0.2,0-0.2-0.1-0.2-0.3
	v-0.5c0-0.2,0-0.3,0.2-0.3h1.4c0.5,0,0.8-0.3,0.9-0.7c0,0,0,0,0,0c0-0.6,0-8.6,0-9.1L468.9,163.2z"/>
<path class="st0" d="M491.4,169c1.3,0,2.6,0.2,3.9,0.6c2.1,0.7,3.5,2.7,3.4,4.9c0,3.4-3.2,6.3-7.3,6.3c-1.8,0-3.2-0.7-3.2-1.5
	c0-0.6,0.3-0.9,0.7-0.9c0.6,0.1,1.1,0.3,1.5,0.6c0.5,0.3,1.1,0.4,1.7,0.4c1.8,0.1,3.4-1.3,3.5-3.2c0-0.1,0-0.3,0-0.4
	c0.1-1.4-0.7-2.6-1.9-3.3c-1.1-0.5-2.3-0.7-3.5-0.7c-0.3,0-0.5-0.1-0.4-0.4l1-8.1c0-0.3,0.1-0.4,0.4-0.4h5.8c0.9,0,1.1-0.4,1.6-1.3
	c0.1-0.2,0.2-0.2,0.5-0.1s0.3,0.1,0.2,0.4l-1,3.5c-0.1,0.4-0.3,0.6-1.1,0.6h-5.5L491.4,169z"/>
<path class="st0" d="M506.1,167.5c0-0.6-0.1-1.2-0.6-1.2c-0.4,0-0.8,0.1-1.2,0.2l-1.3,0.4c-0.1,0-0.2,0-0.3-0.1l-0.2-0.5
	c0-0.1,0-0.2,0.1-0.3l6.4-3.1c0.1-0.1,0.3-0.1,0.5-0.2c0.2,0,0.2,0.2,0.2,0.4s-0.1,4.3-0.1,7.7v1.1c0,1.4,0,5.9,0,6.1
	c0,1.4,0.1,1.5,1.4,1.5h0.9c0.2,0,0.3,0.1,0.3,0.2v0.7c0,0.1-0.1,0.2-0.3,0.2l-4.1-0.1c-0.8,0-4.5,0.1-4.6,0.1s-0.2-0.1-0.2-0.2
	v-0.7c0-0.1,0.2-0.2,0.4-0.2h0.7c1.4,0,1.8-0.1,1.9-1.4c0-1.1,0-4,0-4.9V167.5z"/>
<path class="st0" d="M516.6,180.5c-0.4,0-0.9,0-1.3,0.1l-0.8,0.1c-0.1,0-0.2,0-0.3-0.2c-0.1-0.2,0-0.5,0.2-0.6
	c1.8-1.6,3.5-3.4,5.1-5.4c1.6-2,2.7-4.1,2.6-6.4c-0.1-1.9-1.3-3.2-3-3.2c-1.3,0.1-2.4,0.9-3.1,2c-0.1,0.2-0.2,0.2-0.3,0.2l-0.4-0.2
	c-0.1-0.1-0.1-0.1,0-0.4c0.9-2.4,3.1-3.9,5.6-3.9c2.7-0.1,4.9,2,5,4.6c0,0,0,0.1,0,0.1c0,2.2-1,4.4-3.9,7.1
	c-1.5,1.4-2.7,2.4-3.5,3.1v0.1h4.5c1.3,0,2.5-0.8,3-2c0.1-0.2,0.2-0.3,0.5-0.2s0.4,0.2,0.3,0.4l-1.8,4.8c-0.1,0.2-0.2,0.3-0.4,0.3
	s-0.2,0-0.3-0.3s-0.7-0.4-1.7-0.4L516.6,180.5z"/>
<path class="st0" d="M529.5,185.3c-0.2,0.1-0.4,0.1-0.6,0.1c-0.2,0-0.3-0.1-0.3-0.3s0.1-0.2,0.3-0.4c0.5-0.5,2-1.8,2-3.3
	c0-0.4-0.2-0.7-0.6-0.8c-0.8-0.2-1.4-0.9-1.4-1.7c-0.1-1.1,0.7-2.1,1.9-2.1c0,0,0,0,0,0c1.5,0,2.6,1.4,2.6,3.4
	C533.3,182.9,530.3,184.8,529.5,185.3z"/>
<path class="st0" d="M165.5,199.9c0-0.7-0.1-4.4-0.1-4.8c-0.1-0.6-0.4-0.7-0.9-0.7h-1.3c-0.1,0-0.2,0-0.2-0.2v-0.8
	c0-0.1,0.1-0.1,0.2-0.1c0.3,0,1.5,0.1,4.1,0.1c0.7,0,3.3-0.1,3.9-0.1c3.6,0,6.4,0.3,8.9,2.4c1.9,1.6,3,4.1,2.9,6.6
	c0.1,2.6-0.8,5-2.6,6.9c-2.5,2.7-7,2.8-8.6,2.8c-0.4,0-3.5-0.1-4.9-0.1c-2.3,0-3.3,0.1-3.7,0.1c-0.1,0-0.2,0-0.2-0.2V211
	c0-0.1,0.1-0.1,0.2-0.1h1.4c0.5,0,0.8-0.2,0.8-0.6s0.2-6.4,0.2-8.4V199.9z M169.4,202.4c0,0.3,0,4.8,0.1,6.4c0,0.5,0.1,1,0.4,1.4
	c0.3,0.5,1.2,0.6,2.1,0.6c1.9-0.1,3.7-1,4.9-2.6c1.2-1.8,1.9-3.9,1.9-6c0-2.1-0.8-4.1-2.1-5.7c-1.4-1.4-3.2-2.3-5.2-2.4
	c-0.5-0.1-1,0-1.5,0.2c-0.4,0.2-0.5,0.6-0.5,1.1c0,1.1,0,4.5,0,4.9L169.4,202.4z"/>
<path class="st0" d="M188.6,204.7c-0.6,1.6-1.1,3.3-1.5,5c0,0.6,0.2,1.2,1,1.2h0.9c0.3,0,0.3,0.1,0.3,0.2v0.6c0,0.2,0,0.3-0.2,0.3
	s-1.4-0.1-3.6-0.1c-1.9,0-2.5,0.1-2.9,0.1c-0.2,0-0.2-0.2-0.2-0.3v-0.5c0-0.2,0-0.2,0.2-0.2h0.7c0.7-0.1,1.4-0.5,1.8-1.1
	c0.4-0.6,2.2-5.1,3.1-7.4c0.2-0.5,2.3-6.1,2.6-6.9c0.1-0.3,0.1-0.6,0-0.9c-0.1-0.1-0.2-0.2-0.2-0.3c0-0.1,0.1-0.2,0.3-0.2
	c1.1-0.2,2.1-0.7,2.9-1.3c0.1-0.1,0.2-0.2,0.3-0.2s0.2,0.1,0.3,0.4c0.5,1.6,2.5,7.5,3,9.2c0.6,2,2.3,6.9,2.7,7.6
	c0.3,0.6,0.8,1.1,1.5,1.2h0.9c0.2,0,0.2,0.1,0.2,0.2v0.5c0,0.2,0,0.3-0.2,0.3c-0.5,0-1.1-0.1-4.4-0.1c-2.2,0-3.1,0.1-3.6,0.1
	c-0.3,0-0.3-0.2-0.3-0.3v-0.5c0-0.1,0-0.2,0.2-0.2h0.7c0.7,0,0.9-0.3,0.8-0.9c-0.2-0.9-1.3-4.3-1.6-5.2L188.6,204.7z M194.1,203.7
	l-2-6.9c-0.1-0.4-0.1-0.6-0.3-0.6s-0.2,0.1-0.3,0.3s-2.4,6.5-2.6,7.2H194.1z"/>
<path class="st0" d="M209.6,203.7c0,0.4,0,6.1,0.1,7.1h1.5c1.2,0,2.4,0,3.8-0.1s3.2-3.3,3.6-4.2c0.1-0.2,0.1-0.2,0.3-0.2l0.5,0.2
	c0.1,0.1,0.1,0.1,0.1,0.2s-1.1,4.5-1.3,5.2c-0.7,0-8.2-0.1-10.6-0.1c-2.6,0-3.5,0.1-3.9,0.1c-0.2,0-0.2,0-0.2-0.2v-0.6
	c0-0.1,0-0.2,0.2-0.2h0.8c1,0,1.1-0.4,1.1-0.7c0-0.5,0.1-7,0.1-8.6v-1.5c0-1.7,0-4.4-0.1-4.9c-0.1-0.7-0.2-0.9-0.8-0.9h-1
	c-0.2,0-0.2-0.1-0.2-0.3v-0.6c0-0.1,0-0.2,0.2-0.2s1.2,0.1,3.6,0.1c3.1,0,4.1-0.1,4.4-0.1s0.2,0.1,0.2,0.3v0.6
	c0,0.1-0.1,0.2-0.3,0.2h-1.2c-0.8,0-0.9,0.3-0.9,1c0,0.3-0.1,4.3-0.1,6.1L209.6,203.7z"/>
<path class="st0" d="M227.7,207c0,1,0.1,2.7,0.1,3c0.1,0.8,0.5,0.9,0.9,0.9h0.8c0.2,0,0.2,0.1,0.2,0.2v0.6c0,0.2,0,0.2-0.2,0.2
	s-1.3-0.1-3.8-0.1c-2.7,0-3.5,0.1-3.8,0.1c-0.1,0-0.2-0.1-0.2-0.3v-0.6c0-0.1,0-0.2,0.2-0.2h0.9c0.7,0,0.9-0.3,0.9-0.6
	s0.1-2.4,0.1-4.9v-1.1c-0.4-0.8-4.6-8.4-5.2-9.3c-0.4-0.4-0.8-0.6-1.4-0.6h-0.4c-0.2,0-0.2-0.1-0.2-0.2v-0.7c0-0.1,0-0.1,0.2-0.1
	s1.5,0.1,3.8,0.1c2.7,0,3.6-0.1,3.9-0.1s0.2,0.1,0.2,0.2v0.6c0,0.1,0,0.2-0.2,0.2h-0.6c-0.3,0-0.6,0.3-0.6,0.6c0,0,0,0,0,0.1
	c0,0.5,3.1,6.4,3.8,8c0.8-1.4,3.9-6.9,3.9-7.8c-0.1-0.5-0.5-0.9-1-0.9h-0.7c-0.1,0-0.2-0.1-0.2-0.2v-0.7c0-0.1,0-0.1,0.2-0.1
	s1.3,0.1,3.3,0.1s2.4-0.1,2.6-0.1s0.2,0.1,0.2,0.2v0.6c0,0.2,0,0.2-0.2,0.2h-0.5c-0.6,0-1.1,0.2-1.5,0.6c-0.3,0.4-4.4,7.1-5.5,9.1
	L227.7,207z"/>
<path class="st0" d="M243.4,209.9c-1.8-1.9-2.9-4.4-2.9-7c-0.1-2.6,0.9-5.2,2.7-7.1c1.8-1.9,4.3-2.9,6.9-2.8c1.8,0,3.6,0.3,5.2,1.1
	c0.4,0.2,0.5,0.2,0.6,0l0.2-0.6c0-0.2,0.1-0.2,0.5-0.2s0.4,0.1,0.4,0.4s0.5,4.9,0.6,5.7c0,0.2,0,0.3-0.1,0.3l-0.6,0.1
	c-0.1,0.1-0.2-0.1-0.3-0.3c-0.4-1.3-1.1-2.5-2.1-3.5c-1.2-1.3-2.8-2-4.5-2c-3.8,0-5.4,3.5-5.4,7.4c0,1.6,0.5,4.9,2.3,6.8
	c1,1.2,2.5,2,4.1,2c2.4,0.1,4.7-0.9,6.2-2.8c0.1-0.2,0.3-0.3,0.4-0.2l0.5,0.4c0.1,0.1,0.1,0.1,0,0.3c-1.7,2.6-4.6,4.3-7.7,4.3
	C246.9,212.3,245.1,211.3,243.4,209.9z"/>
<path class="st0" d="M262.4,200.9c0-0.6-0.1-5.3-0.1-5.7c0-0.6-0.3-0.9-0.9-0.9h-1.2c-0.1,0-0.2-0.1-0.2-0.2v-0.8
	c0-0.1,0.1-0.1,0.2-0.1c0.3,0,1.6,0.1,4.2,0.1s3.5-0.1,3.9-0.1c0.1,0,0.2,0.1,0.2,0.2v0.7c0,0.1-0.1,0.2-0.2,0.2h-0.8
	c-0.6,0-1,0.2-1,0.7c0,0.3-0.1,6-0.1,6.4v2c0,0.3,0.1,6.3,0.1,6.5c0,0.8,0.4,0.9,0.9,0.9h1.1c0.1,0,0.2,0.1,0.2,0.2v0.7
	c0,0.1-0.1,0.2-0.2,0.2s-1.4-0.1-3.8-0.1c-2.7,0-3.9,0.1-4.2,0.1c-0.1,0-0.2,0-0.2-0.2V211c0-0.1,0.1-0.1,0.2-0.1h0.8
	c0.5,0,1.1-0.1,1.2-0.7c0-0.4,0.1-6,0.1-7.4L262.4,200.9z"/>
<path class="st0" d="M277.5,194.6h-0.9c-1.2,0-2.4,0.1-3.5,0.4c-0.9,0.9-1.7,1.9-2.4,3c-0.1,0.1-0.2,0.2-0.3,0.2l-0.6-0.2
	c-0.1,0-0.1-0.1-0.1-0.2c0.3-1.1,1.1-4.6,1.2-5.1c0.1-0.3,0.2-0.4,0.4-0.4s0.3,0.1,0.5,0.4c0.4,0.5,1.1,0.7,1.7,0.7
	c1.4,0.1,2.5,0.1,5.2,0.1h1.5c2.9,0,4-0.1,5.1-0.1c0.7,0,1.3-0.3,1.9-0.7c0.3-0.3,0.4-0.4,0.6-0.4s0.3,0.1,0.3,0.4l0.8,5.2
	c0,0.1,0,0.2-0.1,0.2l-0.5,0.2c-0.1,0-0.2-0.1-0.3-0.2c-0.6-1.1-1.4-2-2.2-2.9c-1.2-0.3-2.4-0.5-3.6-0.5h-0.9v7.2c0,0.4,0,7.7,0,8.1
	c0,0.6,0.3,1,0.9,1h1.2c0.2,0,0.3,0.1,0.3,0.3v0.6c0,0.1,0,0.2-0.3,0.2s-1.1-0.1-4-0.1s-3.9,0.1-4.2,0.1c-0.2,0-0.2-0.1-0.2-0.3
	v-0.5c0-0.2,0-0.3,0.2-0.3h1.3c0.5,0,0.9-0.3,0.9-0.8c0,0,0,0,0,0c0-0.6,0-8.6,0-9.1L277.5,194.6z"/>
<path class="st0" d="M300.3,207c0,1,0.1,2.7,0.1,3c0.1,0.8,0.5,0.9,0.9,0.9h0.8c0.2,0,0.2,0.1,0.2,0.2v0.6c0,0.2,0,0.2-0.2,0.2
	s-1.3-0.1-3.8-0.1c-2.7,0-3.5,0.1-3.8,0.1c-0.1,0-0.2-0.1-0.2-0.3v-0.6c0-0.1,0-0.2,0.2-0.2h0.9c0.7,0,0.9-0.3,0.9-0.6
	s0.1-2.4,0.1-4.9v-1.1c-0.4-0.8-4.6-8.4-5.2-9.3c-0.4-0.4-0.8-0.6-1.4-0.6h-0.4c-0.2,0-0.2-0.1-0.2-0.2v-0.7c0-0.1,0-0.1,0.2-0.1
	s1.5,0.1,3.8,0.1c2.7,0,3.6-0.1,3.9-0.1s0.2,0.1,0.2,0.2v0.6c0,0.1,0,0.2-0.2,0.2h-0.6c-0.3,0-0.6,0.3-0.6,0.6c0,0,0,0,0,0.1
	c0,0.5,3.1,6.4,3.8,8c0.8-1.4,3.9-6.9,3.9-7.8c-0.1-0.5-0.5-0.9-1-0.9h-0.7c-0.1,0-0.2-0.1-0.2-0.2v-0.7c0-0.1,0-0.1,0.2-0.1
	s1.3,0.1,3.3,0.1s2.4-0.1,2.6-0.1s0.2,0.1,0.2,0.2v0.6c0,0.2,0,0.2-0.2,0.2h-0.5c-0.6,0-1.1,0.2-1.5,0.6c-0.3,0.4-4.4,7.1-5.5,9.1
	L300.3,207z"/>
<path class="st0" d="M307.7,216.6c-0.2,0.1-0.4,0.1-0.6,0.1c-0.2,0-0.3-0.1-0.3-0.3s0.1-0.2,0.3-0.4c0.5-0.5,2-1.8,2-3.3
	c0-0.4-0.2-0.7-0.6-0.8c-0.8-0.2-1.4-0.9-1.4-1.7c-0.1-1.1,0.7-2.1,1.8-2.1c0,0,0,0,0,0c1.5,0,2.6,1.4,2.6,3.4
	C311.5,214.3,308.5,216.2,307.7,216.6z"/>
<path class="st0" d="M321.5,209.9c-1.8-1.9-2.9-4.4-2.9-7c-0.1-2.6,0.9-5.2,2.7-7.1c1.8-1.9,4.3-2.9,6.9-2.8c1.8,0,3.6,0.3,5.3,1.1
	c0.4,0.2,0.5,0.2,0.5,0l0.2-0.6c0-0.2,0.1-0.2,0.5-0.2s0.5,0.1,0.5,0.4s0.5,4.9,0.6,5.7c0,0.2,0,0.3-0.1,0.3l-0.6,0.1
	c-0.1,0.1-0.2-0.1-0.3-0.3c-0.4-1.3-1.1-2.5-2.1-3.5c-1.2-1.3-2.8-2-4.5-2c-3.8,0-5.4,3.5-5.4,7.4c0,1.6,0.5,4.9,2.3,6.8
	c1,1.2,2.5,2,4.1,2c2.4,0.1,4.7-0.9,6.2-2.8c0.1-0.2,0.3-0.3,0.4-0.2l0.4,0.4c0.1,0.1,0.1,0.1,0,0.3c-1.7,2.6-4.6,4.3-7.7,4.3
	C325,212.3,323.2,211.3,321.5,209.9z"/>
<path class="st0" d="M341.9,204.7c-0.6,1.6-1.1,3.3-1.5,5c0,0.6,0.2,1.2,1,1.2h0.9c0.3,0,0.3,0.1,0.3,0.2v0.6c0,0.2,0,0.3-0.2,0.3
	s-1.4-0.1-3.5-0.1c-1.9,0-2.5,0.1-2.9,0.1c-0.2,0-0.2-0.2-0.2-0.3v-0.5c0-0.2,0-0.2,0.2-0.2h0.7c0.7-0.1,1.4-0.5,1.8-1.1
	c0.4-0.6,2.2-5.1,3.1-7.4c0.2-0.5,2.3-6.1,2.6-6.9c0.1-0.3,0.1-0.6,0-0.9c-0.1-0.1-0.2-0.2-0.2-0.3c0-0.1,0.1-0.2,0.3-0.2
	c1.1-0.2,2-0.7,2.9-1.3c0.1-0.1,0.2-0.2,0.3-0.2s0.2,0.1,0.3,0.4c0.5,1.6,2.5,7.5,3,9.2c0.6,2,2.3,6.9,2.7,7.6
	c0.3,0.6,0.8,1.1,1.5,1.2h0.9c0.2,0,0.2,0.1,0.2,0.2v0.5c0,0.2,0,0.3-0.2,0.3c-0.5,0-1-0.1-4.4-0.1c-2.2,0-3.1,0.1-3.6,0.1
	c-0.3,0-0.3-0.2-0.3-0.3v-0.5c0-0.1,0-0.2,0.1-0.2h0.7c0.7,0,0.9-0.3,0.8-0.9c-0.2-0.9-1.3-4.3-1.6-5.2L341.9,204.7z M347.4,203.7
	l-2-6.9c-0.1-0.4-0.2-0.6-0.3-0.6s-0.2,0.1-0.3,0.3s-2.4,6.5-2.6,7.2H347.4z"/>
<path class="st0" d="M357.8,216.6c-0.2,0.1-0.4,0.1-0.6,0.1c-0.2,0-0.3-0.1-0.3-0.3s0.1-0.2,0.3-0.4c0.5-0.5,2-1.8,2-3.3
	c0-0.4-0.2-0.7-0.6-0.8c-0.8-0.2-1.4-0.9-1.4-1.7c-0.1-1.1,0.7-2.1,1.8-2.1c0,0,0,0,0,0c1.5,0,2.6,1.4,2.6,3.4
	C361.6,214.3,358.6,216.2,357.8,216.6z"/>
<path class="st0" d="M378.4,196c0.9,1.2,1.4,2.6,1.5,4.1c0,3.7-1.5,7.3-4.2,9.8c-1.2,1.1-2.6,1.9-4.2,2.3c-0.3,0.1-0.5,0.1-0.8,0.1
	c-0.2,0-0.4-0.1-0.4-0.4c0-0.2,0.2-0.4,0.3-0.4c2.2-0.8,4.7-3.7,5.2-7.3h-0.2c-0.8,0.6-1.9,0.8-2.9,0.8c-2.4,0-4.4-2.1-4.3-4.5
	c0-0.1,0-0.1,0-0.2c0-1.8,0.7-3.5,1.9-4.8c1-1,2.4-1.5,3.8-1.5C376.1,194,377.3,194.6,378.4,196z M371.7,198.9
	c0,2.6,1.1,4.5,2.5,4.5c0.5,0,1.1-0.2,1.5-0.5c0.4-0.5,0.4-2.1,0.4-3.3c0-2.4-0.4-4.6-2-4.6S371.7,196.5,371.7,198.9L371.7,198.9z"
	/>
<path class="st0" d="M388.4,211.9c-0.2,0-0.3,0-0.3-0.3v-3.8h-6.7c-0.5,0-0.8-0.2-0.8-0.5c0-0.4,0.2-0.7,0.5-1l9.4-11.8
	c0.1-0.2,0.4-0.4,0.6-0.5c0.3,0,0.4,0.2,0.4,0.9v10.5h1.6c0.2,0,0.3,0.1,0.3,0.2v1.9c0,0.2-0.1,0.3-0.4,0.3h-1.5v3.7
	c0,0.3,0,0.4-0.4,0.4L388.4,211.9z M388.1,205.4v-5.8c0-0.4-0.3-0.4-0.5-0.1l-4.2,5.3c-0.2,0.3-0.2,0.5,0.2,0.5H388.1z"/>
<path class="st0" d="M406,203c0,6-1.9,9.3-5.7,9.3c-4.6,0-5.9-5.1-5.9-8.4c0-5.8,2-9.9,5.9-9.9C405.1,194,406,199,406,203z
	 M398.8,196.8c-0.5,2.2-0.7,4.5-0.7,6.8c-0.1,1.9,0.1,3.7,0.4,5.6c0.4,1.5,0.9,2,1.9,2s1.4-0.5,1.7-1.7c0.3-2.3,0.4-4.7,0.3-7.1
	c0-4.4-0.5-7.3-1.9-7.3C399.5,195.1,399,195.8,398.8,196.8L398.8,196.8z"/>
<path class="st0" d="M411.9,198.9c0-0.6-0.1-1.2-0.6-1.2c-0.4,0-0.8,0.1-1.2,0.2l-1.3,0.4c-0.1,0-0.2,0-0.3-0.1l-0.2-0.5
	c-0.1-0.1,0-0.2,0.1-0.3l6.4-3.1c0.1-0.1,0.3-0.1,0.5-0.2c0.2,0,0.2,0.2,0.2,0.4s-0.1,4.3-0.1,7.7v1.1c0,1.4,0,5.9,0,6.1
	c0,1.4,0.1,1.6,1.4,1.6h0.9c0.2,0,0.3,0.1,0.3,0.2v0.7c0,0.1-0.1,0.2-0.3,0.2l-4.2-0.1c-0.8,0-4.4,0.1-4.6,0.1s-0.2,0-0.2-0.2v-0.7
	c0-0.2,0.2-0.2,0.4-0.2h0.7c1.4,0,1.8-0.1,1.9-1.4c0-1.1,0-4,0-4.9L411.9,198.9z"/>
<path class="st0" d="M427.6,211.9c-0.2,0-0.3,0-0.3-0.3v-3.8h-6.7c-0.5,0-0.8-0.2-0.8-0.5c0-0.4,0.2-0.7,0.5-1l9.4-11.8
	c0.1-0.2,0.4-0.4,0.7-0.4c0.3,0,0.4,0.2,0.4,0.9v10.5h1.6c0.2,0,0.3,0.1,0.3,0.2v1.9c0,0.2-0.1,0.3-0.4,0.3h-1.5v3.7
	c0,0.3-0.1,0.4-0.4,0.4L427.6,211.9z M427.3,205.4v-5.8c0-0.4-0.3-0.4-0.5-0.1l-4.2,5.3c-0.2,0.3-0.2,0.5,0.2,0.5H427.3z"/>
</svg>
