<?xml version="1.0" encoding="utf-8"?>
<!-- Generator: Adobe Illustrator 22.1.0, SVG Export Plug-In . SVG Version: 6.00 Build 0)  -->
<svg version="1.1" id="Layer_1" xmlns="http://www.w3.org/2000/svg" xmlns:xlink="http://www.w3.org/1999/xlink" x="0px" y="0px"
	 viewBox="0 0 128 91.8" style="enable-background:new 0 0 128 91.8;" xml:space="preserve">
<style type="text/css">
	.st0{fill:#95272B;}
</style>
<g>
	<path class="st0" d="M40.3,27.5C40,29,39.5,29.8,38.9,30s-1.4-0.1-2.2-1c-0.5-0.5-0.9-1.1-1.3-1.8c-0.4-0.7-0.8-1.5-1.3-2.3
		c-0.5-1.1-0.6-1.9-0.2-2.2c-0.7,0.2-1.5,0.4-2.4,0.5c-0.9,0.2-1.8,0.3-2.9,0.6l-0.2,4.5c2.1-0.2,3.6,0,4.6,0.5s1.6,1.2,1.8,2.1
		c0.4,1.8,0.3,2.9-0.3,3.4s-1.4,0.4-2.5-0.2c-0.6-0.3-1.2-0.7-1.7-1.1c-0.6-0.4-1.2-1-1.9-1.7c0,1.2-0.1,2.4-0.1,3.7
		c0,1.2,0,2.4,0,3.5s0,2.2,0,3.1c0,1,0,1.8,0,2.5c0,1.4,0,2.7-0.1,3.7s-0.4,2.1-0.8,3.3c-0.5,1.5-1.2,2.2-2.1,2.2s-1.9-0.8-2.9-2.5
		c-0.4-0.6-0.7-1.2-0.9-1.7c-0.2-0.5-0.3-1-0.3-1.5s0.1-1,0.3-1.6s0.5-1.3,0.8-2.2c0.5-1.3,1-5,1.5-11c-1.4,2.2-3.1,4-5,5.4
		s-4.1,2.6-6.6,3.6c-1.8,0.7-2.7,0.9-2.9,0.5C9,42,9.7,41.2,11.2,40c1-0.8,2.1-1.8,3.2-3s2.2-2.4,3.3-3.7c1.1-1.3,2.1-2.7,3-4.1
		s1.7-2.8,2.4-4.1c-1.5,0.4-2.9,0.8-4.3,1.3c-1.4,0.4-2.4,0.8-3,1c-0.5,0.2-0.9,0.3-1.3,0.4c-0.4,0.1-0.7,0-1.1-0.1
		c-0.4-0.1-0.7-0.3-1.1-0.5c-0.4-0.2-0.9-0.6-1.5-1c-1.4-0.9-2-1.6-1.8-2.1s1.3-0.7,3.3-0.5c1.3,0.1,3-0.1,5.2-0.4
		c2.2-0.4,4.4-0.9,6.7-1.5c0.1-2.4,0-4.3-0.4-5.9c-1.3,0.4-2.8,0.7-4.5,1.1c-1.1,0.2-2,0.3-2.5,0.2S16,16.8,16,16.6
		c0-0.2,0.2-0.5,0.7-0.9s1.2-0.8,2.2-1.2c3-1.3,5.2-2.6,6.7-3.9s2.2-2.4,2.1-3.2c0-0.5,0-0.9,0.2-1.2c0.2-0.3,0.5-0.5,0.9-0.6
		s0.9,0,1.7,0.3c0.7,0.2,1.6,0.7,2.7,1.5c2,1.3,3,2.3,3.1,2.9c0,0.6-0.7,1.1-2.3,1.5c-0.6,0.2-1.3,0.4-2.1,0.7
		c-0.8,0.3-1.9,0.7-3.2,1.3c0.9,0.5,1.5,0.8,1.5,1.2c0.1,0.3-0.1,0.8-0.5,1.3c-0.3,0.4-0.5,0.9-0.7,1.7c-0.2,0.7-0.3,1.5-0.3,2.3
		c0.6-0.2,1.1-0.3,1.5-0.5c0.4-0.1,0.8-0.2,1.3-0.2c0.4,0,0.9,0,1.3,0.1c0.5,0.1,1,0.2,1.5,0.4c1,0.3,1.4,0.7,1.5,1.2
		c0,0.5-0.4,0.9-1.4,1.3c0.5,0,1.1,0.1,1.9,0.3c1.7,0.5,2.9,1.2,3.5,2C40.3,25.6,40.5,26.5,40.3,27.5z M61.8,45.9
		c1.9,0.9,2.9,1.6,2.8,2.2c-0.1,0.6-1.4,1-4,1.2c-2,0.2-3.6,0.2-4.7,0.2s-2.1-0.1-2.8-0.4c-0.7-0.3-1.3-0.7-1.7-1.2
		c-0.4-0.6-0.9-1.3-1.4-2.3s-1-1.8-1.4-2.6s-0.8-1.6-1.2-2.3s-0.8-1.5-1.2-2.3s-0.8-1.7-1.3-2.6c-1,3.6-2.6,6.5-4.7,8.8
		c-2.1,2.2-4.9,4.1-8.4,5.5c-2.1,0.9-3.2,1.1-3.4,0.6c-0.2-0.5,0.6-1.4,2.4-2.7c3.6-2.7,6.3-5.7,7.9-9s2.6-7.1,2.9-11.3
		c0.2-3.8,0.4-6.9,0.5-9.3C42,15.9,42,14,42,12.6c-0.1-1.4-0.2-2.5-0.5-3.3c-0.3-0.7-0.6-1.4-1-2c-0.5-0.6-0.8-1.2-1-1.7
		s-0.1-0.9,0.2-1.2C40,4.1,40.6,4,41.4,4.1s2,0.4,3.5,1c1.1,0.5,2,0.8,2.6,1.1c0.6,0.3,1,0.6,1.3,0.9c0.2,0.3,0.3,0.7,0.2,1
		c-0.1,0.4-0.3,0.8-0.5,1.4c-0.3,0.5-0.5,1.1-0.6,1.6s-0.3,1.2-0.4,1.9c-0.1,0.7-0.2,1.5-0.3,2.5c-0.1,0.9-0.1,2.1-0.1,3.4
		c-0.1,1.7-0.2,3.6-0.4,5.7s-0.5,4.3-0.8,6.7c1.7,2.3,3.2,4.2,4.7,5.8s2.9,3,4.2,4.1s2.6,2.1,3.7,2.8C59.6,44.8,60.7,45.4,61.8,45.9
		z M58.4,20.7c-0.5,0.2-0.8,0.3-1.1,0.4s-0.6,0.2-0.9,0.4c-0.3,0.1-0.5,0.3-0.8,0.4s-0.5,0.3-0.9,0.5c-0.8,0.5-1.6,0.9-2.3,1.3
		s-1.6,0.7-2.5,1.1c-1.6,0.6-2.4,0.7-2.5,0.4c-0.1-0.4,0.4-1.1,1.5-2.3c1.6-1.7,2.7-3.1,3.1-4c0.5-1,0.7-1.7,0.5-2.3
		c-0.2-0.6-0.2-1.2,0-1.6c0.2-0.4,0.5-0.7,0.9-0.7c0.5-0.1,1.1,0,1.8,0.4c0.7,0.3,1.6,0.9,2.5,1.7c0.8,0.7,1.4,1.3,1.8,1.8
		c0.4,0.5,0.6,0.8,0.7,1.1c0,0.3-0.1,0.6-0.4,0.8C59.5,20.3,59,20.5,58.4,20.7z"/>
	<path class="st0" d="M118.4,36.1c-2.5,0.8-4.5,1.3-6.1,1.7c-1.5,0.3-2.8,0.5-3.8,0.5s-1.9-0.2-2.5-0.6c-0.7-0.4-1.4-1-2.3-1.7
		c-1.1-0.9-2-1.6-2.8-2.3s-1.5-1.3-2.2-1.9s-1.4-1.2-2.2-1.8c-0.8-0.6-1.7-1.4-2.7-2.2c-3.1,3-6.4,5.3-10,7.1
		c-3.6,1.7-7.8,3-12.4,3.7C69,39,67.8,39,67.8,38.4c0-0.5,1.3-1.4,4.1-2.5c3.2-1.3,6.3-2.8,9.4-4.7c3.1-1.9,6-4.2,8.6-6.9
		c-1.3-1.1-2.4-2-3.3-2.5c-0.9-0.6-1.6-1-2.1-1.3c-0.8,0.6-1.7,1.2-2.5,1.7c-0.9,0.5-1.8,1-2.8,1.4c-1.7,0.6-2.7,0.9-2.9,0.7
		c-0.2-0.2,0.4-1,2-2.4s3-3,4.3-4.6s2.6-3.5,4.1-5.8c0.8-1.2,1.4-2.3,1.8-3.4c0.4-1,0.4-1.9,0.1-2.7c-0.5-1.3-0.3-2.1,0.5-2.3
		s2.2,0.3,4.4,1.5c1,0.6,1.7,1.1,2.2,1.5C96,6.6,96.3,7,96.4,7.4c0.1,0.3,0.1,0.6-0.1,0.9S95.8,8.8,95.4,9s-0.8,0.5-1.3,1
		c-0.4,0.5-0.9,1-1.5,1.8c-0.2,0.2-0.3,0.4-0.4,0.5s-0.2,0.3-0.4,0.4c1.2-0.1,2.3-0.3,3.2-0.5s1.8-0.6,2.5-0.9
		c0.6-0.3,1.1-0.5,1.5-0.6c0.4-0.2,0.8-0.2,1.1-0.2c0.3,0,0.6,0.1,0.9,0.2c0.3,0.2,0.6,0.4,1,0.6c1.1,0.8,1.9,1.6,2.5,2.1
		c0.6,0.6,0.9,1.1,1,1.5s0,0.8-0.4,1.1c-0.4,0.3-0.9,0.6-1.6,0.9c-0.6,0.2-1.2,0.7-1.9,1.3c-0.7,0.7-1.3,1.4-1.8,2.1
		c-0.5,0.8-1.1,1.6-1.6,2.3c-0.6,0.7-1.1,1.5-1.7,2.1c1.8,1.2,3.5,2.2,5.2,3.1s3.4,1.7,5.1,2.3c1.7,0.7,3.4,1.3,5.2,1.8
		c1.8,0.5,3.6,1,5.6,1.4c2.3,0.5,3.4,1,3.4,1.3C121,35.1,120.1,35.5,118.4,36.1z M99.4,49.6c0.3,1.5-0.1,2.5-1,3.1
		c-0.9,0.5-2.1,0.4-3.7-0.4c-0.6-0.4-1.9-1.2-3.7-2.5c-1.8-1.3-3.9-2.9-6.3-4.8c-1.1-0.8-1.6-1.4-1.5-1.7s1-0.4,2.8-0.4
		c2.3,0.2,4.3,0.4,5.9,0.7s2.9,0.8,4,1.3c1,0.6,1.8,1.2,2.3,2C98.9,47.6,99.2,48.5,99.4,49.6z M95.1,17.1c0.4-0.7,0.5-1.2,0.4-1.5
		s-0.4-0.4-0.9-0.4c-1.3,0.1-2.3,0.1-3,0.1s-1.3-0.1-1.8-0.2c-0.7,0.7-1.3,1.4-1.8,2s-1.1,1.2-1.6,1.7c0.7,0,1.5,0.3,2.3,0.7
		c0.8,0.4,2,1.2,3.4,2.2c0.5-0.7,1.1-1.5,1.6-2.2C94.2,18.7,94.7,17.9,95.1,17.1z M98,37.1c0.3,0.7,0.4,1.4,0.4,2
		c-0.1,0.6-0.3,1-0.6,1.4C97.5,40.8,97,41,96.5,41c-0.6,0-1.2-0.1-1.9-0.5c-0.7-0.4-1.3-0.7-1.8-1s-0.9-0.6-1.4-0.9
		c-0.5-0.3-1-0.8-1.6-1.3s-1.4-1.2-2.4-2c-0.3-0.3-0.6-0.5-0.8-0.7c-0.2-0.2-0.2-0.4-0.2-0.6c0.1-0.2,0.3-0.3,0.6-0.4
		c0.4-0.1,0.9-0.2,1.6-0.2c1.6,0,2.9,0,3.9,0.2c1.1,0.2,2,0.4,2.7,0.7s1.3,0.7,1.7,1.2C97.3,35.9,97.7,36.4,98,37.1z"/>
</g>
<path class="st0" d="M5.3,70.4c0-2,1.8-3.2,2.1-3.4c0.2-0.1,0.4-0.2,0.5-0.2s0.2,0.1,0.2,0.2S8,67.2,7.9,67.3c-0.3,0.2-1,1.2-1,2.1
	c0,0.2,0.1,0.5,0.3,0.6c0.2,0.1,1,0.3,1,1.3c0,0.6-0.5,1.1-1.1,1.1C6.2,72.3,5.3,71.6,5.3,70.4z M8.9,70.4c0-2,1.8-3.2,2.1-3.4
	c0.2-0.1,0.4-0.2,0.5-0.2s0.2,0.1,0.2,0.2s-0.1,0.2-0.2,0.3c-0.3,0.2-1,1.2-1,2.1c0,0.2,0.1,0.5,0.3,0.6s1,0.3,1,1.3
	c0,0.6-0.5,1.1-1.1,1.1C9.8,72.3,8.9,71.6,8.9,70.4z"/>
<path class="st0" d="M14.5,75.4c-0.2,0.4-1.1,3-1.1,3.6c0,0.4,0.2,0.9,0.7,0.9h0.7c0.2,0,0.2,0.1,0.2,0.2v0.4c0,0.2,0,0.2-0.2,0.2
	s-1-0.1-2.6-0.1c-1.4,0-1.8,0.1-2.1,0.1c-0.1,0-0.1-0.1-0.1-0.2V80c0-0.1,0-0.2,0.1-0.2h0.5c0.5,0,0.9-0.3,1.3-0.8
	c0.3-0.4,1.6-3.7,2.2-5.4c0.2-0.4,1.7-4.5,1.9-5c0.1-0.2,0.2-0.4,0-0.6c0-0.1,0-0.2,0-0.2c0-0.1,0-0.1,0.2-0.2
	c0.6-0.1,1.8-0.6,2.1-1c0.1-0.1,0.2-0.2,0.2-0.2c0.1,0,0.2,0.1,0.2,0.3c0.4,1.2,1.8,5.5,2.2,6.7c0.4,1.5,1.7,5,1.9,5.5
	c0.3,0.6,0.8,0.9,1.1,0.9h0.6c0.1,0,0.1,0.1,0.1,0.2v0.4c0,0.1,0,0.2-0.2,0.2c-0.4,0-0.8-0.1-3.2-0.1c-1.6,0-2.2,0.1-2.6,0.1
	c-0.2,0-0.2-0.1-0.2-0.2V80c0-0.1,0-0.2,0.1-0.2H19c0.5,0,0.7-0.2,0.6-0.7c-0.2-0.7-0.9-3.1-1.1-3.8L14.5,75.4L14.5,75.4z
	 M18.5,74.6l-1.4-5c-0.1-0.3-0.1-0.4-0.2-0.4s-0.2,0.1-0.2,0.2c-0.1,0.2-1.7,4.7-1.9,5.2C14.8,74.6,18.5,74.6,18.5,74.6z"/>
<path class="st0" d="M30.3,66.9c0.1-0.1,0.1-0.2,0.2-0.1l1,0.4c0.1,0,0.1,0.1,0,0.3l-5.6,13.2c-0.1,0.2-0.2,0.2-0.2,0.2l-0.9-0.4
	c-0.1-0.1-0.1-0.2,0-0.3L30.3,66.9z"/>
<path class="st0" d="M41.8,70.9L41.8,70.9L38,80.5c-0.1,0.2-0.2,0.5-0.5,0.5c-0.2,0-0.3-0.2-0.4-0.4l-4.3-12.1
	c-0.2-0.5-0.5-0.7-0.8-0.7h-0.5c-0.1,0-0.1-0.1-0.1-0.2v-0.5c0-0.1,0-0.1,0.2-0.1s0.7,0.1,2.7,0.1c1.4,0,2.1-0.1,2.3-0.1
	c0.1,0,0.2,0.1,0.2,0.2v0.5c0,0.1,0,0.2-0.2,0.2h-0.4c-0.3,0-0.5,0.3-0.4,0.6l2.6,8.3h0.1c0.2-0.6,2.5-6.7,2.5-7.4
	c0-0.5-0.2-1-0.4-1.2s-0.4-0.4-0.6-0.4h-0.4c-0.1,0-0.1,0-0.1-0.2v-0.5c0-0.1,0-0.1,0.1-0.1c0.2,0,0.8,0.1,2.5,0.1
	c1.6,0,2.3-0.1,2.5-0.1c0.1,0,0.1,0.1,0.1,0.2v0.5c0,0.1,0,0.1-0.1,0.1H44c-0.3,0-0.5,0.4-0.4,0.7l2.6,8.2h0.1
	c0.9-2.6,2.6-7.4,2.6-8.4c0-0.2-0.2-0.5-0.6-0.5h-0.6c-0.1,0-0.1-0.1-0.1-0.2v-0.5c0-0.1,0-0.1,0.2-0.1s0.9,0.1,2,0.1
	s1.6-0.1,1.8-0.1c0.1,0,0.1,0,0.1,0.2v0.5c0,0.1,0,0.1-0.1,0.1h-0.4c-0.3,0-0.7,0.2-0.9,0.7c-0.2,0.6-4,10.9-4.4,11.8
	c0.2,0.3,0.1,0.7-0.3,0.7c-0.3,0-0.4-0.2-0.5-0.5L41.8,70.9z"/>
<path class="st0" d="M94.1,68.8c0,2-1.8,3.2-2.1,3.4c-0.2,0.1-0.4,0.2-0.5,0.2s-0.2-0.1-0.2-0.2s0.1-0.2,0.2-0.3
	c0.3-0.2,1-1.2,1-2.1c0-0.2-0.1-0.5-0.3-0.6s-1-0.3-1-1.3c0-0.6,0.5-1.1,1.1-1.1C93.1,66.8,94.1,67.5,94.1,68.8z M97.6,68.8
	c0,2-1.8,3.2-2.1,3.4c-0.2,0.1-0.4,0.2-0.5,0.2s-0.2-0.1-0.2-0.2s0.1-0.2,0.2-0.3c0.3-0.2,1-1.2,1-2.1c0-0.2-0.1-0.5-0.3-0.6
	s-1-0.3-1-1.3c0-0.6,0.5-1.1,1.1-1.1C96.8,66.8,97.6,67.5,97.6,68.8z"/>
<g>
	<path class="st0" d="M56.5,79.5c-0.3,0-0.6,0-0.9,0c-0.3,0-0.5,0-0.6,0c-0.1,0-0.1,0-0.2-0.1c-0.1-0.1,0-0.3,0.1-0.4
		c0.6-0.6,2.2-2,3.5-3.7c1.1-1.4,1.8-2.8,1.8-4.3c-0.1-1.3-0.9-2.2-2.1-2.2c-1,0.1-1.7,0.7-2.1,1.4c-0.1,0.1-0.1,0.1-0.2,0.1
		l-0.3-0.1c-0.1,0-0.1-0.1,0-0.2c0.3-0.7,1.3-2.7,3.8-2.7c1.9,0,3.4,1.5,3.4,3.2c0,1.5-0.7,3-2.7,4.8c-1,1-1.8,1.6-2.4,2.1v0.1h3.1
		c1.2,0,1.6-0.7,2-1.4c0.1-0.2,0.1-0.2,0.3-0.1c0.2,0.1,0.3,0.2,0.2,0.3L62,79.7c-0.1,0.1-0.1,0.2-0.3,0.2c-0.1,0-0.2,0-0.2-0.2
		c-0.1-0.2-0.4-0.2-1.2-0.2H56.5z"/>
	<path class="st0" d="M72.1,73.4c0,4.1-1.3,6.3-3.9,6.3c-3.1,0-4.1-3.5-4.1-5.7c0-4,1.4-6.7,4-6.7C71.5,67.3,72.1,70.7,72.1,73.4z
		 M67.2,69.2c-0.3,1.3-0.5,3.1-0.5,4.6c0,1.7,0.1,3,0.3,3.8c0.3,1,0.6,1.4,1.3,1.4c0.6,0,1-0.4,1.1-1.2c0.2-0.9,0.2-2.2,0.2-4.8
		c0-3-0.3-5-1.3-5C67.7,68,67.4,68.5,67.2,69.2z"/>
	<path class="st0" d="M76.2,70.6c0-0.4-0.1-0.8-0.4-0.8c-0.2,0-0.4,0-0.8,0.1l-0.9,0.2c-0.1,0-0.2,0-0.2-0.1l-0.1-0.4
		c0-0.1,0-0.1,0.1-0.2l4.3-2.1c0.1-0.1,0.2-0.1,0.3-0.1c0.1,0,0.2,0.1,0.2,0.3c0,0.1-0.1,2.9-0.1,5.2v0.7c0,0.9,0,4,0,4.2
		c0,0.9,0.1,1.1,1,1.1h0.6c0.1,0,0.2,0.1,0.2,0.1v0.5c0,0.1-0.1,0.1-0.2,0.1c-0.1,0-2.6-0.1-2.9-0.1c-0.5,0-3,0.1-3.1,0.1
		c-0.1,0-0.1,0-0.1-0.1v-0.5c0-0.1,0.1-0.1,0.2-0.1h0.5c1,0,1.2-0.1,1.3-1c0-0.7,0-2.7,0-3.4V70.6z"/>
	<path class="st0" d="M82.4,77.2c0-1.6,1-2.5,2.3-3.3c-1.5-1.1-2.3-1.7-2.3-3.2c0-1.4,1.4-3.4,4.1-3.4c1.9,0,3.2,1.2,3.2,2.4
		c0,1.4-0.5,2.2-2.3,3.2c1.6,0.8,2.5,1.8,2.5,3.6c0,1.5-1.4,3.3-3.9,3.3C83.4,79.7,82.4,78.4,82.4,77.2z M87.7,77
		c0-1-0.6-1.7-2.4-2.7c-0.6,0.5-1.2,1.4-1.2,2.5c0,1.5,1.1,2.2,1.8,2.2C87.1,79,87.7,78.3,87.7,77z M84.6,70.2
		c0,0.9,0.5,1.4,2.1,2.3c0.6-0.4,1.2-1.2,1.2-2.3c0-1.2-0.6-2.1-1.6-2.1C85.1,68.1,84.6,69.1,84.6,70.2z"/>
</g>
</svg>
