<?xml version="1.0" encoding="utf-8"?>
<!-- Generator: Adobe Illustrator 22.1.0, SVG Export Plug-In . SVG Version: 6.00 Build 0)  -->
<svg version="1.1" id="Layer_1" xmlns="http://www.w3.org/2000/svg" xmlns:xlink="http://www.w3.org/1999/xlink" x="0px" y="0px"
	 viewBox="0 0 168.8 104" style="enable-background:new 0 0 168.8 104;" xml:space="preserve">
<style type="text/css">
	.st0{fill:#95272B;}
</style>
<g>
	<path class="st0" d="M59.3,26.5c-0.3,1.4-0.8,2.3-1.4,2.5c-0.6,0.2-1.4-0.1-2.2-1c-0.5-0.5-0.9-1.1-1.3-1.8
		c-0.4-0.7-0.8-1.5-1.3-2.3c-0.5-1.1-0.6-1.9-0.2-2.2c-0.7,0.2-1.5,0.4-2.4,0.5c-0.9,0.2-1.8,0.3-2.9,0.6l-0.2,4.5
		c2.1-0.2,3.6,0,4.6,0.5c1,0.5,1.6,1.2,1.8,2.1c0.4,1.8,0.3,2.9-0.3,3.4s-1.4,0.4-2.5-0.2c-0.6-0.3-1.2-0.7-1.7-1.1
		c-0.6-0.4-1.2-1-1.9-1.7c0,1.2-0.1,2.4-0.1,3.7c0,1.2,0,2.4,0,3.5s0,2.2,0,3.1s0,1.8,0,2.5c0,1.4,0,2.7-0.1,3.7
		c-0.1,1-0.4,2.1-0.8,3.3c-0.5,1.5-1.2,2.2-2.1,2.2c-1,0-1.9-0.8-2.9-2.5c-0.4-0.6-0.7-1.2-0.9-1.7c-0.2-0.5-0.3-1-0.3-1.5
		s0.1-1,0.3-1.6c0.2-0.6,0.5-1.3,0.8-2.2c0.5-1.3,1-5,1.5-11c-1.4,2.2-3.1,4-5,5.4c-1.9,1.4-4.1,2.6-6.6,3.6
		c-1.8,0.7-2.7,0.9-2.9,0.5s0.5-1.1,2-2.3c1-0.8,2.1-1.8,3.2-3s2.2-2.4,3.3-3.7c1.1-1.3,2.1-2.7,3-4.1c0.9-1.4,1.7-2.8,2.4-4.1
		c-1.5,0.4-2.9,0.8-4.3,1.3c-1.4,0.4-2.4,0.8-3,1c-0.5,0.2-0.9,0.3-1.3,0.4s-0.7,0-1.1-0.1c-0.4-0.1-0.7-0.3-1.1-0.5
		c-0.4-0.2-0.9-0.6-1.5-1c-1.4-0.9-2-1.6-1.8-2.1c0.2-0.5,1.3-0.7,3.3-0.5c1.3,0.1,3-0.1,5.2-0.4c2.2-0.4,4.4-0.9,6.7-1.5
		c0.1-2.4,0-4.3-0.4-5.9c-1.3,0.4-2.8,0.7-4.5,1.1c-1.1,0.2-2,0.3-2.5,0.2s-0.8-0.2-0.8-0.4s0.2-0.5,0.7-0.9S37,14,38,13.6
		c3-1.3,5.2-2.6,6.7-3.9s2.2-2.4,2.1-3.2c0-0.5,0-0.9,0.2-1.2c0.2-0.3,0.5-0.5,0.9-0.6c0.4-0.1,0.9,0,1.7,0.3
		c0.7,0.2,1.6,0.7,2.7,1.5c2,1.3,3,2.3,3.1,2.9c0,0.6-0.7,1.1-2.3,1.5c-0.6,0.2-1.3,0.4-2.1,0.7c-0.8,0.3-1.9,0.7-3.2,1.3
		c0.9,0.5,1.5,0.8,1.5,1.2c0.1,0.3-0.1,0.8-0.5,1.3c-0.3,0.4-0.5,0.9-0.7,1.7c-0.2,0.7-0.3,1.5-0.3,2.3c0.6-0.2,1.1-0.3,1.5-0.5
		c0.4-0.1,0.8-0.2,1.3-0.2c0.4,0,0.9,0,1.3,0.1c0.5,0.1,1,0.2,1.5,0.4c1,0.3,1.4,0.7,1.5,1.2c0,0.5-0.4,0.9-1.4,1.3
		c0.5,0,1.1,0.1,1.9,0.3c1.7,0.5,2.9,1.2,3.5,2C59.3,24.7,59.5,25.6,59.3,26.5z M80.8,44.9c1.9,0.9,2.9,1.6,2.8,2.2
		c-0.1,0.6-1.4,1-4,1.2c-2,0.2-3.6,0.2-4.7,0.2c-1.1,0-2.1-0.1-2.8-0.4c-0.7-0.3-1.3-0.7-1.7-1.2c-0.4-0.6-0.9-1.3-1.4-2.3
		s-1-1.8-1.4-2.6s-0.8-1.6-1.2-2.3c-0.4-0.8-0.8-1.5-1.2-2.3s-0.8-1.7-1.3-2.6c-1,3.6-2.6,6.5-4.7,8.8c-2.1,2.2-4.9,4.1-8.4,5.5
		c-2.1,0.9-3.2,1.1-3.4,0.6c-0.2-0.5,0.6-1.4,2.4-2.7c3.6-2.7,6.3-5.7,7.9-9s2.6-7.1,2.9-11.3c0.2-3.8,0.4-6.9,0.5-9.3
		s0.1-4.3,0.1-5.7c-0.1-1.4-0.2-2.5-0.5-3.3c-0.3-0.7-0.6-1.4-1-2c-0.5-0.6-0.8-1.2-1-1.7s-0.1-0.9,0.2-1.2s0.9-0.4,1.7-0.3
		s2,0.4,3.5,1c1.1,0.5,2,0.8,2.6,1.1c0.6,0.3,1,0.6,1.3,0.9c0.2,0.3,0.3,0.7,0.2,1c-0.1,0.4-0.3,0.8-0.5,1.4
		c-0.3,0.5-0.5,1.1-0.6,1.6s-0.3,1.2-0.4,1.9c-0.1,0.7-0.2,1.5-0.3,2.5c-0.1,0.9-0.1,2.1-0.1,3.4c-0.1,1.7-0.2,3.6-0.4,5.7
		c-0.2,2.1-0.5,4.3-0.8,6.7c1.7,2.3,3.2,4.2,4.7,5.8s2.9,3,4.2,4.1c1.3,1.1,2.6,2.1,3.7,2.8C78.5,43.8,79.7,44.4,80.8,44.9z
		 M77.4,19.7c-0.5,0.2-0.8,0.3-1.1,0.4c-0.3,0.1-0.6,0.2-0.9,0.4c-0.3,0.1-0.5,0.3-0.8,0.4c-0.3,0.1-0.5,0.3-0.9,0.5
		c-0.8,0.5-1.6,0.9-2.3,1.3c-0.7,0.4-1.6,0.7-2.5,1.1c-1.6,0.6-2.4,0.7-2.5,0.4c-0.1-0.4,0.4-1.1,1.5-2.3c1.6-1.7,2.7-3.1,3.1-4
		c0.5-1,0.7-1.7,0.5-2.3c-0.2-0.6-0.2-1.2,0-1.6c0.2-0.4,0.5-0.7,0.9-0.7c0.5-0.1,1.1,0,1.8,0.4c0.7,0.3,1.6,0.9,2.5,1.7
		c0.8,0.7,1.4,1.3,1.8,1.8c0.4,0.5,0.6,0.8,0.7,1.1c0,0.3-0.1,0.6-0.4,0.8C78.5,19.3,78,19.5,77.4,19.7z"/>
	<path class="st0" d="M137.3,35.1c-2.5,0.8-4.5,1.3-6.1,1.7c-1.5,0.3-2.8,0.5-3.8,0.5c-1,0-1.9-0.2-2.5-0.6c-0.7-0.4-1.4-1-2.3-1.7
		c-1.1-0.9-2-1.6-2.8-2.3s-1.5-1.3-2.2-1.9s-1.4-1.2-2.2-1.8s-1.7-1.4-2.7-2.2c-3.1,3-6.4,5.3-10,7.1c-3.6,1.7-7.8,3-12.4,3.7
		c-2.4,0.4-3.6,0.4-3.6-0.2c0-0.5,1.3-1.4,4.1-2.5c3.2-1.3,6.3-2.8,9.4-4.7c3.1-1.9,6-4.2,8.6-6.9c-1.3-1.1-2.4-2-3.3-2.5
		c-0.9-0.6-1.6-1-2.1-1.3c-0.8,0.6-1.7,1.2-2.5,1.7c-0.9,0.5-1.8,1-2.8,1.4c-1.7,0.6-2.7,0.9-2.9,0.7c-0.2-0.2,0.4-1,2-2.4
		s3-3,4.3-4.6s2.6-3.5,4.1-5.8c0.8-1.2,1.4-2.3,1.8-3.4c0.4-1,0.4-1.9,0.1-2.7c-0.5-1.3-0.3-2.1,0.5-2.3s2.2,0.3,4.4,1.5
		c1,0.6,1.7,1.1,2.2,1.5c0.5,0.5,0.8,0.9,0.9,1.2s0.1,0.6-0.1,0.9s-0.5,0.5-0.9,0.7c-0.4,0.2-0.8,0.5-1.3,1c-0.4,0.5-0.9,1-1.5,1.8
		c-0.2,0.2-0.3,0.4-0.4,0.5s-0.2,0.3-0.4,0.4c1.2-0.1,2.3-0.3,3.2-0.5c1-0.3,1.8-0.6,2.5-0.9c0.6-0.3,1.1-0.5,1.5-0.6
		c0.4-0.2,0.8-0.2,1.1-0.2c0.3,0,0.6,0.1,0.9,0.2c0.3,0.2,0.6,0.4,1,0.6c1.1,0.8,1.9,1.6,2.5,2.1s0.9,1.1,1,1.5s0,0.8-0.4,1.1
		s-0.9,0.6-1.6,0.9c-0.6,0.2-1.2,0.7-1.9,1.3c-0.7,0.7-1.3,1.4-1.8,2.1c-0.5,0.8-1.1,1.6-1.6,2.3c-0.6,0.7-1.1,1.5-1.7,2.1
		c1.8,1.2,3.5,2.2,5.2,3.1s3.4,1.7,5.1,2.3c1.7,0.7,3.4,1.3,5.2,1.8c1.8,0.5,3.6,1,5.6,1.4c2.3,0.5,3.4,1,3.4,1.3
		C140,34.1,139.1,34.6,137.3,35.1z M118.4,48.6c0.3,1.5-0.1,2.5-1,3.1c-0.9,0.5-2.1,0.4-3.7-0.4c-0.6-0.4-1.9-1.2-3.7-2.5
		c-1.8-1.3-3.9-2.9-6.3-4.8c-1.1-0.8-1.6-1.4-1.5-1.7s1-0.4,2.8-0.4c2.3,0.2,4.3,0.4,5.9,0.7s2.9,0.8,4,1.3c1,0.6,1.8,1.2,2.3,2
		C117.9,46.7,118.2,47.6,118.4,48.6z M114.1,16.1c0.4-0.7,0.5-1.2,0.4-1.5s-0.4-0.4-0.9-0.4c-1.3,0.1-2.3,0.1-3,0.1
		s-1.3-0.1-1.8-0.2c-0.7,0.7-1.3,1.4-1.8,2c-0.5,0.6-1.1,1.2-1.6,1.7c0.7,0,1.5,0.3,2.3,0.7c0.8,0.4,2,1.2,3.4,2.2
		c0.5-0.7,1.1-1.5,1.6-2.2C113.2,17.8,113.7,17,114.1,16.1z M116.9,36.1c0.3,0.7,0.4,1.4,0.4,2c-0.1,0.6-0.3,1-0.6,1.4
		c-0.3,0.3-0.8,0.5-1.3,0.5c-0.6,0-1.2-0.1-1.9-0.5c-0.7-0.4-1.3-0.7-1.8-1s-0.9-0.6-1.4-0.9c-0.5-0.3-1-0.8-1.6-1.3s-1.4-1.2-2.4-2
		c-0.3-0.3-0.6-0.5-0.8-0.7c-0.2-0.2-0.2-0.4-0.2-0.6c0.1-0.2,0.3-0.3,0.6-0.4c0.4-0.1,0.9-0.2,1.6-0.2c1.6,0,2.9,0,3.9,0.2
		c1.1,0.2,2,0.4,2.7,0.7s1.3,0.7,1.7,1.2C116.3,34.9,116.7,35.5,116.9,36.1z"/>
</g>
<g>
	<g>
		<path class="st0" d="M129,67.3c0,1.9-1.8,3.1-2,3.2s-0.4,0.2-0.5,0.2s-0.2-0.1-0.2-0.1c0-0.1,0.1-0.2,0.2-0.3c0.3-0.2,1-1.1,1-2
			c0-0.2-0.1-0.5-0.3-0.5c-0.2-0.1-0.9-0.3-0.9-1.2c0-0.6,0.5-1.1,1.1-1.1C128.1,65.5,129,66.1,129,67.3z M132.4,67.3
			c0,1.9-1.8,3.1-2,3.2s-0.4,0.2-0.5,0.2c-0.1,0-0.2-0.1-0.2-0.1c0-0.1,0.1-0.2,0.2-0.3c0.3-0.2,1-1.1,1-2c0-0.2-0.1-0.5-0.3-0.5
			c-0.2-0.1-0.9-0.3-0.9-1.2c0-0.6,0.5-1.1,1.1-1.1C131.6,65.5,132.4,66.1,132.4,67.3z"/>
	</g>
	<path class="st0" d="M35.9,69.3c0-1.9,1.8-3.1,2-3.2s0.4-0.2,0.5-0.2c0.1,0,0.2,0.1,0.2,0.1c0,0.1-0.1,0.2-0.2,0.3
		c-0.3,0.2-1,1.1-1,2c0,0.2,0.1,0.5,0.3,0.5c0.2,0.1,0.9,0.3,0.9,1.2c0,0.6-0.5,1.1-1.1,1.1C36.8,71.1,35.9,70.5,35.9,69.3z
		 M39.4,69.3c0-1.9,1.8-3.1,2-3.2s0.4-0.2,0.5-0.2c0.1,0,0.2,0.1,0.2,0.1c0,0.1-0.1,0.2-0.2,0.3c-0.3,0.2-1,1.1-1,2
		c0,0.2,0.1,0.5,0.3,0.5c0.2,0.1,0.9,0.3,0.9,1.2c0,0.6-0.5,1.1-1.1,1.1C40.2,71.1,39.4,70.5,39.4,69.3z"/>
	<path class="st0" d="M45.6,74.3c-0.1,0.4-1,3-1,3.6c0,0.4,0.2,0.8,0.7,0.8H46c0.2,0,0.2,0.1,0.2,0.1v0.4c0,0.1,0,0.2-0.2,0.2
		s-1-0.1-2.6-0.1c-1.3,0-1.7,0.1-2.1,0.1c-0.1,0-0.1-0.1-0.1-0.2V79c0-0.1,0-0.2,0.1-0.2h0.5c0.4,0,0.9-0.3,1.2-0.8
		c0.3-0.4,1.6-3.7,2.3-5.3c0.1-0.4,1.6-4.4,1.9-4.9c0.1-0.2,0.1-0.4,0-0.6c-0.1-0.1-0.1-0.2-0.1-0.2c0-0.1,0-0.1,0.2-0.2
		c0.6-0.1,1.9-0.6,2.1-0.9c0.1-0.1,0.1-0.2,0.2-0.2s0.1,0.1,0.2,0.3c0.3,1.1,1.9,5.3,2.2,6.6c0.4,1.4,1.6,4.9,2,5.5
		c0.3,0.6,0.8,0.8,1.1,0.8h0.6c0.1,0,0.1,0.1,0.1,0.2v0.4c0,0.1,0,0.2-0.2,0.2c-0.3,0-0.7-0.1-3.2-0.1c-1.5,0-2.3,0.1-2.6,0.1
		c-0.2,0-0.2-0.1-0.2-0.2V79c0-0.1,0-0.2,0.1-0.2h0.5c0.5,0,0.7-0.2,0.5-0.7c-0.2-0.7-0.9-3.1-1.1-3.7
		C49.6,74.3,45.6,74.3,45.6,74.3z M49.6,73.6l-1.4-4.9c-0.1-0.3-0.1-0.4-0.2-0.4c-0.1,0-0.2,0.1-0.2,0.2c-0.1,0.2-1.7,4.6-1.9,5.1
		C45.8,73.6,49.6,73.6,49.6,73.6z"/>
	<path class="st0" d="M61.3,66c0.1-0.1,0.1-0.1,0.2-0.1l0.9,0.4c0.1,0,0.1,0.1,0,0.3l-5.6,13c-0.1,0.2-0.2,0.2-0.2,0.1l-0.8-0.4
		c-0.1-0.1-0.1-0.2,0-0.3L61.3,66z"/>
	<path class="st0" d="M72.6,69.9L72.6,69.9l-3.7,9.5c-0.1,0.2-0.2,0.5-0.5,0.5c-0.2,0-0.3-0.1-0.4-0.4l-4.2-11.9
		c-0.2-0.5-0.5-0.7-0.7-0.7h-0.5c-0.1,0-0.1-0.1-0.1-0.1v-0.5c0-0.1,0-0.1,0.1-0.1c0.1,0,0.7,0.1,2.7,0.1c1.3,0,2.2-0.1,2.3-0.1
		c0.1,0,0.1,0.1,0.1,0.1v0.5c0,0.1,0,0.1-0.1,0.1H67c-0.3,0-0.5,0.3-0.4,0.6l2.6,8.2h0.1c0.2-0.6,2.5-6.6,2.5-7.3
		c0-0.5-0.2-0.9-0.3-1.2c0-0.1-0.3-0.2-0.4-0.2h-0.4c-0.1,0-0.1,0-0.1-0.1v-0.5c0-0.1,0-0.1,0.1-0.1c0.2,0,0.8,0.1,2.5,0.1
		c1.5,0,2.3-0.1,2.5-0.1c0.1,0,0.1,0.1,0.1,0.2v0.5c0,0.1,0,0.1-0.1,0.1h-0.5c-0.3,0-0.5,0.4-0.4,0.7l2.6,8.1h0.1
		c0.9-2.6,2.6-7.3,2.6-8.3c0-0.2-0.2-0.5-0.6-0.5h-0.5c-0.1-0.1-0.1-0.2-0.1-0.3v-0.5c0-0.1,0-0.1,0.1-0.1c0.2,0,0.8,0.1,2.1,0.1
		c1,0,1.6-0.1,1.7-0.1c0.1,0,0.1,0,0.1,0.2v0.5c0,0.1,0,0.1-0.1,0.1h-0.3c-0.3,0-0.7,0.2-0.9,0.7c-0.2,0.6-4,10.8-4.4,11.7
		c-0.1,0.2-0.2,0.6-0.5,0.6s-0.4-0.2-0.5-0.5L72.6,69.9z"/>
	<g>
		<path class="st0" d="M89.9,78.8c-0.3,0-0.6,0-0.9,0c-0.3,0-0.5,0-0.6,0s-0.1,0-0.2-0.1s0-0.3,0.1-0.4c0.6-0.6,2.3-2.1,3.6-3.8
			c1.1-1.4,1.9-2.9,1.9-4.4c-0.1-1.3-0.9-2.3-2.2-2.3c-1,0.1-1.7,0.7-2.2,1.4c-0.1,0.1-0.1,0.1-0.2,0.1l-0.3-0.1
			c-0.1,0-0.1-0.1,0-0.2c0.3-0.7,1.3-2.8,3.9-2.8c2,0,3.5,1.5,3.5,3.3c0,1.5-0.7,3.1-2.8,4.9c-1,1-1.9,1.6-2.5,2.2v0.1h3.2
			c1.2,0,1.6-0.7,2.1-1.4c0.1-0.2,0.1-0.2,0.3-0.1c0.2,0.1,0.3,0.2,0.2,0.3l-1.3,3.4c-0.1,0.1-0.1,0.2-0.3,0.2c-0.1,0-0.2,0-0.2-0.2
			c-0.1-0.2-0.4-0.2-1.2-0.2h-3.8V78.8z"/>
		<path class="st0" d="M105.9,72.5c0,4.2-1.3,6.5-4,6.5c-3.2,0-4.2-3.6-4.2-5.9c0-4.1,1.4-6.9,4.1-6.9
			C105.3,66.2,105.9,69.7,105.9,72.5z M100.9,68.2c-0.3,1.3-0.5,3.2-0.5,4.7c0,1.7,0.1,3.1,0.3,3.9c0.3,1,0.6,1.4,1.3,1.4
			c0.6,0,1-0.4,1.1-1.2c0.2-0.9,0.2-2.3,0.2-4.9c0-3.1-0.3-5.1-1.3-5.1C101.4,66.9,101,67.5,100.9,68.2z"/>
		<path class="st0" d="M110.1,69.6c0-0.4-0.1-0.8-0.4-0.8c-0.2,0-0.4,0-0.8,0.1l-0.9,0.2c-0.1,0-0.2,0-0.2-0.1l-0.1-0.4
			c0-0.1,0-0.1,0.1-0.2l4.4-2.2c0.1-0.1,0.2-0.1,0.3-0.1s0.2,0.1,0.2,0.3c0,0.2-0.1,3-0.1,5.3v0.7c0,0.9,0,4.1,0,4.3
			c0,0.9,0.1,1.1,1,1.1h0.6c0.1,0,0.2,0.1,0.2,0.1v0.5c0,0.1-0.1,0.1-0.2,0.1c-0.1,0-2.7-0.1-3-0.1c-0.5,0-3.1,0.1-3.2,0.1
			c-0.1,0-0.1,0-0.1-0.1V78c0-0.1,0.1-0.1,0.2-0.1h0.5c1,0,1.2-0.1,1.3-1c0-0.7,0-2.8,0-3.5v-3.8H110.1z"/>
		<path class="st0" d="M116.5,76.5c0-1.6,1-2.6,2.4-3.4c-1.5-1.1-2.4-1.7-2.4-3.3c0-1.4,1.4-3.5,4.2-3.5c2,0,3.3,1.2,3.3,2.5
			c0,1.4-0.5,2.3-2.4,3.3c1.6,0.8,2.6,1.9,2.6,3.7c0,1.5-1.4,3.4-4,3.4C117.5,79.1,116.5,77.6,116.5,76.5z M121.9,76.2
			c0-1-0.6-1.7-2.5-2.8c-0.6,0.5-1.2,1.4-1.2,2.6c0,1.5,1.1,2.3,1.9,2.3C121.3,78.4,121.9,77.5,121.9,76.2z M118.8,69.3
			c0,0.9,0.5,1.4,2.2,2.4c0.6-0.4,1.2-1.2,1.2-2.4c0-1.2-0.6-2.2-1.6-2.2C119.3,67,118.8,68.2,118.8,69.3z"/>
	</g>
</g>
</svg>
