<?xml version="1.0" encoding="utf-8"?>
<!-- Generator: Adobe Illustrator 22.1.0, SVG Export Plug-In . SVG Version: 6.00 Build 0)  -->
<svg version="1.1" id="Layer_1" xmlns="http://www.w3.org/2000/svg" xmlns:xlink="http://www.w3.org/1999/xlink" x="0px" y="0px"
	 viewBox="0 0 186.1 91.8" style="enable-background:new 0 0 186.1 91.8;" xml:space="preserve">
<style type="text/css">
	.st0{enable-background:new    ;}
	.st1{fill:#95272B;}
</style>
<title>Asset 5</title>
<g class="st0">
	<path class="st1" d="M8.5,71.4c-0.1-1.3-0.8-3.7-0.8-4.2c0-0.5,0.3-1,1.1-1c0.8,0,1,0.5,1,1c0,0.5-0.6,3-0.7,4.2H8.5z M11.6,71.4
		c-0.1-1.3-0.8-3.7-0.8-4.2c0-0.5,0.3-1,1-1c0.8,0,1.1,0.5,1.1,1c0,0.5-0.6,3-0.8,4.2H11.6z"/>
</g>
<g class="st0">
	<path class="st1" d="M17.4,78.3c-1.3-0.8-2.6-2.7-2.6-5.3c0-1.1,0.3-2.8,1.7-4.5c1.6-1.9,3.6-2.3,5.2-2.3c1.5,0,2.9,0.2,4.4,1.4
		c1.4,1.1,2.5,2.9,2.5,5.4c0,1.3-0.4,2.7-1.4,3.9c-1.2,1.5-2.7,2.5-5.5,2.5C20.4,79.5,18.8,79.2,17.4,78.3z M25.7,73.1
		c0-3.9-2.6-6.1-4.1-6.1c-0.4,0-1.3-0.1-2.4,1c-1.1,1-1.6,2.9-1.6,4.4c0,4.6,2.6,6.2,4.1,6.2C25.1,78.6,25.7,74.6,25.7,73.1z"/>
	<path class="st1" d="M32.4,74.3c-0.1,0.4-1,2.8-1,3.4c0,0.4,0.2,0.8,0.7,0.8h0.6c0.2,0,0.2,0.1,0.2,0.1v0.4c0,0.1,0,0.2-0.2,0.2
		c-0.2,0-1-0.1-2.4-0.1c-1.3,0-1.7,0.1-2,0.1c-0.1,0-0.1-0.1-0.1-0.2v-0.3c0-0.1,0-0.2,0.1-0.2h0.5c0.4,0,0.9-0.3,1.2-0.8
		c0.3-0.4,1.5-3.5,2.1-5.1c0.1-0.4,1.6-4.2,1.8-4.7c0.1-0.2,0.1-0.4,0-0.6c-0.1-0.1-0.1-0.2-0.1-0.2c0-0.1,0-0.1,0.2-0.2
		c0.6-0.1,1.7-0.6,2-0.9c0.1-0.1,0.1-0.2,0.2-0.2c0.1,0,0.1,0.1,0.2,0.3c0.3,1.1,1.7,5.2,2.1,6.3c0.4,1.4,1.6,4.8,1.8,5.2
		c0.3,0.6,0.8,0.8,1,0.8H42c0.1,0,0.1,0.1,0.1,0.2V79c0,0.1,0,0.2-0.2,0.2c-0.3,0-0.7-0.1-3-0.1c-1.5,0-2.1,0.1-2.5,0.1
		c-0.2,0-0.2-0.1-0.2-0.2v-0.3c0-0.1,0-0.2,0.1-0.2h0.5c0.5,0,0.6-0.2,0.5-0.6c-0.2-0.6-0.9-3-1.1-3.6H32.4z M36.2,73.5l-1.4-4.8
		c-0.1-0.3-0.1-0.4-0.2-0.4c-0.1,0-0.2,0.1-0.2,0.2c-0.1,0.2-1.6,4.5-1.8,4.9H36.2z"/>
	<path class="st1" d="M46.8,72.3h0.3c0.1,0,0.3-0.1,0.5-0.2c0.3-0.3,3.2-3.9,3.5-4.2c0.3-0.4,0-0.7-0.4-0.7h-0.3
		c-0.1,0-0.1,0-0.1-0.1v-0.5c0-0.1,0-0.1,0.1-0.1c0.2,0,1,0.1,2.4,0.1c0.9,0,1.5-0.1,1.7-0.1c0.1,0,0.1,0,0.1,0.1V67
		c0,0.1-0.1,0.1-0.1,0.1h-0.3c-0.3,0-0.7,0.1-1,0.3c-1,0.6-3.3,3.3-3.9,4.1c1.2,1.5,4.1,5.6,4.9,6.5c0.3,0.4,0.8,0.5,1,0.5h0.2
		c0.1,0,0.1,0.1,0.1,0.1v0.5c0,0.1,0,0.1-0.1,0.1c-0.2,0-0.8-0.1-2.6-0.1c-1.5,0-2.2,0.1-2.4,0.1c-0.1,0-0.1,0-0.1-0.1v-0.5
		c0-0.1,0-0.1,0.1-0.1h0.3c0.3,0,0.3-0.3,0.3-0.5c-0.2-0.4-3-4.5-3.3-4.8C47.4,73.1,47.2,73,47,73h-0.3v1.3c0,0.9,0,3.5,0.1,3.8
		c0,0.2,0.2,0.4,0.4,0.4h0.6c0.1,0,0.1,0,0.1,0.1v0.5c0,0.1,0,0.1-0.1,0.1c-0.2,0-0.8-0.1-2.4-0.1c-1.7,0-2.2,0.1-2.4,0.1
		c-0.1,0-0.1,0-0.1-0.1v-0.5c0-0.1,0.1-0.1,0.1-0.1h0.6c0.3,0,0.5-0.1,0.5-0.3c0-0.2,0.1-3.4,0.1-5.6v-1c0-0.3-0.1-3.7-0.1-3.9
		c0-0.2-0.1-0.4-0.5-0.4h-0.5c-0.1,0-0.1,0-0.1-0.1v-0.5c0-0.1,0-0.1,0.1-0.1c0.2,0,0.8,0.1,2.4,0.1c1.6,0,2.2-0.1,2.4-0.1
		c0.1,0,0.1,0,0.1,0.1V67c0,0.1,0,0.1-0.1,0.1h-0.4c-0.4,0-0.6,0.1-0.6,0.5c0,0.3-0.1,3.1-0.1,4V72.3z"/>
	<path class="st1" d="M60,73.6c0,0.3,0,4.2,0.1,4.9h1c0.8,0,1.7,0,2.6-0.1c1-0.1,2.2-2.2,2.5-2.9c0.1-0.1,0.1-0.2,0.2-0.1l0.4,0.1
		c0.1,0,0.1,0.1,0,0.2c-0.1,0.1-0.8,3.1-0.9,3.6c-0.5,0-5.7-0.1-7.3-0.1c-1.8,0-2.4,0.1-2.7,0.1c-0.1,0-0.1,0-0.1-0.2v-0.5
		c0-0.1,0-0.1,0.1-0.1h0.6c0.7,0,0.8-0.3,0.8-0.5c0-0.3,0.1-4.8,0.1-5.9v-1c0-1.2,0-3.1-0.1-3.3c0-0.5-0.1-0.6-0.5-0.6H56
		c-0.1,0-0.1-0.1-0.1-0.2v-0.4c0-0.1,0-0.1,0.1-0.1c0.2,0,0.8,0.1,2.5,0.1c2.1,0,2.9-0.1,3-0.1c0.1,0,0.2,0.1,0.2,0.2V67
		c0,0.1,0,0.1-0.2,0.1h-0.8c-0.6,0-0.6,0.2-0.6,0.7c0,0.2-0.1,3-0.1,4.2V73.6z"/>
	<path class="st1" d="M70.3,74.3c-0.1,0.4-1,2.8-1,3.4c0,0.4,0.2,0.8,0.7,0.8h0.6c0.2,0,0.2,0.1,0.2,0.1v0.4c0,0.1,0,0.2-0.2,0.2
		c-0.2,0-1-0.1-2.4-0.1c-1.3,0-1.7,0.1-2,0.1c-0.1,0-0.1-0.1-0.1-0.2v-0.3c0-0.1,0-0.2,0.1-0.2h0.5c0.4,0,0.9-0.3,1.2-0.8
		c0.3-0.4,1.5-3.5,2.1-5.1c0.1-0.4,1.6-4.2,1.8-4.7c0.1-0.2,0.1-0.4,0-0.6c-0.1-0.1-0.1-0.2-0.1-0.2c0-0.1,0-0.1,0.2-0.2
		c0.6-0.1,1.7-0.6,2-0.9c0.1-0.1,0.1-0.2,0.2-0.2c0.1,0,0.1,0.1,0.2,0.3c0.3,1.1,1.7,5.2,2.1,6.3c0.4,1.4,1.6,4.8,1.8,5.2
		c0.3,0.6,0.8,0.8,1,0.8H80c0.1,0,0.1,0.1,0.1,0.2V79c0,0.1,0,0.2-0.2,0.2c-0.3,0-0.7-0.1-3-0.1c-1.5,0-2.1,0.1-2.5,0.1
		c-0.2,0-0.2-0.1-0.2-0.2v-0.3c0-0.1,0-0.2,0.1-0.2h0.5c0.5,0,0.6-0.2,0.5-0.6c-0.2-0.6-0.9-3-1.1-3.6H70.3z M74.1,73.5l-1.4-4.8
		c-0.1-0.3-0.1-0.4-0.2-0.4c-0.1,0-0.2,0.1-0.2,0.2c-0.1,0.2-1.6,4.5-1.8,4.9H74.1z"/>
	<path class="st1" d="M91.7,74c0-1.6,0-2.5-0.1-3.4c0-0.7-0.1-2.5-0.2-2.7c-0.1-0.5-0.5-0.7-1-0.7H90c-0.1,0-0.1-0.1-0.1-0.2v-0.5
		c0-0.1,0-0.1,0.2-0.1c0.2,0,0.8,0.1,2.1,0.1c1.1,0,1.5-0.1,1.7-0.1c0.2,0,0.2,0,0.2,0.1V67c0,0.1,0,0.2-0.1,0.2h-0.5
		c-0.3,0-0.5,0.3-0.5,1c-0.1,1.2-0.4,5.3-0.4,7.7v3.1c0,0.3,0,0.6-0.3,0.6c-0.3,0-0.5-0.1-0.7-0.3c-0.3-0.3-1.2-1.2-2.3-2.5L86.2,73
		c-0.3-0.4-2.8-3.5-3.2-4.1h-0.1v3.6c0,1.5,0.2,3.7,0.2,4.4c0,1,0.4,1.6,1.1,1.6h0.5c0.1,0,0.1,0.1,0.1,0.2v0.4c0,0.1,0,0.1-0.1,0.1
		c-0.2,0-1.3-0.1-2.1-0.1c-0.6,0-1.8,0.1-2,0.1c-0.1,0-0.1,0-0.1-0.2v-0.5c0-0.1,0-0.1,0.1-0.1h0.6c0.4,0,0.7-0.6,0.8-1.8
		c0-0.3,0.2-3.2,0.2-5.9v-1.6c0-1.1-0.6-2.1-1.5-2.1l-0.5,0C80,67.1,80,67,80,67v-0.5c0-0.1,0-0.1,0.1-0.1c0.1,0,0.2,0,0.6,0
		c0.4,0,0.9,0,1.9,0c0.6,0,1.2,0,1.4,0c0.2,0,0.4,0.1,0.5,0.2l4.2,5.1l3.1,3.8h0.1V74z"/>
	<path class="st1" d="M96.7,70.9c0-0.5-0.1-3-0.1-3.3c-0.1-0.4-0.3-0.5-0.6-0.5h-0.9c-0.1,0-0.1,0-0.1-0.1v-0.5
		c0-0.1,0.1-0.1,0.1-0.1c0.2,0,1,0.1,2.8,0.1c0.5,0,2.3-0.1,2.7-0.1c2.4,0,4.4,0.2,6.1,1.6c1.2,1,2,2.5,2,4.6c0,2.1-0.6,3.4-1.8,4.7
		c-1.7,1.9-4.8,1.9-6,1.9c-0.3,0-2.4-0.1-3.4-0.1c-1.6,0-2.3,0.1-2.5,0.1c-0.1,0-0.1,0-0.1-0.2v-0.5c0-0.1,0.1-0.1,0.1-0.1H96
		c0.3,0,0.5-0.1,0.6-0.4c0.1-0.4,0.1-4.4,0.1-5.8V70.9z M99.4,72.7c0,0.2,0,3.3,0,4.4c0,0.4,0.1,0.6,0.3,1c0.2,0.3,0.8,0.4,1.4,0.4
		c1,0,2.4-0.5,3.4-1.8c0.7-1,1.3-2.4,1.3-4.1c0-1.5-0.6-3-1.5-3.9c-1-1.1-2.5-1.6-3.6-1.6c-0.5,0-0.8,0-1,0.1
		c-0.3,0.1-0.3,0.4-0.4,0.8c0,0.8,0,3.1,0,3.4V72.7z"/>
	<path class="st1" d="M118.2,67.1c-0.3,0-0.5,0-1,0.3c-0.4,0.3-1.9,2-2.3,2.5c-0.1,0.1-0.1,0.1-0.2,0.1l-0.3-0.2
		c-0.1,0-0.1-0.1-0.1-0.2l1.1-3.2c0.1-0.2,0.2-0.2,0.3-0.2c0.1,0,0.3,0,0.4,0c0.8,0.1,3.4,0.1,4.9,0.1c1.1,0,2,0,2.7-0.1
		c0.6,0,1.2-0.1,1.3-0.1c0.3,0,0.4,0.2,0.3,0.4c-0.1,0.2-8,11.2-8.4,11.7h4.3c0.5,0,0.9,0,1.3-0.2c0.5-0.2,2.3-2.1,2.5-2.4
		c0.1-0.1,0.1-0.1,0.2-0.1l0.3,0.2c0.1,0,0.1,0.1,0,0.2c-0.3,0.4-1.1,2.6-1.4,3.1c0,0.1-0.1,0.2-0.2,0.2c-0.1,0-0.2,0-0.4-0.1
		c-1-0.1-3.9-0.2-5.5-0.2H114c-0.1,0-0.3,0-0.3-0.1c0-0.1,0-0.3,0.1-0.4c0.7-1.1,8.1-11.4,8.3-11.6H118.2z"/>
	<path class="st1" d="M129.2,78.3c-1.3-0.8-2.6-2.7-2.6-5.3c0-1.1,0.3-2.8,1.7-4.5c1.6-1.9,3.6-2.3,5.2-2.3c1.5,0,2.9,0.2,4.4,1.4
		c1.4,1.1,2.5,2.9,2.5,5.4c0,1.3-0.4,2.7-1.4,3.9c-1.2,1.5-2.7,2.5-5.5,2.5C132.2,79.5,130.7,79.2,129.2,78.3z M137.5,73.1
		c0-3.9-2.6-6.1-4.1-6.1c-0.4,0-1.3-0.1-2.4,1c-1.1,1-1.6,2.9-1.6,4.4c0,4.6,2.6,6.2,4.1,6.2C136.9,78.6,137.5,74.6,137.5,73.1z"/>
	<path class="st1" d="M145,78.3c-1.3-0.8-2.6-2.7-2.6-5.3c0-1.1,0.3-2.8,1.7-4.5c1.6-1.9,3.6-2.3,5.2-2.3c1.5,0,2.9,0.2,4.4,1.4
		c1.4,1.1,2.5,2.9,2.5,5.4c0,1.3-0.4,2.7-1.4,3.9c-1.2,1.5-2.7,2.5-5.5,2.5C148,79.5,146.4,79.2,145,78.3z M153.3,73.1
		c0-3.9-2.6-6.1-4.1-6.1c-0.4,0-1.3-0.1-2.4,1c-1.1,1-1.6,2.9-1.6,4.4c0,4.6,2.6,6.2,4.1,6.2C152.7,78.6,153.3,74.6,153.3,73.1z"/>
</g>
<g class="st0">
	<path class="st1" d="M160.3,71.4c-0.1-1.3-0.8-3.7-0.8-4.2c0-0.5,0.3-1,1.1-1c0.8,0,1,0.5,1,1c0,0.5-0.6,3-0.7,4.2H160.3z
		 M163.4,71.4c-0.1-1.3-0.8-3.7-0.8-4.2c0-0.5,0.3-1,1-1c0.8,0,1.1,0.5,1.1,1c0,0.5-0.6,3-0.8,4.2H163.4z"/>
</g>
<g class="st0">
	<path class="st1" d="M51.2,43c1,0.8,1.8,1.5,2.2,2.2c0.4,0.7,0.5,1.3,0.2,1.7c-0.2,0.5-0.8,0.8-1.7,0.9C51,48,49.8,48,48.2,47.7
		c-1.6-0.2-3.1-0.4-4.3-0.5C42.6,47.1,41.3,47,40,47c-1.3,0-2.6,0-4,0c-1.4,0-3.1,0.1-5,0.2c-1.3,0.1-2.7,0.2-4.2,0.3
		c-1.6,0.2-3.1,0.3-4.7,0.5c-1.6,0.2-3.2,0.4-4.7,0.7c-1.6,0.2-3,0.5-4.3,0.8c-1,0.2-1.9,0.4-2.5,0.5C10,50.1,9.4,50.1,9,50
		c-0.4-0.1-0.9-0.2-1.2-0.5c-0.4-0.3-0.9-0.6-1.4-1.1c-1.4-1.2-2-1.9-1.8-2.2c0.2-0.3,1.2-0.5,3.1-0.5c0.4,0,1.1,0,2.2-0.1
		c1.1-0.1,2.5-0.1,4.2-0.3c1.7-0.1,3.6-0.3,5.7-0.4c2.1-0.2,4.4-0.4,6.9-0.7l0.3-8.8c-2.5,0.3-4.3,0.4-5.6,0.4
		c-1.2-0.1-2.1-0.3-2.8-0.7c-1.3-0.9-1.9-1.5-1.8-1.7c0.1-0.3,1.2-0.4,3.1-0.5c1,0,2.1-0.1,3.3-0.3c1.2-0.2,2.5-0.4,3.8-0.7l0.3-7.9
		c-1.7,0.2-3.2,0.3-4.5,0.3c-1.3,0-2.5-0.1-3.8-0.3c-0.9,1.7-2,3.2-3.4,4.5c-1.4,1.3-3,2.4-4.8,3.5c-2.1,1.2-3.3,1.7-3.5,1.3
		C7.1,33,7.6,32,9,30.4c1.3-1.6,2.5-3.4,3.5-5.1c1-1.8,1.8-3.4,2.4-5c0.4-1.1,0.7-2.1,1-3c0.2-0.9,0.2-1.7,0.1-2.2
		c-0.3-1-0.5-1.8-0.5-2.4c0-0.6,0.2-1,0.5-1.1c0.4-0.2,1-0.1,1.8,0.2s2,0.8,3.5,1.5c0.9,0.5,1.6,0.9,2.1,1.2c0.5,0.3,0.8,0.7,0.9,1
		c0.1,0.3,0,0.7-0.3,1c-0.3,0.4-0.7,0.8-1.3,1.3c-0.3,0.2-0.6,0.7-1.1,1.3c-0.4,0.7-0.9,1.5-1.3,2.4c2.2-0.1,4.7-0.5,7.4-1.1
		c0-2.3,0-4.3,0-5.9c0-1.6-0.1-3-0.2-4.1s-0.3-2-0.5-2.6c-0.2-0.7-0.5-1.2-0.7-1.6c-0.6-0.8-1-1.5-1.3-2c-0.2-0.5-0.2-0.9,0.1-1.1
		c0.3-0.2,0.8-0.2,1.6-0.1c0.8,0.1,2,0.4,3.5,0.8c1.4,0.4,2.5,0.8,3.4,1.1C34.2,5.2,34.7,5.6,35,6c0.3,0.5,0.4,1,0.2,1.6
		c-0.2,0.6-0.5,1.4-1,2.2c-0.2,0.3-0.4,1.2-0.6,2.6c-0.2,1.4-0.4,3.5-0.6,6.5c0.6-0.2,1.1-0.4,1.6-0.5c0.5-0.1,1-0.3,1.5-0.5
		c1.3-0.5,2.5-0.7,3.4-0.6c0.9,0,2,0.4,3.2,1c1.3,0.7,1.7,1.3,1.3,2c-0.4,0.7-2.1,1.2-5,1.8c-1,0.2-2.1,0.4-3.1,0.6
		c-1,0.2-2.1,0.4-3.1,0.6l-0.3,7.4c1.1-0.4,2-0.8,2.7-1s1.4-0.4,2-0.5c0.6-0.1,1.2,0,1.7,0.1c0.5,0.1,1.1,0.3,1.8,0.6
		c1.3,0.7,2,1.3,2,1.9c0,0.6-0.7,1.1-1.9,1.6c-0.2,0.1-0.5,0.2-0.9,0.3c-0.4,0.1-0.9,0.2-1.6,0.3c-0.7,0.1-1.5,0.2-2.4,0.4
		c-1,0.2-2.1,0.3-3.5,0.5l-0.3,9c1.7-0.2,3.1-0.4,4.2-0.5c1.1-0.2,2.1-0.3,3-0.4c0.9-0.1,1.7-0.3,2.5-0.4c0.8-0.2,1.6-0.3,2.6-0.5
		c0.7-0.2,1.4-0.3,2-0.3c0.6-0.1,1.2-0.1,1.7,0c0.6,0.1,1.1,0.2,1.6,0.5C50.1,42.2,50.6,42.6,51.2,43z"/>
	<path class="st1" d="M76,23.2c0.2,1.6-0.1,2.7-0.9,3.4s-1.8,0.6-3.1-0.1c-0.7-0.4-1.4-1-2.2-1.8c-0.8-0.8-1.6-1.7-2.3-2.8
		c-0.6-0.8-1-1.5-1.2-2c-0.2-0.5-0.3-0.9-0.1-1.1c0.1-0.2,0.5-0.4,1.1-0.4c0.6,0,1.4,0,2.4,0.1c1.2,0.1,2.2,0.3,3,0.5
		c0.8,0.2,1.4,0.5,1.9,0.8c0.5,0.3,0.8,0.8,1.1,1.3C75.8,21.6,75.9,22.3,76,23.2z M78.7,33.5c-0.7,1.8-1.3,3.4-1.8,4.7
		c-0.5,1.4-0.9,2.6-1.2,3.6c-0.3,1-0.6,2-0.8,2.8c-0.2,0.8-0.3,1.6-0.5,2.2c-0.4,2.4-1,3.6-2,3.6c-0.9,0-2.2-1.6-3.9-4.7
		c-0.7-1.3-1.2-2.3-1.5-3s-0.4-1.4-0.3-1.8c0.1-0.4,0.3-0.7,0.6-0.9c0.4-0.2,0.9-0.3,1.5-0.4c0.3,0,0.7-0.1,1.1-0.3
		c0.4-0.2,0.9-0.5,1.4-0.9c0.5-0.4,1.1-1,1.8-1.8c0.7-0.8,1.4-1.8,2.2-3c2.5-3.7,4-5.5,4.6-5.3C80.4,28.5,80,30.2,78.7,33.5z
		 M81.8,11.2c0.1,1.5-0.2,2.5-1,3.2c-0.7,0.7-1.7,0.7-2.9,0c-0.8-0.5-1.5-1-2.2-1.6c-0.7-0.6-1.5-1.5-2.2-2.6
		c-0.5-0.8-0.9-1.4-1.2-1.9C72,7.7,72,7.4,72.1,7.1c0.1-0.2,0.5-0.4,1.1-0.5c0.6-0.1,1.4-0.1,2.5,0c2.2,0.1,3.7,0.5,4.7,1.2
		C81.3,8.6,81.8,9.7,81.8,11.2z M114.5,20.7c1.6,1.3,2.3,2.3,2,3c-0.3,0.7-1.4,1-3.4,0.9c-0.8,0-1.8,0-2.9,0s-2.4,0.1-3.7,0.2
		s-2.7,0.2-4.1,0.3c-1.4,0.1-2.9,0.3-4.3,0.4l-1.5,7.9c1-0.2,1.9-0.4,2.7-0.6c0.8-0.2,1.4-0.4,1.9-0.6c0.6-0.3,1.1-0.5,1.6-0.6
		c0.5-0.1,0.9-0.2,1.3-0.1s0.8,0.2,1.3,0.3s1,0.5,1.7,0.9c1.3,0.8,2.3,1.4,3,1.9c0.7,0.5,1.2,1,1.4,1.4c0.2,0.4,0.2,0.8-0.1,1.1
		s-0.7,0.7-1.4,1.1c-1.1,0.7-1.9,1.3-2.5,2.1c-0.6,0.7-1.2,1.7-1.7,2.9c1.5,0.9,2.1,1.7,1.9,2.4c-0.2,0.7-1,1.1-2.4,1.1
		c-0.8,0-1.8,0-2.9,0.1c-1.1,0.1-2.3,0.2-3.6,0.2c-1.3,0.1-2.6,0.2-3.9,0.3c-1.3,0.1-2.7,0.2-4,0.3c-0.6,1.1-1.2,1.8-1.9,1.8
		c-0.6,0.1-1.3-0.4-1.9-1.5c-0.2-0.3-0.4-0.8-0.6-1.4c-0.2-0.7-0.4-1.5-0.6-2.6c-0.2-1.6-0.5-3.1-0.9-4.3c-0.4-1.3-0.9-2.3-1.5-3
		c-0.5-0.6-0.8-1.1-0.9-1.5c-0.2-0.4-0.1-0.7,0.3-0.9s1-0.3,2-0.3c1,0,2.3,0.2,4.1,0.5c0.5,0,1.1,0,1.6-0.1c0.5,0,1-0.1,1.5-0.2
		l0.7-7.9c-1.5,0.2-2.8,0.5-4,0.7c-1.2,0.2-2.2,0.5-2.9,0.7c-0.8,0.3-1.4,0.5-1.9,0.6c-0.5,0.1-0.9,0.2-1.3,0.1
		c-0.4,0-0.8-0.1-1.1-0.3c-0.4-0.2-0.8-0.4-1.3-0.7c-1.5-0.9-2.2-1.6-2.1-1.9c0.1-0.4,1.1-0.6,3.1-0.7c1.2-0.1,2.9-0.2,5-0.5
		c2.2-0.3,4.5-0.6,6.9-1c0.2-2,0.2-3.6,0.2-4.8c0-1.1-0.3-2.1-0.8-3c-0.8,0.2-1.6,0.4-2.4,0.6c-0.8,0.2-1.6,0.3-2.5,0.5
		c-2.5,0.4-3.8,0.4-4-0.1c-0.2-0.4,1.1-1.2,3.7-2.3c1.4-0.6,2.7-1.3,3.8-2c1.2-0.7,2.2-1.4,3.1-2.2c0.9-0.7,1.6-1.4,2.2-2.1
		c0.5-0.7,0.8-1.2,0.8-1.7c0-1.1,0.4-1.7,1.2-1.9c0.8-0.2,2.2,0.3,4.4,1.5c1.3,0.7,2.2,1.3,2.8,1.8c0.6,0.5,1,1,1.1,1.4
		c0.1,0.4-0.1,0.7-0.5,1c-0.4,0.3-0.9,0.5-1.7,0.6c-0.4,0.1-0.8,0.2-1.1,0.3c-0.4,0.1-0.8,0.2-1.4,0.5c-0.5,0.2-1.2,0.5-2,0.8
		c-0.8,0.3-1.7,0.8-2.8,1.3c1,0.4,1.8,0.7,2.3,1s0.9,0.6,1,0.9c0.2,0.3,0.2,0.7,0,1.1c-0.2,0.4-0.4,0.8-0.7,1.3
		c-0.2,0.2-0.3,0.5-0.5,0.7c-0.1,0.2-0.2,0.5-0.3,0.8c-0.1,0.3-0.2,0.7-0.3,1.1c-0.1,0.4-0.2,1-0.3,1.7c1.3-0.3,2.6-0.5,3.7-0.8
		s2.1-0.5,2.8-0.7c1.6-0.5,2.9-0.8,3.9-1c1-0.2,1.8-0.3,2.4-0.3c0.6,0,1.2,0.1,1.6,0.3C113.5,20,114,20.3,114.5,20.7z M101.8,39.1
		c0.5-1.3,0.6-2.1,0.4-2.4c-0.2-0.3-0.6-0.5-1.2-0.4c-0.3,0-0.9,0-1.6,0.1c-0.7,0.1-1.6,0.2-2.6,0.2c-1,0.1-2,0.2-3.1,0.3
		s-2.2,0.2-3.4,0.3c0.2,1.1,0.4,2.3,0.5,3.5s0.4,2.5,0.5,3.8c5.1-0.5,8-0.9,8.8-1.2c0.3-0.8,0.6-1.4,0.8-2
		C101.3,40.7,101.5,40,101.8,39.1z"/>
</g>
</svg>
