<?xml version="1.0" encoding="utf-8"?>
<!-- Generator: Adobe Illustrator 22.1.0, SVG Export Plug-In . SVG Version: 6.00 Build 0)  -->
<svg version="1.1" id="Layer_1" xmlns="http://www.w3.org/2000/svg" xmlns:xlink="http://www.w3.org/1999/xlink" x="0px" y="0px"
	 viewBox="0 0 178 104" style="enable-background:new 0 0 178 104;" xml:space="preserve">
<style type="text/css">
	.st0{enable-background:new    ;}
	.st1{fill:#95272B;}
</style>
<title>Asset 5</title>
<g class="st0">
	<path class="st1" d="M9.9,69.3c0-1.9,1.7-3,2-3.2c0.2-0.1,0.4-0.2,0.5-0.2s0.2,0.1,0.2,0.1s-0.1,0.2-0.2,0.3c-0.3,0.2-1,1.1-1,2
		c0,0.2,0.1,0.5,0.3,0.5c0.2,0.1,0.9,0.3,0.9,1.2c0,0.6-0.5,1-1.1,1C10.7,71.1,9.9,70.5,9.9,69.3z M13.3,69.3c0-1.9,1.7-3,2-3.2
		c0.2-0.1,0.4-0.2,0.5-0.2S16,66,16,66s-0.1,0.2-0.2,0.3c-0.3,0.2-1,1.1-1,2c0,0.2,0.1,0.5,0.3,0.5c0.2,0.1,0.9,0.3,0.9,1.2
		c0,0.6-0.5,1-1.1,1C14.1,71.1,13.3,70.5,13.3,69.3z"/>
	<path class="st1" d="M20.2,78c-1.3-0.8-2.6-2.7-2.6-5.3c0-1.1,0.3-2.8,1.7-4.5c1.6-1.9,3.6-2.3,5.2-2.3c1.5,0,2.9,0.2,4.4,1.4
		c1.4,1.1,2.5,2.9,2.5,5.4c0,1.3-0.4,2.7-1.4,3.9c-1.2,1.5-2.7,2.5-5.5,2.5C23.2,79.2,21.7,78.9,20.2,78z M28.5,72.9
		c0-3.9-2.6-6.1-4.1-6.1c-0.4,0-1.3-0.1-2.4,1c-1.1,1-1.6,2.9-1.6,4.4c0,4.6,2.6,6.2,4.1,6.2C27.9,78.4,28.5,74.4,28.5,72.9z"/>
	<path class="st1" d="M35.2,74c-0.1,0.4-1,2.8-1,3.4c0,0.4,0.2,0.8,0.7,0.8h0.6c0.2,0,0.2,0.1,0.2,0.1v0.4c0,0.1,0,0.2-0.2,0.2
		s-1-0.1-2.4-0.1c-1.3,0-1.7,0.1-2,0.1c-0.1,0-0.1-0.1-0.1-0.2v-0.3c0-0.1,0-0.2,0.1-0.2h0.5c0.4,0,0.9-0.3,1.2-0.8
		c0.3-0.4,1.5-3.5,2.1-5.1c0.1-0.4,1.6-4.2,1.8-4.7c0.1-0.2,0.1-0.4,0-0.6c-0.1-0.1-0.1-0.2-0.1-0.2c0-0.1,0-0.1,0.2-0.2
		c0.6-0.1,1.7-0.6,2-0.9c0.1-0.1,0.1-0.2,0.2-0.2c0.1,0,0.1,0.1,0.2,0.3c0.3,1.1,1.7,5.2,2.1,6.3c0.4,1.4,1.6,4.8,1.8,5.2
		c0.3,0.6,0.8,0.8,1,0.8h0.6c0.1,0,0.1,0.1,0.1,0.2v0.3c0,0.1,0,0.2-0.2,0.2c-0.3,0-0.7-0.1-3-0.1c-1.5,0-2.1,0.1-2.5,0.1
		c-0.2,0-0.2-0.1-0.2-0.2v-0.3c0-0.1,0-0.2,0.1-0.2h0.5c0.5,0,0.6-0.2,0.5-0.6c-0.2-0.6-0.9-3-1.1-3.6L35.2,74L35.2,74z M39,73.3
		l-1.4-4.8c-0.1-0.3-0.1-0.4-0.2-0.4c-0.1,0-0.2,0.1-0.2,0.2c-0.1,0.2-1.6,4.5-1.8,4.9H39V73.3z"/>
	<path class="st1" d="M49.6,72h0.3c0.1,0,0.3-0.1,0.5-0.2c0.3-0.3,3.2-3.9,3.5-4.2c0.3-0.4,0-0.7-0.4-0.7h-0.3c-0.1,0-0.1,0-0.1-0.1
		v-0.5c0-0.1,0-0.1,0.1-0.1c0.2,0,1,0.1,2.4,0.1c0.9,0,1.5-0.1,1.7-0.1c0.1,0,0.1,0,0.1,0.1v0.5c0,0.1-0.1,0.1-0.1,0.1H57
		c-0.3,0-0.7,0.1-1,0.3c-1,0.6-3.3,3.3-3.9,4.1c1.2,1.5,4.1,5.6,4.9,6.5c0.3,0.4,0.8,0.5,1,0.5h0.2c0.1,0,0.1,0.1,0.1,0.1v0.5
		c0,0.1,0,0.1-0.1,0.1c-0.2,0-0.8-0.1-2.6-0.1c-1.5,0-2.2,0.1-2.4,0.1C53,79,53,79,53,78.9v-0.5c0-0.1,0-0.1,0.1-0.1h0.3
		c0.3,0,0.3-0.3,0.3-0.5c-0.2-0.4-3-4.5-3.3-4.8c-0.1-0.1-0.3-0.3-0.5-0.3h-0.3V74c0,0.9,0,3.5,0.1,3.8c0,0.2,0.2,0.4,0.4,0.4h0.6
		c0.1,0,0.1,0,0.1,0.1v0.5c0,0.1,0,0.1-0.1,0.1c-0.2,0-0.8-0.1-2.4-0.1c-1.7,0-2.2,0.1-2.4,0.1c-0.1,0-0.1,0-0.1-0.1v-0.5
		c0-0.1,0.1-0.1,0.1-0.1h0.6c0.3,0,0.5-0.1,0.5-0.3c0-0.2,0.1-3.4,0.1-5.6v-1c0-0.3-0.1-3.7-0.1-3.9c0-0.2-0.1-0.4-0.5-0.4H46
		c-0.1,0-0.1,0-0.1-0.1v-0.5c0-0.1,0-0.1,0.1-0.1c0.2,0,0.8,0.1,2.4,0.1c1.6,0,2.2-0.1,2.4-0.1c0.1,0,0.1,0,0.1,0.1v0.5
		c0,0.1,0,0.1-0.1,0.1h-0.4c-0.4,0-0.6,0.1-0.6,0.5c0,0.3-0.1,3.1-0.1,4L49.6,72L49.6,72z"/>
	<path class="st1" d="M62.8,73.3c0,0.3,0,4.2,0.1,4.9h1c0.8,0,1.7,0,2.6-0.1c1-0.1,2.2-2.2,2.5-2.9c0.1-0.1,0.1-0.2,0.2-0.1l0.4,0.1
		c0.1,0,0.1,0.1,0,0.2s-0.8,3.1-0.9,3.6c-0.5,0-5.7-0.1-7.3-0.1c-1.8,0-2.4,0.1-2.7,0.1c-0.1,0-0.1,0-0.1-0.2v-0.5
		c0-0.1,0-0.1,0.1-0.1h0.6c0.7,0,0.8-0.3,0.8-0.5c0-0.3,0.1-4.8,0.1-5.9v-1c0-1.2,0-3.1-0.1-3.3c0-0.5-0.1-0.6-0.5-0.6h-0.7
		c-0.1,0-0.1-0.1-0.1-0.2v-0.4c0-0.1,0-0.1,0.1-0.1c0.2,0,0.8,0.1,2.5,0.1c2.1,0,2.9-0.1,3-0.1s0.2,0.1,0.2,0.2v0.4
		c0,0.1,0,0.1-0.2,0.1h-0.8c-0.6,0-0.6,0.2-0.6,0.7c0,0.2-0.1,3-0.1,4.2L62.8,73.3L62.8,73.3z"/>
	<path class="st1" d="M73.2,74c-0.1,0.4-1,2.8-1,3.4c0,0.4,0.2,0.8,0.7,0.8h0.6c0.2,0,0.2,0.1,0.2,0.1v0.4c0,0.1,0,0.2-0.2,0.2
		s-1-0.1-2.4-0.1c-1.3,0-1.7,0.1-2,0.1C69,79,69,78.9,69,78.8v-0.3c0-0.1,0-0.2,0.1-0.2h0.5c0.4,0,0.9-0.3,1.2-0.8
		c0.3-0.4,1.5-3.5,2.1-5.1c0.1-0.4,1.6-4.2,1.8-4.7c0.1-0.2,0.1-0.4,0-0.6c-0.1-0.1-0.1-0.2-0.1-0.2c0-0.1,0-0.1,0.2-0.2
		c0.6-0.1,1.7-0.6,2-0.9c0.1-0.1,0.1-0.2,0.2-0.2s0.1,0.1,0.2,0.3c0.3,1.1,1.7,5.2,2.1,6.3c0.4,1.4,1.6,4.8,1.8,5.2
		c0.3,0.6,0.8,0.8,1,0.8h0.6c0.1,0,0.1,0.1,0.1,0.2v0.3c0,0.1,0,0.2-0.2,0.2c-0.3,0-0.7-0.1-3-0.1c-1.5,0-2.1,0.1-2.5,0.1
		c-0.2,0-0.2-0.1-0.2-0.2v-0.3c0-0.1,0-0.2,0.1-0.2h0.5c0.5,0,0.6-0.2,0.5-0.6c-0.2-0.6-0.9-3-1.1-3.6L73.2,74L73.2,74z M77,73.3
		l-1.4-4.8c-0.1-0.3-0.1-0.4-0.2-0.4s-0.2,0.1-0.2,0.2c-0.1,0.2-1.6,4.5-1.8,4.9H77V73.3z"/>
	<path class="st1" d="M94.6,73.7c0-1.6,0-2.5-0.1-3.4c0-0.7-0.1-2.5-0.2-2.7c-0.1-0.5-0.5-0.7-1-0.7h-0.6c-0.1,0-0.1-0.1-0.1-0.2
		v-0.5c0-0.1,0-0.1,0.2-0.1s0.8,0.1,2.1,0.1c1.1,0,1.5-0.1,1.7-0.1s0.2,0,0.2,0.1v0.4c0,0.1,0,0.2-0.1,0.2h-0.5
		c-0.3,0-0.5,0.3-0.5,1c-0.1,1.2-0.4,5.3-0.4,7.7v3.1c0,0.3,0,0.6-0.3,0.6s-0.5-0.1-0.7-0.3c-0.3-0.3-1.2-1.2-2.3-2.5l-3-3.7
		c-0.3-0.4-2.8-3.5-3.2-4.1h-0.1v3.6c0,1.5,0.2,3.7,0.2,4.4c0,1,0.4,1.6,1.1,1.6h0.4c0.1,0,0.1,0.1,0.1,0.2v0.4c0,0.1,0,0.1-0.1,0.1
		c-0.2,0-1.3-0.1-2.1-0.1c-0.6,0-1.8,0.1-2,0.1c-0.1,0-0.1,0-0.1-0.2v-0.5c0-0.1,0-0.1,0.1-0.1H84c0.4,0,0.7-0.6,0.8-1.8
		c0-0.3,0.2-3.2,0.2-5.9V69c0-1.1-0.6-2.1-1.5-2.1H83c-0.1,0-0.1-0.1-0.1-0.1v-0.5c0-0.1,0-0.1,0.1-0.1s0.2,0,0.6,0s0.9,0,1.9,0
		c0.6,0,1.2,0,1.4,0c0.2,0,0.4,0.1,0.5,0.2l4.2,5.1l3.1,3.8h0.1v-1.6H94.6z"/>
	<path class="st1" d="M99.5,70.7c0-0.5-0.1-3-0.1-3.3c-0.1-0.4-0.3-0.5-0.6-0.5h-0.9c-0.1,0-0.1,0-0.1-0.1v-0.5
		c0-0.1,0.1-0.1,0.1-0.1c0.2,0,1,0.1,2.8,0.1c0.5,0,2.3-0.1,2.7-0.1c2.4,0,4.4,0.2,6.1,1.6c1.2,1,2,2.5,2,4.6s-0.6,3.4-1.8,4.7
		c-1.7,1.9-4.8,1.9-6,1.9c-0.3,0-2.4-0.1-3.4-0.1c-1.6,0-2.3,0.1-2.5,0.1c-0.1,0-0.1,0-0.1-0.2v-0.5c0-0.1,0.1-0.1,0.1-0.1h0.9
		c0.3,0,0.5-0.1,0.6-0.4c0.1-0.4,0.1-4.4,0.1-5.8v-1.3H99.5z M102.2,72.4c0,0.2,0,3.3,0,4.4c0,0.4,0.1,0.6,0.3,1
		c0.2,0.3,0.8,0.4,1.4,0.4c1,0,2.4-0.5,3.4-1.8c0.7-1,1.3-2.4,1.3-4.1c0-1.5-0.6-3-1.5-3.9c-1-1.1-2.5-1.6-3.6-1.6
		c-0.5,0-0.8,0-1,0.1c-0.3,0.1-0.3,0.4-0.4,0.8c0,0.8,0,3.1,0,3.4L102.2,72.4L102.2,72.4z"/>
	<path class="st1" d="M121.1,66.8c-0.3,0-0.5,0-1,0.3c-0.4,0.3-1.9,2-2.3,2.5c-0.1,0.1-0.1,0.1-0.2,0.1l-0.3-0.2
		c-0.1,0-0.1-0.1-0.1-0.2l1.1-3.2c0.1-0.2,0.2-0.2,0.3-0.2c0.1,0,0.3,0,0.4,0c0.8,0.1,3.4,0.1,4.9,0.1c1.1,0,2,0,2.7-0.1
		c0.6,0,1.2-0.1,1.3-0.1c0.3,0,0.4,0.2,0.3,0.4c-0.1,0.2-8,11.2-8.4,11.7h4.3c0.5,0,0.9,0,1.3-0.2c0.5-0.2,2.3-2.1,2.5-2.4
		c0.1-0.1,0.1-0.1,0.2-0.1l0.3,0.2c0.1,0,0.1,0.1,0,0.2c-0.3,0.4-1.1,2.6-1.4,3.1c0,0.1-0.1,0.2-0.2,0.2s-0.2,0-0.4-0.1
		c-1-0.1-3.9-0.2-5.5-0.2h-4.2c-0.1,0-0.3,0-0.3-0.1s0-0.3,0.1-0.4c0.7-1.1,8.1-11.4,8.3-11.6h-3.7V66.8z"/>
	<path class="st1" d="M132.1,78c-1.3-0.8-2.6-2.7-2.6-5.3c0-1.1,0.3-2.8,1.7-4.5c1.6-1.9,3.6-2.3,5.2-2.3c1.5,0,2.9,0.2,4.4,1.4
		c1.4,1.1,2.5,2.9,2.5,5.4c0,1.3-0.4,2.7-1.4,3.9c-1.2,1.5-2.7,2.5-5.5,2.5C135.1,79.2,133.5,78.9,132.1,78z M140.4,72.9
		c0-3.9-2.6-6.1-4.1-6.1c-0.4,0-1.3-0.1-2.4,1c-1.1,1-1.6,2.9-1.6,4.4c0,4.6,2.6,6.2,4.1,6.2C139.8,78.4,140.4,74.4,140.4,72.9z"/>
	<path class="st1" d="M147.9,78c-1.3-0.8-2.6-2.7-2.6-5.3c0-1.1,0.3-2.8,1.7-4.5c1.6-1.9,3.6-2.3,5.2-2.3c1.5,0,2.9,0.2,4.4,1.4
		c1.4,1.1,2.5,2.9,2.5,5.4c0,1.3-0.4,2.7-1.4,3.9c-1.2,1.5-2.7,2.5-5.5,2.5C150.9,79.2,149.3,78.9,147.9,78z M156.2,72.9
		c0-3.9-2.6-6.1-4.1-6.1c-0.4,0-1.3-0.1-2.4,1c-1.1,1-1.6,2.9-1.6,4.4c0,4.6,2.6,6.2,4.1,6.2C155.6,78.4,156.2,74.4,156.2,72.9z"/>
	<path class="st1" d="M163.3,67.7c0,1.9-1.7,3-2,3.2c-0.2,0.1-0.4,0.2-0.5,0.2s-0.2-0.1-0.2-0.1s0.1-0.2,0.2-0.3c0.3-0.2,1-1.1,1-2
		c0-0.2-0.1-0.5-0.3-0.5c-0.2-0.1-0.9-0.3-0.9-1.2c0-0.6,0.5-1,1.1-1C162.4,65.9,163.3,66.6,163.3,67.7z M166.7,67.7
		c0,1.9-1.7,3-2,3.2c-0.2,0.1-0.4,0.2-0.5,0.2S164,71,164,71s0.1-0.2,0.2-0.3c0.3-0.2,1-1.1,1-2c0-0.2-0.1-0.5-0.3-0.5
		c-0.2-0.1-0.9-0.3-0.9-1.2c0-0.6,0.5-1,1.1-1C165.8,65.9,166.7,66.6,166.7,67.7z"/>
</g>
<g class="st0">
	<path class="st1" d="M77.3,45c1,0.8,1.8,1.5,2.2,2.2c0.4,0.7,0.5,1.3,0.2,1.7c-0.2,0.5-0.8,0.8-1.7,0.9c-0.9,0.2-2.1,0.1-3.7-0.1
		c-1.6-0.2-3.1-0.4-4.3-0.5c-1.3-0.1-2.6-0.2-3.8-0.2c-1.3,0-2.6,0-4,0c-1.4,0-3.1,0.1-5,0.2c-1.3,0.1-2.7,0.2-4.2,0.3
		c-1.6,0.2-3.1,0.3-4.7,0.5c-1.6,0.2-3.2,0.4-4.7,0.7c-1.6,0.2-3,0.5-4.3,0.8c-1,0.2-1.9,0.4-2.5,0.5c-0.6,0.1-1.2,0.1-1.6,0
		c-0.4-0.1-0.9-0.2-1.2-0.5c-0.4-0.3-0.9-0.6-1.4-1.1c-1.4-1.2-2-1.9-1.8-2.2c0.2-0.3,1.2-0.5,3.1-0.5c0.4,0,1.1,0,2.2-0.1
		c1.1-0.1,2.5-0.1,4.2-0.3c1.7-0.1,3.6-0.3,5.7-0.4c2.1-0.2,4.4-0.4,6.9-0.7l0.3-8.8c-2.5,0.3-4.3,0.4-5.6,0.4
		c-1.2-0.1-2.1-0.3-2.8-0.7c-1.3-0.9-1.9-1.5-1.8-1.7c0.1-0.3,1.2-0.4,3.1-0.5c1,0,2.1-0.1,3.3-0.3c1.2-0.2,2.5-0.4,3.8-0.7l0.3-7.9
		c-1.7,0.2-3.2,0.3-4.5,0.3c-1.3,0-2.5-0.1-3.8-0.3c-0.9,1.7-2,3.2-3.4,4.5c-1.4,1.3-3,2.4-4.8,3.5c-2.1,1.2-3.3,1.7-3.5,1.3
		c-0.2-0.3,0.3-1.3,1.7-2.9c1.3-1.6,2.5-3.4,3.5-5.1c1-1.8,1.8-3.4,2.4-5c0.4-1.1,0.7-2.1,1-3c0.2-0.9,0.2-1.7,0.1-2.2
		c-0.3-1-0.5-1.8-0.5-2.4c0-0.6,0.2-1,0.5-1.1c0.4-0.2,1-0.1,1.8,0.2s2,0.8,3.5,1.5c0.9,0.5,1.6,0.9,2.1,1.2c0.5,0.3,0.8,0.7,0.9,1
		c0.1,0.3,0,0.7-0.3,1c-0.3,0.4-0.7,0.8-1.3,1.3c-0.3,0.2-0.6,0.7-1.1,1.3c-0.4,0.7-0.9,1.5-1.3,2.4c2.2-0.1,4.7-0.5,7.4-1.1
		c0-2.3,0-4.3,0-5.9c0-1.6-0.1-3-0.2-4.1s-0.3-2-0.5-2.6C52.7,9,52.4,8.5,52.2,8c-0.6-0.8-1-1.5-1.3-2c-0.2-0.5-0.2-0.9,0.1-1.1
		c0.3-0.2,0.8-0.2,1.6-0.1c0.8,0.1,2,0.4,3.5,0.8c1.4,0.4,2.5,0.8,3.4,1.1c0.8,0.4,1.4,0.8,1.7,1.2c0.3,0.5,0.4,1,0.2,1.6
		c-0.2,0.6-0.5,1.4-1,2.2c-0.2,0.3-0.4,1.2-0.6,2.6c-0.2,1.4-0.4,3.5-0.6,6.5c0.6-0.2,1.1-0.4,1.6-0.5c0.5-0.1,1-0.3,1.5-0.5
		c1.3-0.5,2.5-0.7,3.4-0.6c0.9,0,2,0.4,3.2,1c1.3,0.7,1.7,1.3,1.3,2c-0.4,0.7-2.1,1.2-5,1.8c-1,0.2-2.1,0.4-3.1,0.6
		c-1,0.2-2.1,0.4-3.1,0.6l-0.3,7.4c1.1-0.4,2-0.8,2.7-1s1.4-0.4,2-0.5c0.6-0.1,1.2,0,1.7,0.1c0.5,0.1,1.1,0.3,1.8,0.6
		c1.3,0.7,2,1.3,2,1.9c0,0.6-0.7,1.1-1.9,1.6c-0.2,0.1-0.5,0.2-0.9,0.3c-0.4,0.1-0.9,0.2-1.6,0.3c-0.7,0.1-1.5,0.2-2.4,0.4
		c-1,0.2-2.1,0.3-3.5,0.5l-0.3,9c1.7-0.2,3.1-0.4,4.2-0.5c1.1-0.2,2.1-0.3,3-0.4c0.9-0.1,1.7-0.3,2.5-0.4c0.8-0.2,1.6-0.3,2.6-0.5
		c0.7-0.2,1.4-0.3,2-0.3c0.6-0.1,1.2-0.1,1.7,0c0.6,0.1,1.1,0.2,1.6,0.5C76.1,44.2,76.7,44.5,77.3,45z"/>
	<path class="st1" d="M102.1,25.2c0.2,1.6-0.1,2.7-0.9,3.4c-0.7,0.6-1.8,0.6-3.1-0.1c-0.7-0.4-1.4-1-2.2-1.8
		c-0.8-0.8-1.6-1.7-2.3-2.8c-0.6-0.8-1-1.5-1.2-2c-0.2-0.5-0.3-0.9-0.1-1.1c0.1-0.2,0.5-0.4,1.1-0.4s1.4,0,2.4,0.1
		c1.2,0.1,2.2,0.3,3,0.5c0.8,0.2,1.4,0.5,1.9,0.8c0.5,0.3,0.8,0.8,1.1,1.3C101.8,23.6,102,24.3,102.1,25.2z M104.8,35.4
		c-0.7,1.8-1.3,3.4-1.8,4.7c-0.5,1.4-0.9,2.6-1.2,3.6c-0.3,1-0.6,2-0.8,2.8c-0.2,0.8-0.3,1.6-0.5,2.2c-0.4,2.4-1,3.6-2,3.6
		c-0.9,0-2.2-1.6-3.9-4.7c-0.7-1.3-1.2-2.3-1.5-3s-0.4-1.4-0.3-1.8c0.1-0.4,0.3-0.7,0.6-0.9c0.4-0.2,0.9-0.3,1.5-0.4
		c0.3,0,0.7-0.1,1.1-0.3c0.4-0.2,0.9-0.5,1.4-0.9c0.5-0.4,1.1-1,1.8-1.8c0.7-0.8,1.4-1.8,2.2-3c2.5-3.7,4-5.5,4.6-5.3
		C106.4,30.4,106.1,32.1,104.8,35.4z M107.9,13.1c0.1,1.5-0.2,2.5-1,3.2s-1.7,0.7-2.9,0c-0.8-0.5-1.5-1-2.2-1.6
		c-0.7-0.6-1.5-1.5-2.2-2.6c-0.5-0.8-0.9-1.4-1.2-1.9c-0.2-0.5-0.3-0.8-0.2-1.1c0.1-0.2,0.5-0.4,1.1-0.5c0.6-0.1,1.4-0.1,2.5,0
		c2.2,0.1,3.7,0.5,4.7,1.2C107.4,10.5,107.8,11.6,107.9,13.1z M140.6,22.6c1.6,1.3,2.3,2.3,2,3c-0.3,0.7-1.4,1-3.4,0.9
		c-0.8,0-1.8,0-2.9,0s-2.4,0.1-3.7,0.2c-1.3,0.1-2.7,0.2-4.1,0.3c-1.4,0.1-2.9,0.3-4.3,0.4l-1.5,7.9c1-0.2,1.9-0.4,2.7-0.6
		c0.8-0.2,1.4-0.4,1.9-0.6c0.6-0.3,1.1-0.5,1.6-0.6c0.5-0.1,0.9-0.2,1.3-0.1c0.4,0,0.8,0.2,1.3,0.3c0.5,0.2,1,0.5,1.7,0.9
		c1.3,0.8,2.3,1.4,3,1.9c0.7,0.5,1.2,1,1.4,1.4c0.2,0.4,0.2,0.8-0.1,1.1s-0.7,0.7-1.4,1.1c-1.1,0.7-1.9,1.3-2.5,2.1
		c-0.6,0.7-1.2,1.7-1.7,2.9c1.5,0.9,2.1,1.7,1.9,2.4c-0.2,0.7-1,1.1-2.4,1.1c-0.8,0-1.8,0-2.9,0.1c-1.1,0.1-2.3,0.2-3.6,0.2
		c-1.3,0.1-2.6,0.2-3.9,0.3c-1.3,0.1-2.7,0.2-4,0.3c-0.6,1.1-1.2,1.8-1.9,1.8c-0.6,0.1-1.3-0.4-1.9-1.5c-0.2-0.3-0.4-0.8-0.6-1.4
		c-0.2-0.7-0.4-1.5-0.6-2.6c-0.2-1.6-0.5-3.1-0.9-4.3c-0.4-1.3-0.9-2.3-1.5-3c-0.5-0.6-0.8-1.1-0.9-1.5c-0.2-0.4-0.1-0.7,0.3-0.9
		s1-0.3,2-0.3c1,0,2.3,0.2,4.1,0.5c0.5,0,1.1,0,1.6-0.1c0.5,0,1-0.1,1.5-0.2l0.7-7.9c-1.5,0.2-2.8,0.5-4,0.7
		c-1.2,0.2-2.2,0.5-2.9,0.7c-0.8,0.3-1.4,0.5-1.9,0.6c-0.5,0.1-0.9,0.2-1.3,0.1c-0.4,0-0.8-0.1-1.1-0.3c-0.4-0.2-0.8-0.4-1.3-0.7
		c-1.5-0.9-2.2-1.6-2.1-1.9c0.1-0.4,1.1-0.6,3.1-0.7c1.2-0.1,2.9-0.2,5-0.5c2.2-0.3,4.5-0.6,6.9-1c0.2-2,0.2-3.6,0.2-4.8
		s-0.3-2.1-0.8-3c-0.8,0.2-1.6,0.4-2.4,0.6c-0.8,0.2-1.6,0.3-2.5,0.5c-2.5,0.4-3.8,0.4-4-0.1c-0.2-0.4,1.1-1.2,3.7-2.3
		c1.4-0.6,2.7-1.3,3.8-2s2.2-1.4,3.1-2.2c0.9-0.7,1.6-1.4,2.2-2.1c0.5-0.7,0.8-1.2,0.8-1.7c0-1.1,0.4-1.7,1.2-1.9
		c0.8-0.2,2.2,0.3,4.4,1.5c1.3,0.7,2.2,1.3,2.8,1.8c0.6,0.5,1,1,1.1,1.4c0.1,0.4-0.1,0.7-0.5,1c-0.4,0.3-0.9,0.5-1.7,0.6
		c-0.4,0.1-0.8,0.2-1.1,0.3c-0.4,0.1-0.8,0.2-1.4,0.5c-0.5,0.2-1.2,0.5-2,0.8c-0.8,0.3-1.7,0.8-2.8,1.3c1,0.4,1.8,0.7,2.3,1
		s0.9,0.6,1,0.9c0.2,0.3,0.2,0.7,0,1.1c-0.2,0.4-0.4,0.8-0.7,1.3c-0.2,0.2-0.3,0.5-0.5,0.7c-0.1,0.2-0.2,0.5-0.3,0.8
		s-0.2,0.7-0.3,1.1s-0.2,1-0.3,1.7c1.3-0.3,2.6-0.5,3.7-0.8c1.1-0.2,2.1-0.5,2.8-0.7c1.6-0.5,2.9-0.8,3.9-1c1-0.2,1.8-0.3,2.4-0.3
		c0.6,0,1.2,0.1,1.6,0.3C139.6,22,140.1,22.3,140.6,22.6z M127.9,41c0.5-1.3,0.6-2.1,0.4-2.4c-0.2-0.3-0.6-0.5-1.2-0.4
		c-0.3,0-0.9,0-1.6,0.1c-0.7,0.1-1.6,0.2-2.6,0.2c-1,0.1-2,0.2-3.1,0.3c-1.1,0.1-2.2,0.2-3.4,0.3c0.2,1.1,0.4,2.3,0.5,3.5
		c0.2,1.2,0.4,2.5,0.5,3.8c5.1-0.5,8-0.9,8.8-1.2c0.3-0.8,0.6-1.4,0.8-2C127.4,42.7,127.6,41.9,127.9,41z"/>
</g>
</svg>
